<svg width="24" height="24" viewBox="0 0 24 24" fill="none" xmlns="http://www.w3.org/2000/svg">
<path d="M12 1.25C6.06579 1.25 1.25 6.06579 1.25 12C1.25 17.9342 6.06579 22.75 12 22.75C17.9342 22.75 22.75 17.9342 22.75 12C22.75 6.06579 17.9342 1.25 12 1.25Z" fill="#DFEAFD" stroke="#2570ED" stroke-width="1.5"/>
<path d="M13 16.2297C13 16.6551 12.6551 17 12.2297 17L11.7703 17C11.3449 17 11 16.6551 11 16.2297L11 15.4626C11 15.0372 11.3449 14.6923 11.7703 14.6923L12.2297 14.6923C12.6551 14.6923 13 15.0372 13 15.4626L13 16.2297Z" fill="#2570ED"/>
<path d="M13 12.3836C13 12.809 12.6551 13.1538 12.2297 13.1538L11.7703 13.1538C11.3449 13.1538 11 12.809 11 12.3836L11 7.77027C11 7.34486 11.3449 7 11.7703 7L12.2297 7C12.6551 7 13 7.34486 13 7.77027L13 12.3836Z" fill="#2570ED"/>
</svg>
