<?xml version="1.0" encoding="UTF-8" standalone="no"?>
<!DOCTYPE svg PUBLIC "-//W3C//DTD SVG 1.1//EN" "http://www.w3.org/Graphics/SVG/1.1/DTD/svg11.dtd">
<svg width="100%" height="100%" viewBox="0 0 20 21" version="1.1" xmlns="http://www.w3.org/2000/svg" xmlns:xlink="http://www.w3.org/1999/xlink" xml:space="preserve" xmlns:serif="http://www.serif.com/" style="fill-rule:evenodd;clip-rule:evenodd;stroke-linejoin:round;stroke-miterlimit:2;">
    <path d="M7.5,17.25L4.167,17.25C3.924,17.25 3.69,17.153 3.519,16.982C3.518,16.981 3.518,16.981 3.518,16.981C3.347,16.81 3.25,16.576 3.25,16.333L3.25,4.667C3.25,4.424 3.347,4.19 3.518,4.018C3.518,4.018 3.518,4.018 3.518,4.018C3.69,3.847 3.924,3.75 4.167,3.75C4.167,3.75 7.5,3.75 7.5,3.75C7.914,3.75 8.25,3.414 8.25,3C8.25,2.586 7.914,2.25 7.5,2.25L4.167,2.25C3.526,2.25 2.911,2.505 2.458,2.958C2.005,3.411 1.75,4.026 1.75,4.667C1.75,4.667 1.75,16.333 1.75,16.333C1.75,16.974 2.005,17.589 2.458,18.042C2.911,18.495 3.526,18.75 4.167,18.75L7.5,18.75C7.914,18.75 8.25,18.414 8.25,18C8.25,17.586 7.914,17.25 7.5,17.25Z" style="fill:rgb(5,5,5);"/>
    <path d="M13.864,15.197L18.03,11.03C18.171,10.89 18.25,10.699 18.25,10.5C18.25,10.301 18.171,10.11 18.03,9.97L13.864,5.803C13.571,5.51 13.096,5.51 12.803,5.803C12.51,6.096 12.51,6.571 12.803,6.864L16.439,10.5C16.439,10.5 12.803,14.136 12.803,14.136C12.51,14.429 12.51,14.904 12.803,15.197C13.096,15.49 13.571,15.49 13.864,15.197Z" style="fill:rgb(5,5,5);"/>
    <path d="M17.5,9.75L7.5,9.75C7.086,9.75 6.75,10.086 6.75,10.5C6.75,10.914 7.086,11.25 7.5,11.25L17.5,11.25C17.914,11.25 18.25,10.914 18.25,10.5C18.25,10.086 17.914,9.75 17.5,9.75Z" style="fill:rgb(5,5,5);"/>
</svg>
