<?xml version="1.0" encoding="UTF-8" standalone="no"?>
<!DOCTYPE svg PUBLIC "-//W3C//DTD SVG 1.1//EN" "http://www.w3.org/Graphics/SVG/1.1/DTD/svg11.dtd">
<svg width="100%" height="100%" viewBox="0 0 10 10" version="1.1" xmlns="http://www.w3.org/2000/svg" xmlns:xlink="http://www.w3.org/1999/xlink" xml:space="preserve" xmlns:serif="http://www.serif.com/" style="fill-rule:evenodd;clip-rule:evenodd;stroke-linejoin:round;stroke-miterlimit:2;">
    <g id="Artboard1" transform="matrix(1,0,0,1.25138,0,0.222088)">
        <rect x="0" y="-0.177" width="10" height="7.991" style="fill:none;"/>
        <g transform="matrix(1,0,0,0.799115,-0.000187458,1.02112)">
            <path d="M8.327,0.26L3.5,4.649C3.5,4.649 1.673,2.987 1.673,2.987C1.264,2.616 0.631,2.646 0.26,3.055C-0.111,3.463 -0.081,4.096 0.327,4.467L2.827,6.74C3.209,7.087 3.791,7.087 4.173,6.74L9.673,1.74C10.081,1.369 10.111,0.736 9.74,0.327C9.369,-0.081 8.736,-0.111 8.327,0.26Z"/>
        </g>
    </g>
</svg>
