<?xml version="1.0" encoding="UTF-8" standalone="no"?>
<!DOCTYPE svg PUBLIC "-//W3C//DTD SVG 1.1//EN" "http://www.w3.org/Graphics/SVG/1.1/DTD/svg11.dtd">
<svg width="100%" height="100%" viewBox="0 0 24 24" version="1.1" xmlns="http://www.w3.org/2000/svg" xmlns:xlink="http://www.w3.org/1999/xlink" xml:space="preserve" xmlns:serif="http://www.serif.com/" style="fill-rule:evenodd;clip-rule:evenodd;stroke-linejoin:round;stroke-miterlimit:2;">
    <g id="Artboard1" transform="matrix(1.00734,0,0,1.11098,0,-1.01523)">
        <rect x="0" y="0.914" width="23.825" height="21.603" style="fill:none;"/>
        <g transform="matrix(0.992717,0,0,0.900104,5.45994e-05,1.13886)">
            <path d="M2.594,5.355L10.037,5.355" style="fill:none;fill-rule:nonzero;"/>
        </g>
        <g transform="matrix(0.992717,0,0,0.900104,5.45994e-05,1.13886)">
            <path d="M2.594,6.105L10.037,6.105C10.451,6.105 10.787,5.769 10.787,5.355C10.787,4.941 10.451,4.605 10.037,4.605L2.594,4.605C2.18,4.605 1.844,4.941 1.844,5.355C1.844,5.769 2.18,6.105 2.594,6.105Z"/>
        </g>
        <g transform="matrix(0.992717,0,0,0.900104,5.45994e-05,1.13886)">
            <path d="M2.594,9.618L10.037,9.618" style="fill:none;fill-rule:nonzero;"/>
        </g>
        <g transform="matrix(0.992717,0,0,0.900104,5.45994e-05,1.13886)">
            <path d="M2.594,10.368L10.037,10.368C10.451,10.368 10.787,10.032 10.787,9.618C10.787,9.204 10.451,8.868 10.037,8.868L2.594,8.868C2.18,8.868 1.844,9.204 1.844,9.618C1.844,10.032 2.18,10.368 2.594,10.368Z"/>
        </g>
        <g transform="matrix(0.992717,0,0,0.900104,5.45994e-05,1.13886)">
            <path d="M2.594,13.882L10.037,13.882" style="fill:none;fill-rule:nonzero;"/>
        </g>
        <g transform="matrix(0.992717,0,0,0.900104,5.45994e-05,1.13886)">
            <path d="M2.594,14.632L10.037,14.632C10.451,14.632 10.787,14.296 10.787,13.882C10.787,13.468 10.451,13.132 10.037,13.132L2.594,13.132C2.18,13.132 1.844,13.468 1.844,13.882C1.844,14.296 2.18,14.632 2.594,14.632Z"/>
        </g>
        <g transform="matrix(0.992717,0,0,0.900104,5.45994e-05,1.13886)">
            <path d="M2.594,18.145L10.037,18.145" style="fill:none;fill-rule:nonzero;"/>
        </g>
        <g transform="matrix(0.992717,0,0,0.900104,5.45994e-05,1.13886)">
            <path d="M2.594,18.895L10.037,18.895C10.451,18.895 10.787,18.559 10.787,18.145C10.787,17.731 10.451,17.395 10.037,17.395L2.594,17.395C2.18,17.395 1.844,17.731 1.844,18.145C1.844,18.559 2.18,18.895 2.594,18.895Z"/>
        </g>
        <g transform="matrix(0.992717,0,0,0.900104,5.45994e-05,1.13886)">
            <path d="M13.963,5.355L21.406,5.355" style="fill:none;fill-rule:nonzero;"/>
        </g>
        <g transform="matrix(0.992717,0,0,0.900104,5.45994e-05,1.13886)">
            <path d="M13.963,6.105L21.406,6.105C21.82,6.105 22.156,5.769 22.156,5.355C22.156,4.941 21.82,4.605 21.406,4.605L13.963,4.605C13.549,4.605 13.213,4.941 13.213,5.355C13.213,5.769 13.549,6.105 13.963,6.105Z"/>
        </g>
        <g transform="matrix(0.992717,0,0,0.900104,5.45994e-05,1.13886)">
            <path d="M13.963,9.618L21.406,9.618" style="fill:none;fill-rule:nonzero;"/>
        </g>
        <g transform="matrix(0.992717,0,0,0.900104,5.45994e-05,1.13886)">
            <path d="M13.963,10.368L21.406,10.368C21.82,10.368 22.156,10.032 22.156,9.618C22.156,9.204 21.82,8.868 21.406,8.868L13.963,8.868C13.549,8.868 13.213,9.204 13.213,9.618C13.213,10.032 13.549,10.368 13.963,10.368Z"/>
        </g>
        <g transform="matrix(0.992717,0,0,0.900104,5.45994e-05,1.13886)">
            <path d="M13.963,13.882L21.406,13.882" style="fill:none;fill-rule:nonzero;"/>
        </g>
        <g transform="matrix(0.992717,0,0,0.900104,5.45994e-05,1.13886)">
            <path d="M13.963,14.632L21.406,14.632C21.82,14.632 22.156,14.296 22.156,13.882C22.156,13.468 21.82,13.132 21.406,13.132L13.963,13.132C13.549,13.132 13.213,13.468 13.213,13.882C13.213,14.296 13.549,14.632 13.963,14.632Z"/>
        </g>
        <g transform="matrix(0.992717,0,0,0.900104,5.45994e-05,1.13886)">
            <path d="M13.963,18.145L21.406,18.145" style="fill:none;fill-rule:nonzero;"/>
        </g>
        <g transform="matrix(0.992717,0,0,0.900104,5.45994e-05,1.13886)">
            <path d="M13.963,18.895L21.406,18.895C21.82,18.895 22.156,18.559 22.156,18.145C22.156,17.731 21.82,17.395 21.406,17.395L13.963,17.395C13.549,17.395 13.213,17.731 13.213,18.145C13.213,18.559 13.549,18.895 13.963,18.895Z"/>
        </g>
    </g>
</svg>
