<svg width="123" height="34" viewBox="0 0 123 34" fill="none" xmlns="http://www.w3.org/2000/svg">
<path d="M49.92 24.108C48.78 24.108 47.772 23.874 46.896 23.406C46.032 22.938 45.354 22.296 44.862 21.48C44.37 20.652 44.124 19.722 44.124 18.69V11.382H46.842V18.564C46.842 19.152 46.974 19.68 47.238 20.148C47.514 20.616 47.88 20.988 48.336 21.264C48.804 21.54 49.332 21.678 49.92 21.678C50.52 21.678 51.054 21.54 51.522 21.264C52.002 20.988 52.38 20.616 52.656 20.148C52.932 19.68 53.07 19.152 53.07 18.564V11.382H55.698V18.69C55.698 19.722 55.452 20.652 54.96 21.48C54.468 22.296 53.784 22.938 52.908 23.406C52.044 23.874 51.048 24.108 49.92 24.108ZM60.1243 24V14.478H62.5723L62.6623 17.718L62.0863 17.34C62.2543 16.776 62.5243 16.26 62.8963 15.792C63.2803 15.324 63.7243 14.958 64.2283 14.694C64.7323 14.418 65.2603 14.28 65.8123 14.28C66.1243 14.28 66.4183 14.31 66.6943 14.37C66.9823 14.43 67.2163 14.508 67.3963 14.604L66.7123 17.376C66.5323 17.256 66.2923 17.16 65.9923 17.088C65.7043 17.016 65.4163 16.98 65.1283 16.98C64.7683 16.98 64.4323 17.046 64.1203 17.178C63.8203 17.298 63.5623 17.466 63.3463 17.682C63.1303 17.898 62.9623 18.144 62.8423 18.42C62.7343 18.696 62.6803 18.984 62.6803 19.284V24H60.1243ZM70.6352 24V10.68H73.1912V24H70.6352ZM81.3359 24.18C80.3159 24.18 79.4039 24.036 78.5999 23.748C77.7959 23.448 77.1419 23.016 76.6379 22.452L78.2399 21.048C78.6359 21.456 79.1099 21.762 79.6619 21.966C80.2139 22.17 80.8019 22.272 81.4259 22.272C81.6419 22.272 81.8519 22.254 82.0559 22.218C82.2719 22.182 82.4579 22.128 82.6139 22.056C82.7699 21.972 82.8959 21.87 82.9919 21.75C83.0879 21.63 83.1359 21.492 83.1359 21.336C83.1359 21.072 82.9739 20.862 82.6499 20.706C82.4459 20.634 82.1819 20.556 81.8579 20.472C81.5459 20.388 81.1919 20.31 80.7959 20.238C80.1239 20.094 79.5359 19.932 79.0319 19.752C78.5279 19.572 78.1079 19.35 77.7719 19.086C77.5079 18.834 77.3039 18.552 77.1599 18.24C77.0159 17.928 76.9439 17.568 76.9439 17.16C76.9439 16.728 77.0519 16.332 77.2679 15.972C77.4839 15.612 77.7899 15.312 78.1859 15.072C78.5819 14.82 79.0319 14.628 79.5359 14.496C80.0519 14.352 80.5979 14.28 81.1739 14.28C81.7259 14.28 82.2659 14.34 82.7939 14.46C83.3339 14.568 83.8439 14.73 84.3239 14.946C84.8039 15.162 85.2179 15.432 85.5659 15.756L84.2339 17.304C83.9699 17.1 83.6639 16.914 83.3159 16.746C82.9679 16.566 82.6019 16.428 82.2179 16.332C81.8459 16.224 81.4799 16.17 81.1199 16.17C80.9039 16.17 80.6879 16.188 80.4719 16.224C80.2679 16.248 80.0879 16.296 79.9319 16.368C79.7759 16.44 79.6499 16.53 79.5539 16.638C79.4699 16.746 79.4279 16.878 79.4279 17.034C79.4279 17.166 79.4579 17.286 79.5179 17.394C79.5899 17.49 79.6859 17.574 79.8059 17.646C79.9859 17.766 80.2439 17.874 80.5799 17.97C80.9159 18.054 81.3299 18.15 81.8219 18.258C82.5179 18.402 83.1179 18.57 83.6219 18.762C84.1379 18.942 84.5519 19.17 84.8639 19.446C85.1159 19.638 85.3079 19.878 85.4399 20.166C85.5719 20.442 85.6379 20.754 85.6379 21.102C85.6379 21.714 85.4459 22.254 85.0619 22.722C84.6899 23.178 84.1799 23.538 83.5319 23.802C82.8959 24.054 82.1639 24.18 81.3359 24.18ZM89.0219 24V10.68H91.5779V24H89.0219ZM99.6908 24.18C98.7548 24.18 97.9268 23.97 97.2068 23.55C96.4988 23.118 95.9408 22.53 95.5328 21.786C95.1368 21.042 94.9388 20.184 94.9388 19.212C94.9388 18.252 95.1428 17.406 95.5508 16.674C95.9708 15.93 96.5408 15.348 97.2608 14.928C97.9928 14.496 98.8328 14.28 99.7808 14.28C100.333 14.28 100.843 14.352 101.311 14.496C101.779 14.64 102.187 14.838 102.535 15.09C102.883 15.33 103.165 15.6 103.381 15.9C103.609 16.188 103.753 16.494 103.813 16.818L103.237 16.8V14.478H105.757V24H103.201V21.57L103.741 21.624C103.669 21.936 103.519 22.242 103.291 22.542C103.063 22.842 102.763 23.118 102.391 23.37C102.031 23.61 101.617 23.808 101.149 23.964C100.693 24.108 100.207 24.18 99.6908 24.18ZM100.375 21.966C100.951 21.966 101.455 21.852 101.887 21.624C102.331 21.396 102.673 21.078 102.913 20.67C103.153 20.25 103.273 19.764 103.273 19.212C103.273 18.684 103.153 18.216 102.913 17.808C102.673 17.4 102.331 17.076 101.887 16.836C101.455 16.596 100.951 16.476 100.375 16.476C99.7988 16.476 99.2948 16.596 98.8628 16.836C98.4308 17.076 98.0888 17.4 97.8368 17.808C97.5968 18.216 97.4768 18.684 97.4768 19.212C97.4768 19.764 97.5968 20.25 97.8368 20.67C98.0888 21.078 98.4308 21.396 98.8628 21.624C99.2948 21.852 99.7988 21.966 100.375 21.966ZM116.107 24.18C115.591 24.18 115.105 24.114 114.649 23.982C114.193 23.85 113.779 23.676 113.407 23.46C113.047 23.232 112.747 22.98 112.507 22.704C112.279 22.416 112.129 22.14 112.057 21.876L112.777 21.732L112.669 23.964H110.257V10.68H112.813V16.71L112.165 16.584C112.249 16.308 112.405 16.032 112.633 15.756C112.861 15.48 113.149 15.234 113.497 15.018C113.857 14.79 114.259 14.61 114.703 14.478C115.147 14.346 115.615 14.28 116.107 14.28C117.031 14.28 117.853 14.496 118.573 14.928C119.305 15.348 119.881 15.93 120.301 16.674C120.721 17.418 120.931 18.27 120.931 19.23C120.931 20.19 120.721 21.042 120.301 21.786C119.893 22.53 119.323 23.118 118.591 23.55C117.859 23.97 117.031 24.18 116.107 24.18ZM115.567 21.984C116.143 21.984 116.647 21.87 117.079 21.642C117.511 21.402 117.847 21.078 118.087 20.67C118.327 20.25 118.447 19.77 118.447 19.23C118.447 18.69 118.327 18.21 118.087 17.79C117.847 17.37 117.511 17.046 117.079 16.818C116.647 16.59 116.143 16.476 115.567 16.476C114.979 16.476 114.469 16.59 114.037 16.818C113.605 17.046 113.263 17.37 113.011 17.79C112.771 18.21 112.651 18.69 112.651 19.23C112.651 19.77 112.771 20.25 113.011 20.67C113.263 21.078 113.605 21.402 114.037 21.642C114.469 21.87 114.979 21.984 115.567 21.984Z" fill="#050505"/>
<g clip-path="url(#clip0_483_16132)">
<path d="M0 8C0 3.58172 3.58172 0 8 0H21C28.1797 0 34 5.8203 34 13V26C34 30.4183 30.4183 34 26 34H13C5.8203 34 0 28.1797 0 21V8Z" fill="#3D4148"/>
<path d="M22.8277 22.3183C22.8277 25.532 20.2135 28.1463 16.9998 28.1463C13.7861 28.1463 11.1718 25.532 11.1718 22.3183C11.1693 21.5404 11.3237 20.7699 11.626 20.053C11.9282 19.3361 12.3719 18.6876 12.9307 18.1462C13.125 17.9612 13.3845 17.8602 13.6529 17.8651C13.9212 17.8701 14.1768 17.9806 14.3642 18.1728C14.5516 18.3649 14.6557 18.6232 14.6539 18.8915C14.6522 19.1599 14.5448 19.4168 14.3549 19.6065C13.8157 20.1324 13.4455 20.8071 13.2917 21.5445C13.1378 22.2818 13.2073 23.0483 13.4912 23.7459C13.7751 24.4436 14.2605 25.0408 14.8855 25.4612C15.5105 25.8816 16.2466 26.1061 16.9998 26.1061C17.753 26.1061 18.4891 25.8816 19.1141 25.4612C19.739 25.0408 20.2245 24.4436 20.5084 23.7459C20.7923 23.0483 20.8617 22.2818 20.7079 21.5445C20.554 20.8071 20.1838 20.1324 19.6446 19.6065C19.4548 19.4168 19.3474 19.1599 19.3456 18.8915C19.3439 18.6232 19.448 18.3649 19.6354 18.1728C19.8228 17.9806 20.0784 17.8701 20.3467 17.8651C20.615 17.8602 20.8745 17.9612 21.0689 18.1462C21.6276 18.6876 22.0714 19.3361 22.3736 20.053C22.6758 20.7699 22.8303 21.5404 22.8277 22.3183ZM18.0198 20.7346V13.2662C18.0198 12.9957 17.9123 12.7362 17.721 12.5449C17.5297 12.3537 17.2703 12.2462 16.9998 12.2462C16.7293 12.2462 16.4698 12.3537 16.2785 12.5449C16.0872 12.7362 15.9798 12.9957 15.9798 13.2662V20.7346C15.9798 21.0052 16.0872 21.2646 16.2785 21.4559C16.4698 21.6472 16.7293 21.7546 16.9998 21.7546C17.2703 21.7546 17.5297 21.6472 17.721 21.4559C17.9123 21.2646 18.0198 21.0052 18.0198 20.7346ZM23.7294 8.40453C23.6398 8.24938 23.511 8.12055 23.3558 8.03102C23.2006 7.94149 23.0246 7.89442 22.8454 7.89453L11.1535 7.89453C10.9744 7.89442 10.7984 7.94146 10.6432 8.03094C10.4881 8.12042 10.3592 8.24917 10.2696 8.40425C10.18 8.55933 10.1328 8.73527 10.1328 8.91437C10.1328 9.09347 10.1799 9.26942 10.2695 9.42453L12.7593 13.7364C12.8946 13.9709 13.1174 14.142 13.3788 14.2121C13.6403 14.2823 13.9188 14.2457 14.1533 14.1104C14.3877 13.9752 14.5589 13.7523 14.629 13.4909C14.6991 13.2294 14.6626 12.9509 14.5273 12.7164L12.9198 9.93453H21.0798L19.4733 12.7164C19.4063 12.8325 19.3629 12.9606 19.3454 13.0935C19.328 13.2264 19.3369 13.3614 19.3716 13.4909C19.4063 13.6203 19.4662 13.7417 19.5478 13.848C19.6294 13.9543 19.7312 14.0434 19.8473 14.1104C19.9634 14.1774 20.0915 14.2208 20.2244 14.2383C20.3573 14.2557 20.4923 14.2468 20.6217 14.2121C20.7512 14.1774 20.8725 14.1175 20.9788 14.0359C21.0851 13.9543 21.1743 13.8525 21.2413 13.7364L23.7308 9.42487C23.8202 9.26965 23.8671 9.09363 23.8668 8.91452C23.8666 8.7354 23.8192 8.55951 23.7294 8.40453Z" fill="white"/>
</g>
<defs>
<clipPath id="clip0_483_16132">
<rect width="34" height="34" fill="white"/>
</clipPath>
</defs>
</svg>
