<svg width="139" height="34" viewBox="0 0 139 34" fill="none" xmlns="http://www.w3.org/2000/svg">
<path d="M49.92 24.108C48.78 24.108 47.772 23.874 46.896 23.406C46.032 22.938 45.354 22.296 44.862 21.48C44.37 20.652 44.124 19.722 44.124 18.69V11.382H46.842V18.564C46.842 19.152 46.974 19.68 47.238 20.148C47.514 20.616 47.88 20.988 48.336 21.264C48.804 21.54 49.332 21.678 49.92 21.678C50.52 21.678 51.054 21.54 51.522 21.264C52.002 20.988 52.38 20.616 52.656 20.148C52.932 19.68 53.07 19.152 53.07 18.564V11.382H55.698V18.69C55.698 19.722 55.452 20.652 54.96 21.48C54.468 22.296 53.784 22.938 52.908 23.406C52.044 23.874 51.048 24.108 49.92 24.108ZM60.0703 24V11.4H66.3343C67.1743 11.4 67.9183 11.574 68.5663 11.922C69.2263 12.258 69.7363 12.732 70.0963 13.344C70.4683 13.944 70.6543 14.628 70.6543 15.396C70.6543 16.164 70.4623 16.86 70.0783 17.484C69.6943 18.108 69.1663 18.606 68.4943 18.978C67.8343 19.338 67.1023 19.518 66.2983 19.518H62.6803V24H60.0703ZM68.1163 24L64.4803 18.312L67.2883 17.862L71.2843 24.018L68.1163 24ZM62.6803 17.322H66.1003C66.4603 17.322 66.7783 17.244 67.0543 17.088C67.3303 16.932 67.5463 16.716 67.7023 16.44C67.8583 16.164 67.9363 15.852 67.9363 15.504C67.9363 15.156 67.8463 14.85 67.6663 14.586C67.4983 14.322 67.2583 14.118 66.9463 13.974C66.6463 13.818 66.2923 13.74 65.8843 13.74H62.6803V17.322ZM74.9414 24V11.4H77.6414V21.57H84.3554V24H74.9414ZM91.584 24.18C90.564 24.18 89.652 24.036 88.848 23.748C88.044 23.448 87.39 23.016 86.886 22.452L88.488 21.048C88.884 21.456 89.358 21.762 89.91 21.966C90.462 22.17 91.05 22.272 91.674 22.272C91.89 22.272 92.1 22.254 92.304 22.218C92.52 22.182 92.706 22.128 92.862 22.056C93.018 21.972 93.144 21.87 93.24 21.75C93.336 21.63 93.384 21.492 93.384 21.336C93.384 21.072 93.222 20.862 92.898 20.706C92.694 20.634 92.43 20.556 92.106 20.472C91.794 20.388 91.44 20.31 91.044 20.238C90.372 20.094 89.784 19.932 89.28 19.752C88.776 19.572 88.356 19.35 88.02 19.086C87.756 18.834 87.552 18.552 87.408 18.24C87.264 17.928 87.192 17.568 87.192 17.16C87.192 16.728 87.3 16.332 87.516 15.972C87.732 15.612 88.038 15.312 88.434 15.072C88.83 14.82 89.28 14.628 89.784 14.496C90.3 14.352 90.846 14.28 91.422 14.28C91.974 14.28 92.514 14.34 93.042 14.46C93.582 14.568 94.092 14.73 94.572 14.946C95.052 15.162 95.466 15.432 95.814 15.756L94.482 17.304C94.218 17.1 93.912 16.914 93.564 16.746C93.216 16.566 92.85 16.428 92.466 16.332C92.094 16.224 91.728 16.17 91.368 16.17C91.152 16.17 90.936 16.188 90.72 16.224C90.516 16.248 90.336 16.296 90.18 16.368C90.024 16.44 89.898 16.53 89.802 16.638C89.718 16.746 89.676 16.878 89.676 17.034C89.676 17.166 89.706 17.286 89.766 17.394C89.838 17.49 89.934 17.574 90.054 17.646C90.234 17.766 90.492 17.874 90.828 17.97C91.164 18.054 91.578 18.15 92.07 18.258C92.766 18.402 93.366 18.57 93.87 18.762C94.386 18.942 94.8 19.17 95.112 19.446C95.364 19.638 95.556 19.878 95.688 20.166C95.82 20.442 95.886 20.754 95.886 21.102C95.886 21.714 95.694 22.254 95.31 22.722C94.938 23.178 94.428 23.538 93.78 23.802C93.144 24.054 92.412 24.18 91.584 24.18ZM99.252 24V11.4H101.952V21.57H108.666V24H99.252ZM115.775 24.18C114.839 24.18 114.011 23.97 113.291 23.55C112.583 23.118 112.025 22.53 111.617 21.786C111.221 21.042 111.023 20.184 111.023 19.212C111.023 18.252 111.227 17.406 111.635 16.674C112.055 15.93 112.625 15.348 113.345 14.928C114.077 14.496 114.917 14.28 115.865 14.28C116.417 14.28 116.927 14.352 117.395 14.496C117.863 14.64 118.271 14.838 118.619 15.09C118.967 15.33 119.249 15.6 119.465 15.9C119.693 16.188 119.837 16.494 119.897 16.818L119.321 16.8V14.478H121.841V24H119.285V21.57L119.825 21.624C119.753 21.936 119.603 22.242 119.375 22.542C119.147 22.842 118.847 23.118 118.475 23.37C118.115 23.61 117.701 23.808 117.233 23.964C116.777 24.108 116.291 24.18 115.775 24.18ZM116.459 21.966C117.035 21.966 117.539 21.852 117.971 21.624C118.415 21.396 118.757 21.078 118.997 20.67C119.237 20.25 119.357 19.764 119.357 19.212C119.357 18.684 119.237 18.216 118.997 17.808C118.757 17.4 118.415 17.076 117.971 16.836C117.539 16.596 117.035 16.476 116.459 16.476C115.883 16.476 115.379 16.596 114.947 16.836C114.515 17.076 114.173 17.4 113.921 17.808C113.681 18.216 113.561 18.684 113.561 19.212C113.561 19.764 113.681 20.25 113.921 20.67C114.173 21.078 114.515 21.396 114.947 21.624C115.379 21.852 115.883 21.966 116.459 21.966ZM132.191 24.18C131.675 24.18 131.189 24.114 130.733 23.982C130.277 23.85 129.863 23.676 129.491 23.46C129.131 23.232 128.831 22.98 128.591 22.704C128.363 22.416 128.213 22.14 128.141 21.876L128.861 21.732L128.753 23.964H126.341V10.68H128.897V16.71L128.249 16.584C128.333 16.308 128.489 16.032 128.717 15.756C128.945 15.48 129.233 15.234 129.581 15.018C129.941 14.79 130.343 14.61 130.787 14.478C131.231 14.346 131.699 14.28 132.191 14.28C133.115 14.28 133.937 14.496 134.657 14.928C135.389 15.348 135.965 15.93 136.385 16.674C136.805 17.418 137.015 18.27 137.015 19.23C137.015 20.19 136.805 21.042 136.385 21.786C135.977 22.53 135.407 23.118 134.675 23.55C133.943 23.97 133.115 24.18 132.191 24.18ZM131.651 21.984C132.227 21.984 132.731 21.87 133.163 21.642C133.595 21.402 133.931 21.078 134.171 20.67C134.411 20.25 134.531 19.77 134.531 19.23C134.531 18.69 134.411 18.21 134.171 17.79C133.931 17.37 133.595 17.046 133.163 16.818C132.731 16.59 132.227 16.476 131.651 16.476C131.063 16.476 130.553 16.59 130.121 16.818C129.689 17.046 129.347 17.37 129.095 17.79C128.855 18.21 128.735 18.69 128.735 19.23C128.735 19.77 128.855 20.25 129.095 20.67C129.347 21.078 129.689 21.402 130.121 21.642C130.553 21.87 131.063 21.984 131.651 21.984Z" fill="#050505"/>
<g clip-path="url(#clip0_672_18363)">
<path d="M0 8C0 3.58172 3.58172 0 8 0H21C28.1797 0 34 5.8203 34 13V26C34 30.4183 30.4183 34 26 34H13C5.8203 34 0 28.1797 0 21V8Z" fill="#3D4148"/>
<path d="M22.8277 22.3183C22.8277 25.532 20.2135 28.1463 16.9998 28.1463C13.7861 28.1463 11.1718 25.532 11.1718 22.3183C11.1693 21.5404 11.3237 20.7699 11.626 20.053C11.9282 19.3361 12.3719 18.6876 12.9307 18.1462C13.125 17.9612 13.3845 17.8602 13.6529 17.8651C13.9212 17.8701 14.1768 17.9806 14.3642 18.1728C14.5516 18.3649 14.6557 18.6232 14.6539 18.8915C14.6522 19.1599 14.5448 19.4168 14.3549 19.6065C13.8157 20.1324 13.4455 20.8071 13.2917 21.5445C13.1378 22.2818 13.2073 23.0483 13.4912 23.7459C13.7751 24.4436 14.2605 25.0408 14.8855 25.4612C15.5105 25.8816 16.2466 26.1061 16.9998 26.1061C17.753 26.1061 18.4891 25.8816 19.1141 25.4612C19.739 25.0408 20.2245 24.4436 20.5084 23.7459C20.7923 23.0483 20.8617 22.2818 20.7079 21.5445C20.554 20.8071 20.1838 20.1324 19.6446 19.6065C19.4548 19.4168 19.3474 19.1599 19.3456 18.8915C19.3439 18.6232 19.448 18.3649 19.6354 18.1728C19.8228 17.9806 20.0784 17.8701 20.3467 17.8651C20.615 17.8602 20.8745 17.9612 21.0689 18.1462C21.6276 18.6876 22.0714 19.3361 22.3736 20.053C22.6758 20.7699 22.8303 21.5404 22.8277 22.3183ZM18.0198 20.7346V13.2662C18.0198 12.9957 17.9123 12.7362 17.721 12.5449C17.5297 12.3537 17.2703 12.2462 16.9998 12.2462C16.7293 12.2462 16.4698 12.3537 16.2785 12.5449C16.0872 12.7362 15.9798 12.9957 15.9798 13.2662V20.7346C15.9798 21.0052 16.0872 21.2646 16.2785 21.4559C16.4698 21.6472 16.7293 21.7546 16.9998 21.7546C17.2703 21.7546 17.5297 21.6472 17.721 21.4559C17.9123 21.2646 18.0198 21.0052 18.0198 20.7346ZM23.7294 8.40453C23.6398 8.24938 23.511 8.12055 23.3558 8.03102C23.2006 7.94149 23.0246 7.89442 22.8454 7.89453L11.1535 7.89453C10.9744 7.89442 10.7984 7.94146 10.6432 8.03094C10.4881 8.12042 10.3592 8.24917 10.2696 8.40425C10.18 8.55933 10.1328 8.73527 10.1328 8.91437C10.1328 9.09347 10.1799 9.26942 10.2695 9.42453L12.7593 13.7364C12.8946 13.9709 13.1174 14.142 13.3788 14.2121C13.6403 14.2823 13.9188 14.2457 14.1533 14.1104C14.3877 13.9752 14.5589 13.7523 14.629 13.4909C14.6991 13.2294 14.6626 12.9509 14.5273 12.7164L12.9198 9.93453H21.0798L19.4733 12.7164C19.4063 12.8325 19.3629 12.9606 19.3454 13.0935C19.328 13.2264 19.3369 13.3614 19.3716 13.4909C19.4063 13.6203 19.4662 13.7417 19.5478 13.848C19.6294 13.9543 19.7312 14.0434 19.8473 14.1104C19.9634 14.1774 20.0915 14.2208 20.2244 14.2383C20.3573 14.2557 20.4923 14.2468 20.6217 14.2121C20.7512 14.1774 20.8725 14.1175 20.9788 14.0359C21.0851 13.9543 21.1743 13.8525 21.2413 13.7364L23.7308 9.42487C23.8202 9.26965 23.8671 9.09363 23.8668 8.91452C23.8666 8.7354 23.8192 8.55951 23.7294 8.40453Z" fill="white"/>
</g>
<defs>
<clipPath id="clip0_672_18363">
<rect width="34" height="34" fill="white"/>
</clipPath>
</defs>
</svg>
