<svg xmlns="http://www.w3.org/2000/svg" viewBox="0 0 2834.6 2000.9" xml:space="preserve"><path d="M2773 322.6c-32.5-122.1-103.8-225.5-225.9-258C2325.7 5.4 1417.3 0 1417.3 0S509 5.4 287.6 64.6c-122.1 32.5-193 135.9-225.9 258C2.5 544 0 1000.5 0 1000.5s2.5 456.5 61.7 677.8c32.5 122.1 103.8 225.5 225.9 258 221.4 59.2 1129.7 64.6 1129.7 64.6s908.3-5.4 1129.7-64.6c122.1-32.5 193.4-135.9 225.9-258 59.2-221.4 61.7-677.8 61.7-677.8s-2.5-456.5-61.6-677.9z"/><path fill="#FFF" d="m1875.9 1000.5-750.3-416.9v833.7"/></svg>