<?xml version="1.0" encoding="UTF-8" standalone="no"?>
<!DOCTYPE svg PUBLIC "-//W3C//DTD SVG 1.1//EN" "http://www.w3.org/Graphics/SVG/1.1/DTD/svg11.dtd">
<svg width="100%" height="100%" viewBox="0 0 40 40" version="1.1" xmlns="http://www.w3.org/2000/svg" xmlns:xlink="http://www.w3.org/1999/xlink" xml:space="preserve" xmlns:serif="http://www.serif.com/" style="fill-rule:evenodd;clip-rule:evenodd;stroke-linejoin:round;stroke-miterlimit:2;">
    <g transform="matrix(1,0,0,1,3,3)">
        <path d="M0,8C0,3.582 3.582,0 8,0L21,0C28.18,0 34,5.82 34,13L34,26C34,30.418 30.418,34 26,34L13,34C5.82,34 0,28.18 0,21L0,8Z" style="fill:rgb(61,65,72);fill-rule:nonzero;"/>
    </g>
    <g transform="matrix(1,0,0,1,3,3)">
        <path d="M22.828,22.318C22.828,25.532 20.214,28.146 17,28.146C13.786,28.146 11.172,25.532 11.172,22.318C11.169,21.54 11.324,20.77 11.626,20.053C11.928,19.336 12.372,18.688 12.931,18.146C13.125,17.961 13.384,17.86 13.653,17.865C13.921,17.87 14.177,17.981 14.364,18.173C14.552,18.365 14.656,18.623 14.654,18.892C14.652,19.16 14.545,19.417 14.355,19.607C13.816,20.132 13.445,20.807 13.292,21.545C13.138,22.282 13.207,23.048 13.491,23.746C13.775,24.444 14.261,25.041 14.886,25.461C15.511,25.882 16.247,26.106 17,26.106C17.753,26.106 18.489,25.882 19.114,25.461C19.739,25.041 20.225,24.444 20.508,23.746C20.792,23.048 20.862,22.282 20.708,21.545C20.554,20.807 20.184,20.132 19.645,19.607C19.455,19.417 19.347,19.16 19.346,18.892C19.344,18.623 19.448,18.365 19.635,18.173C19.823,17.981 20.078,17.87 20.347,17.865C20.615,17.86 20.875,17.961 21.069,18.146C21.628,18.688 22.071,19.336 22.374,20.053C22.676,20.77 22.83,21.54 22.828,22.318ZM18.02,20.735L18.02,13.266C18.02,12.996 17.912,12.736 17.721,12.545C17.53,12.354 17.27,12.246 17,12.246C16.729,12.246 16.47,12.354 16.279,12.545C16.087,12.736 15.98,12.996 15.98,13.266L15.98,20.735C15.98,21.005 16.087,21.265 16.279,21.456C16.47,21.647 16.729,21.755 17,21.755C17.27,21.755 17.53,21.647 17.721,21.456C17.912,21.265 18.02,21.005 18.02,20.735ZM23.729,8.405C23.64,8.249 23.511,8.121 23.356,8.031C23.201,7.941 23.025,7.894 22.845,7.895L11.153,7.895C10.974,7.894 10.798,7.941 10.643,8.031C10.488,8.12 10.359,8.249 10.27,8.404C10.18,8.559 10.133,8.735 10.133,8.914C10.133,9.093 10.18,9.269 10.27,9.425L12.759,13.736C12.895,13.971 13.117,14.142 13.379,14.212C13.64,14.282 13.919,14.246 14.153,14.11C14.388,13.975 14.559,13.752 14.629,13.491C14.699,13.229 14.663,12.951 14.527,12.716L12.92,9.935L21.08,9.935L19.473,12.716C19.406,12.833 19.363,12.961 19.345,13.094C19.328,13.226 19.337,13.361 19.372,13.491C19.406,13.62 19.466,13.742 19.548,13.848C19.629,13.954 19.731,14.043 19.847,14.11C19.963,14.177 20.092,14.221 20.224,14.238C20.357,14.256 20.492,14.247 20.622,14.212C20.751,14.177 20.873,14.118 20.979,14.036C21.085,13.954 21.174,13.852 21.241,13.736L23.731,9.425C23.82,9.27 23.867,9.094 23.867,8.915C23.867,8.735 23.819,8.56 23.729,8.405Z" style="fill:white;fill-rule:nonzero;"/>
    </g>
</svg>
