<svg xmlns="http://www.w3.org/2000/svg" style="fill-rule:evenodd" viewBox="0 0 17.58 8.74"><path d="M13.21 8.74c-.19 0-.38-.07-.53-.22a.754.754 0 0 1 0-1.06l2.34-2.34h-4.63c-.41 0-.75-.34-.75-.75s.34-.75.75-.75h4.63l-2.34-2.34c-.29-.29-.29-.77 0-1.06s.77-.29 1.06 0l3.62 3.62a.75.75 0 0 1 0 1.06l-3.62 3.62c-.15.15-.34.22-.53.22Zm-8.84 0c-.19 0-.38-.07-.53-.22L.22 4.9a.75.75 0 0 1 0-1.06L3.84.22c.29-.29.77-.29 1.06 0s.29.77 0 1.06L2.56 3.62h4.63c.41 0 .75.34.75.75s-.34.75-.75.75H2.56L4.9 7.46c.29.29.29.77 0 1.06-.15.15-.34.22-.53.22Z"/></svg>