<svg xmlns="http://www.w3.org/2000/svg" viewBox="0 0 753.24 764.04"><path d="M337.84 710.04c-14.8 0-28.07-8.81-33.83-22.44l-77.78-184.11c-3.77-8.92-10.76-15.91-19.67-19.68L22.43 406.02C8.81 400.27 0 386.99 0 372.2s8.81-28.07 22.43-33.83l184.12-77.78c8.92-3.77 15.91-10.76 19.67-19.68l77.79-184.12a36.657 36.657 0 0 1 33.82-22.43c14.79 0 28.07 8.8 33.83 22.43l77.78 184.12c3.77 8.92 10.76 15.91 19.68 19.68l184.12 77.78c13.63 5.76 22.43 19.03 22.43 33.83s-8.8 28.07-22.43 33.82L469.12 483.8c-8.92 3.77-15.91 10.76-19.68 19.67L371.66 687.6a36.647 36.647 0 0 1-33.82 22.43ZM108.88 372.2l122.89 51.92c24.55 10.37 43.78 29.6 54.15 54.15l51.92 122.89 51.91-122.89c10.37-24.55 29.6-43.78 54.15-54.15l122.89-51.91L443.9 320.3c-24.56-10.38-43.79-29.61-54.15-54.16l-51.91-122.89-51.92 122.89c-10.37 24.54-29.6 43.78-54.15 54.15l-122.9 51.92ZM363.71 82.01l-.11.27.12-.27ZM648.04 2.64c1.49-3.52 6.47-3.52 7.96 0l27.41 64.89a4.315 4.315 0 0 0 2.3 2.3l64.89 27.41c3.52 1.49 3.52 6.47 0 7.96l-64.89 27.41a4.315 4.315 0 0 0-2.3 2.3L656 199.8c-1.49 3.52-6.47 3.52-7.96 0l-27.41-64.89a4.315 4.315 0 0 0-2.3-2.3l-64.89-27.41c-3.52-1.49-3.52-6.47 0-7.96l64.89-27.41a4.315 4.315 0 0 0 2.3-2.3l27.41-64.89Zm0 561.6c1.49-3.52 6.47-3.52 7.96 0l27.41 64.89a4.315 4.315 0 0 0 2.3 2.3l64.89 27.41c3.52 1.49 3.52 6.47 0 7.96l-64.89 27.41a4.315 4.315 0 0 0-2.3 2.3L656 761.4c-1.49 3.52-6.47 3.52-7.96 0l-27.41-64.89a4.315 4.315 0 0 0-2.3-2.3l-64.89-27.41c-3.52-1.49-3.52-6.47 0-7.96l64.89-27.41a4.315 4.315 0 0 0 2.3-2.3l27.41-64.89Z"/></svg>