<svg xmlns="http://www.w3.org/2000/svg" style="fill-rule:evenodd" viewBox="0 0 10.63 14.79"><path d="M8.91 14.79H1.72c-.5 0-.98-.21-1.3-.58-.31-.35-.46-.8-.4-1.26.29-2.53 1.44-3.58 2.29-4.34.56-.51.83-.77.83-1.22s-.27-.7-.83-1.19C1.45 5.44.28 4.4 0 1.83-.05 1.37.1.91.41.57.74.21 1.21 0 1.7 0h7.19c.5 0 .97.21 1.3.57.31.35.46.81.41 1.26-.27 2.58-1.44 3.62-2.3 4.39-.55.49-.82.75-.82 1.17s.27.69.82 1.2c.85.77 2.01 1.82 2.29 4.36.05.45-.1.91-.41 1.26-.33.37-.8.58-1.3.58ZM1.72 1.25c-.14 0-.28.06-.37.16-.05.06-.11.16-.1.29.22 2.09 1.1 2.87 1.88 3.57.61.54 1.24 1.11 1.24 2.13s-.63 1.59-1.24 2.14c-.77.7-1.65 1.49-1.88 3.56-.02.13.04.23.1.29.09.1.23.16.37.16h7.19c.14 0 .28-.06.37-.16.05-.06.11-.16.1-.29-.24-2.07-1.12-2.87-1.89-3.58-.6-.55-1.23-1.12-1.23-2.12s.63-1.56 1.23-2.11c.78-.7 1.67-1.49 1.89-3.59a.352.352 0 0 0-.1-.29.49.49 0 0 0-.37-.16H1.72Z"/><path d="M8.15 13.13H2.48c-.51 0-.65-.59-.29-.95.86-.87 2.6-1.5 2.6-2.5V6.36c0-.65-1.24-1.14-2-2.19-.13-.17-.11-.42.21-.42h4.64c.27 0 .33.24.21.42-.75 1.05-2.02 1.54-2.02 2.19v3.32c0 .99 1.81 1.53 2.62 2.5.32.39.21.95-.3.95Z"/></svg>