<svg xmlns="http://www.w3.org/2000/svg" width="149" height="21" fill="none" viewBox="0 0 149 21"><path fill="#14142B" d="M17.94 11.479c0 .67-.167 1.302-.499 1.894-.332.593-.83 1.11-1.494 1.553-.664.442-1.494.794-2.49 1.054-.99.254-2.148.381-3.477.381-1.328 0-2.493-.127-3.496-.38-.996-.26-1.826-.613-2.49-1.055-.664-.443-1.162-.96-1.494-1.553a3.814 3.814 0 0 1-.498-1.894V2.582h3.613v7.598c0 .449.056.875.166 1.279.117.397.332.745.645 1.045.319.3.761.537 1.328.713.573.176 1.315.263 2.226.263.905 0 1.641-.087 2.207-.263.567-.176 1.006-.414 1.319-.713.319-.3.534-.648.644-1.045.111-.404.166-.83.166-1.28V2.583h3.623v8.896zM29.663 16H26.04V2.582h9.082c.977 0 1.803.1 2.48.303.684.202 1.237.488 1.66.86.43.37.74.82.928 1.347.196.52.293 1.103.293 1.748 0 .566-.081 1.061-.244 1.484-.156.423-.37.788-.644 1.094-.267.3-.58.553-.938.762-.358.208-.736.38-1.133.517L41.92 16h-4.238l-4.063-4.941h-3.955V16zm7.158-9.18c0-.26-.036-.481-.107-.664a.861.861 0 0 0-.352-.44c-.169-.116-.397-.201-.683-.253a5.932 5.932 0 0 0-1.055-.078h-4.96v2.87h4.96c.423 0 .775-.025 1.055-.077.286-.052.514-.134.683-.244a.91.91 0 0 0 .352-.45 1.83 1.83 0 0 0 .107-.664zM48.518 16V2.582h3.623v10.479h9.794V16H48.518zm32.691-9.639a12.61 12.61 0 0 0-1.006-.42 14.332 14.332 0 0 0-1.416-.439c-.527-.143-1.1-.26-1.719-.352a12.266 12.266 0 0 0-1.904-.146c-.52 0-.967.016-1.338.049a8.366 8.366 0 0 0-.928.127 2.736 2.736 0 0 0-.595.185 1.27 1.27 0 0 0-.332.205.585.585 0 0 0-.157.215.731.731 0 0 0-.029.195c0 .196.098.368.293.518.195.143.462.273.8.39.34.111.733.219 1.183.323l1.425.312c.508.105 1.029.222 1.563.352.54.124 1.061.27 1.562.44.508.169.987.367 1.436.595.45.222.843.482 1.181.781.34.3.606.645.801 1.036.196.39.293.836.293 1.338 0 .644-.114 1.197-.341 1.66a3.527 3.527 0 0 1-.918 1.171 4.61 4.61 0 0 1-1.319.772 9.464 9.464 0 0 1-1.582.44c-.547.104-1.103.172-1.67.204-.56.033-1.094.05-1.601.05a19.21 19.21 0 0 1-3.692-.333c-1.126-.214-2.122-.485-2.988-.81v-3.203c.892.494 1.907.882 3.047 1.162 1.146.28 2.37.42 3.672.42.768 0 1.393-.04 1.875-.118.488-.084.869-.188 1.142-.312.274-.13.46-.27.557-.42a.788.788 0 0 0 .146-.43c0-.214-.097-.4-.293-.556-.195-.163-.462-.303-.8-.42a8.992 8.992 0 0 0-1.182-.332c-.45-.104-.928-.205-1.436-.303-.5-.104-1.018-.215-1.552-.332a19.645 19.645 0 0 1-1.563-.41 12.732 12.732 0 0 1-1.426-.557 5.447 5.447 0 0 1-1.181-.752 3.36 3.36 0 0 1-.801-1.006c-.195-.384-.293-.826-.293-1.328 0-.592.104-1.103.313-1.533.208-.43.488-.794.84-1.094a4.497 4.497 0 0 1 1.23-.742 8.45 8.45 0 0 1 1.475-.44 12.725 12.725 0 0 1 1.562-.214c.527-.04 1.029-.059 1.504-.059.52 0 1.055.026 1.601.078.554.052 1.097.127 1.631.225a20.97 20.97 0 0 1 1.543.322c.502.124.964.254 1.387.39v3.106zM89.759 16V2.582h3.624v10.479h9.795V16H89.76zm31.11-2.54h-7.48l-1.26 2.54h-4.043l7.021-13.418h4.043L126.172 16h-4.043l-1.26-2.54zm-6.181-2.616h4.902l-2.442-4.942-2.46 4.942zm32.984 1.455c0 .52-.068.973-.205 1.357a3.022 3.022 0 0 1-.576.996 2.925 2.925 0 0 1-.879.674c-.339.17-.716.306-1.133.41a8.83 8.83 0 0 1-1.318.205c-.469.04-.954.059-1.456.059h-9.736V2.582h9.561c.384 0 .768.016 1.152.049.391.032.762.094 1.113.185.352.085.677.205.977.362.306.156.57.361.791.615.228.254.404.56.527.918.13.358.196.781.196 1.27 0 .872-.215 1.565-.645 2.08-.43.507-1.107.846-2.031 1.015.651.046 1.207.147 1.67.303.468.15.849.358 1.142.625.293.26.508.583.645.967.137.377.205.82.205 1.328zm-4.522-5.742c0-.17-.026-.33-.078-.479a.915.915 0 0 0-.283-.41 1.53 1.53 0 0 0-.557-.283c-.234-.072-.533-.108-.898-.108h-5.342v2.52h5.342c.365 0 .664-.033.898-.098.235-.065.42-.153.557-.263a.863.863 0 0 0 .283-.391c.052-.156.078-.32.078-.488zm.84 5.322c0-.306-.052-.55-.156-.732a.99.99 0 0 0-.488-.43c-.222-.104-.508-.173-.86-.205-.351-.033-.771-.05-1.259-.05h-5.235v2.843h5.235c.488 0 .908-.017 1.259-.05.352-.032.638-.1.86-.204.221-.104.384-.248.488-.43.104-.189.156-.436.156-.742z"/></svg>