<svg xmlns="http://www.w3.org/2000/svg" xml:space="preserve" style="fill-rule:evenodd;clip-rule:evenodd;stroke-linejoin:round;stroke-miterlimit:2" viewBox="0 0 24 24"><path d="M12 .5C5.652.5.5 5.652.5 12S5.652 23.5 12 23.5 23.5 18.348 23.5 12 18.348.5 12 .5ZM12 2c5.52 0 10 4.48 10 10s-4.48 10-10 10S2 17.52 2 12 6.48 2 12 2Z" style="fill:#2570ed"/><path d="M13 16.23a.77.77 0 0 1-.77.77h-.46a.77.77 0 0 1-.77-.77v-.767a.77.77 0 0 1 .77-.771h.46a.77.77 0 0 1 .77.771v.767Zm0-3.846a.77.77 0 0 1-.77.77h-.46a.77.77 0 0 1-.77-.77V7.77a.77.77 0 0 1 .77-.77h.46a.77.77 0 0 1 .77.77v4.614Z" style="fill:#2570ed;fill-rule:nonzero"/></svg>