<?xml version="1.0" standalone="no"?>
<!DOCTYPE svg PUBLIC "-//W3C//DTD SVG 20010904//EN"
 "http://www.w3.org/TR/2001/REC-SVG-20010904/DTD/svg10.dtd">
<svg version="1.0" xmlns="http://www.w3.org/2000/svg"
 width="461.027954pt" height="511.581165pt" viewBox="0 0 461.027954 511.581165"
 preserveAspectRatio="xMidYMid meet">
<g transform="translate(-25.500000,511.714172) rotate(-360.00) scale(0.095238,-0.095238)">
<path d="M635 5362 c-174 -46 -298 -190 -349 -405 -17 -75 -18 -204 -18 -2269
0 -2065 1 -2194 18 -2269 67 -283 258 -437 516 -416 77 7 208 45 277 80 90 46
3678 2107 3743 2150 38 25 101 80 139 121 197 213 197 455 0 668 -38 41 -101
96 -139 121 -65 43 -3653 2104 -3743 2150 -131 67 -331 98 -444 69z"/>
</g>
</svg>
