<?xml version="1.0" encoding="UTF-8" standalone="no"?>
<!DOCTYPE svg PUBLIC "-//W3C//DTD SVG 1.1//EN" "http://www.w3.org/Graphics/SVG/1.1/DTD/svg11.dtd">
<svg width="100%" height="100%" viewBox="0 0 20 21" version="1.1" xmlns="http://www.w3.org/2000/svg" xmlns:xlink="http://www.w3.org/1999/xlink" xml:space="preserve" xmlns:serif="http://www.serif.com/" style="fill-rule:evenodd;clip-rule:evenodd;stroke-linejoin:round;stroke-miterlimit:2;">
    <path d="M15.083,12.166L15.083,14.944C15.083,15.114 15.016,15.276 14.896,15.396C14.776,15.516 14.614,15.583 14.444,15.583C14.444,15.583 4.722,15.583 4.722,15.583C4.553,15.583 4.39,15.516 4.27,15.396C4.151,15.276 4.083,15.114 4.083,14.944C4.083,14.944 4.083,12.166 4.083,12.166C4.083,11.753 3.747,11.416 3.333,11.416C2.919,11.417 2.583,11.753 2.583,12.167L2.583,14.944C2.583,15.511 2.809,16.056 3.21,16.457C3.21,16.457 3.21,16.457 3.21,16.457C3.611,16.858 4.155,17.083 4.722,17.083L14.444,17.083C15.012,17.083 15.556,16.858 15.957,16.457C15.957,16.457 15.957,16.457 15.957,16.457C16.358,16.055 16.583,15.511 16.583,14.944L16.583,12.167C16.583,11.753 16.247,11.417 15.833,11.416C15.419,11.416 15.083,11.753 15.083,12.166Z"/>
    <path d="M13.586,6.775L10.114,3.303C9.973,3.162 9.782,3.083 9.583,3.083C9.384,3.083 9.194,3.162 9.053,3.303L5.581,6.775C5.288,7.068 5.288,7.543 5.581,7.836C5.873,8.128 6.349,8.128 6.641,7.836L9.583,4.894C9.583,4.894 12.525,7.836 12.525,7.836C12.818,8.128 13.293,8.128 13.586,7.836C13.879,7.543 13.879,7.068 13.586,6.775Z"/>
    <path d="M8.833,3.833L8.833,12.167C8.833,12.581 9.169,12.917 9.583,12.917C9.997,12.917 10.333,12.581 10.333,12.167L10.333,3.833C10.333,3.419 9.997,3.083 9.583,3.083C9.169,3.083 8.833,3.419 8.833,3.833Z"/>
</svg>
