<svg xmlns="http://www.w3.org/2000/svg" xml:space="preserve" style="fill-rule:evenodd;clip-rule:evenodd;stroke-linejoin:round;stroke-miterlimit:2" viewBox="0 0 24 24"><path d="M-.391-.308h17.705v17.329H-.391z" style="fill:none" transform="matrix(1.35554 0 0 1.38496 .53 .427)"/><path d="M6.194 4.168H3.222A3.232 3.232 0 0 0 0 7.39v3.672c0 .336.133.658.37.895h.002c.237.237.559.371.893.371h1.403c.909 0 1.644.804 1.657 1.713.014.924-.694 1.8-1.615 1.8H1.265A1.262 1.262 0 0 0 0 17.107v3.672c.003.853.342 1.672.946 2.276A3.236 3.236 0 0 0 3.222 24h3.671a1.262 1.262 0 0 0 1.265-1.265v-1.092c0-.957.776-1.79 1.733-1.811.912-.022 1.782.55 1.782 1.458v1.445A1.266 1.266 0 0 0 12.938 24h3.707a3.185 3.185 0 0 0 3.187-3.187v-3.007h.425c2.083 0 3.743-1.698 3.743-3.787 0-2.096-1.733-3.696-3.784-3.696h-.384V7.355a3.185 3.185 0 0 0-3.187-3.187h-2.968v-.384C13.677 1.74 12.047.036 10 0a3.756 3.756 0 0 0-2.688 1.073 3.74 3.74 0 0 0-1.12 2.668v.427Zm7.802 17.51v-.388c0-2.215-1.934-3.832-4.16-3.78-2.195.05-4 1.936-4 4.133v.034H3.228a.91.91 0 0 1-.905-.905v-2.608h.387c2.181 0 3.968-1.968 3.937-4.156-.03-2.152-1.827-4.002-3.98-4.002h-.344V7.398a.914.914 0 0 1 .266-.64.91.91 0 0 1 .64-.267H7.25a1.266 1.266 0 0 0 1.265-1.265V3.742a1.43 1.43 0 0 1 .893-1.32v.001c.175-.07.363-.104.552-.1.783.014 1.393.678 1.393 1.461v1.442a1.266 1.266 0 0 0 1.267 1.265h4.024c.23 0 .45.091.61.254.163.16.254.38.254.61v4.024a1.264 1.264 0 0 0 1.265 1.267h1.442c.777 0 1.461.579 1.461 1.373 0 .8-.62 1.465-1.418 1.465h-1.485a1.267 1.267 0 0 0-1.265 1.265v4.064a.865.865 0 0 1-.864.864h-2.65Z"/></svg>