<svg xmlns="http://www.w3.org/2000/svg" xml:space="preserve" style="fill-rule:evenodd;clip-rule:evenodd;stroke-linejoin:round;stroke-miterlimit:2" viewBox="0 0 48 48"><path d="M22.166.014c-.152.027-.68.09-1.172.143-2.04.233-4.5.904-6.576 1.79-5.51 2.37-10.11 6.969-12.48 12.48C1.07 16.45.442 18.74.12 21.003c-.16 1.172-.16 4.84 0 6.012C.89 32.482 3.216 37.224 7 41.008a23.76 23.76 0 0 0 9.699 5.914c2.514.797 4.437 1.092 7.3 1.092 2.863 0 4.787-.295 7.301-1.092 5.26-1.682 9.591-4.956 12.705-9.582 2.057-3.06 3.328-6.468 3.874-10.325.16-1.172.16-4.84 0-6.012-.77-5.466-3.096-10.208-6.88-13.993C37.296 3.306 32.643.98 27.338.184c-.895-.134-4.563-.25-5.172-.17Zm4.84 3.936c4.349.671 8.196 2.613 11.318 5.735 3.15 3.15 5.055 6.943 5.744 11.408.117.76.17 1.628.17 2.916 0 1.289-.053 2.156-.17 2.908-.689 4.473-2.594 8.267-5.744 11.416-3.149 3.15-6.942 5.055-11.407 5.744-1.485.233-4.348.233-5.824 0-4.474-.689-8.267-2.594-11.417-5.744-3.149-3.149-5.054-6.943-5.743-11.416-.233-1.476-.233-4.34 0-5.824.689-4.465 2.594-8.258 5.743-11.408 3.48-3.48 7.552-5.359 12.777-5.914.751-.071 3.596.036 4.554.18Z"/><path d="M32.554 15.984c-.215.09-2.416 2.228-6.084 5.887l-5.753 5.753-2.425-2.416c-2.514-2.505-2.88-2.791-3.596-2.791-.501-.01-1.244.402-1.54.85-.303.456-.402 1.136-.24 1.646.089.286.796 1.056 3.372 3.641 2.148 2.157 3.382 3.329 3.624 3.445a1.904 1.904 0 0 0 1.592 0c.26-.125 2.541-2.353 6.925-6.746 7.077-7.086 6.818-6.79 6.728-7.74-.116-1.225-1.476-2.012-2.603-1.53Z"/></svg>