<svg xmlns="http://www.w3.org/2000/svg" xml:space="preserve" style="fill-rule:evenodd;clip-rule:evenodd;stroke-linejoin:round;stroke-miterlimit:2" viewBox="0 0 20 21"><path d="M15.083 12.166v2.778a.638.638 0 0 1-.639.639H4.722a.64.64 0 0 1-.639-.639v-2.778a.75.75 0 0 0-1.5.001v2.777a2.138 2.138 0 0 0 2.139 2.139h9.722a2.139 2.139 0 0 0 2.139-2.139v-2.777a.75.75 0 0 0-1.5-.001Zm-1.497-5.391-3.472-3.472a.75.75 0 0 0-1.061 0L5.581 6.775a.75.75 0 0 0 1.06 1.061l2.942-2.942 2.942 2.942a.75.75 0 1 0 1.061-1.061Z"/><path d="M8.833 3.833v8.334a.75.75 0 0 0 1.5 0V3.833a.75.75 0 0 0-1.5 0Z"/></svg>