<svg xmlns="http://www.w3.org/2000/svg" xml:space="preserve" style="fill-rule:evenodd;clip-rule:evenodd;stroke-linejoin:round;stroke-miterlimit:2" viewBox="0 0 17 19"><path d="M4.167 3.333H.75a.75.75 0 0 0 0 1.5h.917V15.75a2.415 2.415 0 0 0 2.417 2.416h8.333a2.413 2.413 0 0 0 2.417-2.416V4.833h.916a.75.75 0 0 0 0-1.5h-3.416v-.917A2.42 2.42 0 0 0 9.917 0H6.584a2.417 2.417 0 0 0-2.417 2.416v.917Zm9.167 1.5H3.167V15.75a.92.92 0 0 0 .268.648h.001a.914.914 0 0 0 .648.268h8.333a.917.917 0 0 0 .917-.916V4.833ZM5.833 8.25v5a.75.75 0 0 0 1.5 0v-5a.75.75 0 0 0-1.5 0Zm3.334 0v5a.75.75 0 0 0 1.5 0v-5a.75.75 0 0 0-1.5 0Zm1.667-4.917v-.917a.917.917 0 0 0-.917-.916H6.584a.918.918 0 0 0-.917.916v.917h5.167Z"/></svg>