<svg xmlns="http://www.w3.org/2000/svg" xml:space="preserve" style="fill-rule:evenodd;clip-rule:evenodd;stroke-linejoin:round;stroke-miterlimit:2" viewBox="0 0 20 20"><path d="M20 10c0-5.521-4.479-10-10-10S0 4.479 0 10s4.479 10 10 10 10-4.479 10-10Zm-1.714 0A8.287 8.287 0 0 1 10 18.286 8.287 8.287 0 0 1 1.714 10 8.287 8.287 0 0 1 10 1.714 8.287 8.287 0 0 1 18.286 10Z"/><path d="M5.734 6.877v6.246c0 .631.51 1.143 1.143 1.143h6.246c.631 0 1.143-.512 1.143-1.143V6.877c0-.632-.512-1.143-1.143-1.143H6.877c-.632 0-1.143.51-1.143 1.143Z"/></svg>