<svg xmlns="http://www.w3.org/2000/svg" xml:space="preserve" style="fill-rule:evenodd;clip-rule:evenodd;stroke-linejoin:round;stroke-miterlimit:2" viewBox="0 0 24 24"><path d="M21.404 12.513a8.752 8.752 0 0 0-8.75-8.75 8.753 8.753 0 0 0-8.75 8.75c0 4.83 3.92 8.75 8.75 8.75 4.831 0 8.75-3.92 8.75-8.75Zm-1.5 0a7.252 7.252 0 0 1-7.25 7.25 7.253 7.253 0 0 1-7.25-7.25 7.252 7.252 0 0 1 7.25-7.25 7.251 7.251 0 0 1 7.25 7.25Z" style="fill-rule:nonzero" transform="translate(-5.354 -5.16) scale(1.37142)"/><path d="M7.812 11.851v.669a4.761 4.761 0 0 0 5.886 4.608.75.75 0 1 0-.354-1.458 3.263 3.263 0 0 1-4.032-3.154v-.665a.75.75 0 0 0-1.5 0Zm9.5 1.321v-.669a4.754 4.754 0 0 0-5.879-4.606.75.75 0 1 0 .353 1.457 3.265 3.265 0 0 1 3.448 1.312c.374.542.576 1.183.578 1.841v.665a.75.75 0 0 0 1.5 0Z" style="fill-rule:nonzero" transform="translate(-5.354 -5.16) scale(1.37142)"/><path d="m16.846 12.074-.365.507-.392-.519a.75.75 0 1 0-1.198.902l1.004 1.333a.748.748 0 0 0 1.208-.013l.96-1.333a.751.751 0 0 0-1.217-.877Zm-9.778 0a.751.751 0 0 0 .609 1.189h1.964a.75.75 0 0 0 .599-1.201l-1.004-1.334a.752.752 0 0 0-1.208.013l-.96 1.333Z" style="fill-rule:nonzero" transform="translate(-5.354 -5.16) scale(1.37142)"/></svg>