<svg xmlns="http://www.w3.org/2000/svg" xml:space="preserve" style="fill-rule:evenodd;clip-rule:evenodd;stroke-linejoin:round;stroke-miterlimit:2" viewBox="0 0 24 24"><path d="M0 .914h23.825v21.603H0z" style="fill:none" transform="matrix(1.00734 0 0 1.11098 0 -1.015)"/><path d="M2.594 5.355h7.443" style="fill:none;fill-rule:nonzero" transform="translate(0 .25)"/><path d="M2.594 6.355h7.443a.75.75 0 0 0 0-1.5H2.594a.75.75 0 0 0 0 1.5Z"/><path d="M2.594 9.618h7.443" style="fill:none;fill-rule:nonzero" transform="translate(0 .25)"/><path d="M2.594 10.618h7.443a.75.75 0 0 0 0-1.5H2.594a.75.75 0 0 0 0 1.5Z"/><path d="M2.594 13.882h7.443" style="fill:none;fill-rule:nonzero" transform="translate(0 .25)"/><path d="M2.594 14.882h7.443a.75.75 0 0 0 0-1.5H2.594a.75.75 0 0 0 0 1.5Z"/><path d="M2.594 18.145h7.443" style="fill:none;fill-rule:nonzero" transform="translate(0 .25)"/><path d="M2.594 19.145h7.443a.75.75 0 0 0 0-1.5H2.594a.75.75 0 0 0 0 1.5Z"/><path d="M13.963 5.355h7.443" style="fill:none;fill-rule:nonzero" transform="translate(0 .25)"/><path d="M13.963 6.355h7.443a.75.75 0 0 0 0-1.5h-7.443a.75.75 0 0 0 0 1.5Z"/><path d="M13.963 9.618h7.443" style="fill:none;fill-rule:nonzero" transform="translate(0 .25)"/><path d="M13.963 10.618h7.443a.75.75 0 0 0 0-1.5h-7.443a.75.75 0 0 0 0 1.5Z"/><path d="M13.963 13.882h7.443" style="fill:none;fill-rule:nonzero" transform="translate(0 .25)"/><path d="M13.963 14.882h7.443a.75.75 0 0 0 0-1.5h-7.443a.75.75 0 0 0 0 1.5Z"/><path d="M13.963 18.145h7.443" style="fill:none;fill-rule:nonzero" transform="translate(0 .25)"/><path d="M13.963 19.145h7.443a.75.75 0 0 0 0-1.5h-7.443a.75.75 0 0 0 0 1.5Z"/></svg>