<?xml version="1.0" encoding="UTF-8" standalone="no"?>
<!DOCTYPE svg PUBLIC "-//W3C//DTD SVG 1.1//EN" "http://www.w3.org/Graphics/SVG/1.1/DTD/svg11.dtd">
<svg width="100%" height="100%" viewBox="0 0 17 19" version="1.1" xmlns="http://www.w3.org/2000/svg" xmlns:xlink="http://www.w3.org/1999/xlink" xml:space="preserve" xmlns:serif="http://www.serif.com/" style="fill-rule:evenodd;clip-rule:evenodd;stroke-linejoin:round;stroke-miterlimit:2;">
    <g transform="matrix(1,0,0,1,-1.75,-0.91663)">
        <path d="M5.917,4.25L4.174,4.25L2.5,4.25C2.086,4.25 1.75,4.586 1.75,5C1.75,5.414 2.086,5.75 2.5,5.75L3.417,5.75L3.417,16.667C3.417,17.308 3.672,17.922 4.125,18.375C4.578,18.829 5.193,19.083 5.834,19.083C5.834,19.083 14.167,19.083 14.167,19.083C14.808,19.083 15.423,18.829 15.876,18.375C16.329,17.922 16.584,17.308 16.584,16.667L16.584,5.75L17.5,5.75C17.914,5.75 18.25,5.414 18.25,5C18.25,4.586 17.914,4.25 17.5,4.25L15.841,4.25L14.084,4.25L14.084,3.333C14.084,2.692 13.829,2.078 13.376,1.624C12.923,1.171 12.308,0.917 11.667,0.917L8.334,0.917C7.693,0.917 7.078,1.171 6.625,1.624C6.172,2.078 5.917,2.692 5.917,3.333L5.917,4.25ZM15.084,5.75L4.917,5.75L4.917,16.667C4.917,16.91 5.014,17.143 5.185,17.315C5.185,17.315 5.185,17.315 5.186,17.315C5.357,17.487 5.591,17.583 5.834,17.583L14.167,17.583C14.41,17.583 14.643,17.487 14.815,17.315C14.815,17.315 14.815,17.315 14.815,17.315C14.987,17.143 15.084,16.91 15.084,16.667L15.084,5.75ZM7.583,9.167L7.583,14.167C7.583,14.581 7.919,14.917 8.333,14.917C8.747,14.917 9.083,14.581 9.083,14.167L9.083,9.167C9.083,8.753 8.747,8.417 8.333,8.417C7.919,8.417 7.583,8.753 7.583,9.167ZM10.917,9.167L10.917,14.167C10.917,14.581 11.253,14.917 11.667,14.917C12.081,14.917 12.417,14.581 12.417,14.167L12.417,9.167C12.417,8.753 12.081,8.417 11.667,8.417C11.253,8.417 10.917,8.753 10.917,9.167ZM12.584,4.25L12.584,3.333C12.584,3.09 12.487,2.857 12.315,2.685C12.143,2.513 11.91,2.417 11.667,2.417C11.667,2.417 8.334,2.417 8.334,2.417C8.091,2.417 7.857,2.513 7.685,2.685C7.514,2.857 7.417,3.09 7.417,3.333L7.417,4.25L12.584,4.25Z"/>
    </g>
</svg>
