<svg xmlns="http://www.w3.org/2000/svg" width="461.027954pt" height="511.581165pt" version="1.0" viewBox="0 0 461.027954 511.581165"><path d="M34.976 1.048C18.405 5.429 6.596 19.143 1.738 39.619.12 46.762.024 59.048.024 255.714c0 196.667.095 208.953 1.714 216.095 6.381 26.953 24.571 41.62 49.143 39.62 7.333-.667 19.81-4.286 26.38-7.62 8.572-4.38 350.286-200.666 356.477-204.761 3.619-2.381 9.619-7.62 13.238-11.524 18.762-20.286 18.762-43.333 0-63.62-3.62-3.904-9.62-9.142-13.238-11.523-6.19-4.095-347.905-200.38-356.476-204.762-12.476-6.38-31.524-9.333-42.286-6.571z"/></svg>