<svg xmlns="http://www.w3.org/2000/svg" xml:space="preserve" style="fill-rule:evenodd;clip-rule:evenodd;stroke-linejoin:round;stroke-miterlimit:2" viewBox="0 0 24 24"><g transform="matrix(1.0486 0 0 1.36585 .974 .348)"><path d="M-.929-.255h22.888v17.571H-.929z" style="fill:none"/><clipPath id="a"><path d="M-.929-.255h22.888v17.571H-.929z"/></clipPath><g clip-path="url(#a)"><path d="M6.362 4.748.55 5.435C-.85 5.6-1.421 6.912-.43 7.69l4.257 3.347-1 4.704c-.233 1.102 1.29 1.926 2.561 1.385l5.127-2.176 5.127 2.176c1.272.54 2.795-.283 2.56-1.385l-.998-4.703L21.46 7.69c.99-.778.42-2.09-.98-2.255l-5.813-.687L12.092.534C11.465-.49 9.565-.49 8.938.535L6.362 4.747Zm4.153-3.016 2.34 3.827c.247.403.74.687 1.312.754l5.326.628-3.907 3.073c-.386.304-.561.73-.473 1.149l.912 4.293-4.667-1.982a2.212 2.212 0 0 0-1.686 0l-4.667 1.982.913-4.293c.088-.419-.087-.845-.474-1.15L1.538 6.942l5.326-.628c.572-.067 1.064-.35 1.31-.753l2.341-3.828Z"/></g></g></svg>