<svg xmlns="http://www.w3.org/2000/svg" xml:space="preserve" style="fill-rule:evenodd;clip-rule:evenodd;stroke-linejoin:round;stroke-miterlimit:2" viewBox="0 0 24 24"><g transform="matrix(.64027 0 0 .58474 -248.54 -164.228)"><path d="M388.181 280.859h37.484v41.044h-37.484z" style="fill:none"/><clipPath id="a"><path d="M388.181 280.859h37.484v41.044h-37.484z"/></clipPath><g clip-path="url(#a)"><path d="M404.477 283.537v35.69c0 1.478 1.096 2.677 2.445 2.677 1.35 0 2.445-1.199 2.445-2.677v-35.69c0-1.477-1.096-2.677-2.445-2.677-1.35 0-2.445 1.2-2.445 2.677Z"/><path d="M390.625 304.063h32.594c1.35 0 2.445-1.2 2.445-2.677.003-1.478-1.095-2.677-2.441-2.677h-32.598c-1.35 0-2.445 1.2-2.445 2.677s1.095 2.677 2.445 2.677Z"/></g></g></svg>