<?xml version="1.0" encoding="UTF-8" standalone="no"?>
<!DOCTYPE svg PUBLIC "-//W3C//DTD SVG 1.1//EN" "http://www.w3.org/Graphics/SVG/1.1/DTD/svg11.dtd">
<svg width="100%" height="100%" viewBox="0 0 18 18" version="1.1" xmlns="http://www.w3.org/2000/svg" xmlns:xlink="http://www.w3.org/1999/xlink" xml:space="preserve" xmlns:serif="http://www.serif.com/" style="fill-rule:evenodd;clip-rule:evenodd;stroke-linejoin:round;stroke-miterlimit:2;">
    <g transform="matrix(1,0,0,1,-3.9043,-3.7627)">
        <path d="M21.404,12.513C21.404,7.682 17.485,3.763 12.654,3.763C7.824,3.763 3.904,7.682 3.904,12.513C3.904,17.343 7.824,21.263 12.654,21.263C17.485,21.263 21.404,17.343 21.404,12.513ZM19.904,12.513C19.904,16.515 16.657,19.763 12.654,19.763C8.652,19.763 5.404,16.515 5.404,12.513C5.404,8.51 8.652,5.263 12.654,5.263C16.657,5.263 19.904,8.51 19.904,12.513Z" style="fill:rgb(5,5,5);"/>
    </g>
    <g transform="matrix(1,0,0,1,-3.9043,-3.7627)">
        <path d="M7.812,11.851L7.812,12.52C7.815,13.483 8.111,14.421 8.658,15.213C9.206,16.004 9.981,16.61 10.881,16.952C11.781,17.294 12.763,17.355 13.698,17.128C14.101,17.03 14.348,16.624 14.25,16.222C14.152,15.82 13.746,15.572 13.344,15.67C12.703,15.826 12.03,15.784 11.414,15.55C11.414,15.55 11.414,15.55 11.414,15.55C10.798,15.316 10.267,14.9 9.892,14.359C9.517,13.817 9.314,13.174 9.312,12.516C9.312,12.516 9.312,11.851 9.312,11.851C9.312,11.437 8.976,11.101 8.562,11.101C8.148,11.101 7.812,11.437 7.812,11.851ZM17.312,13.172L17.312,12.503C17.309,11.541 17.014,10.604 16.467,9.813C16.467,9.813 16.467,9.813 16.467,9.813C15.92,9.022 15.146,8.416 14.247,8.074C13.349,7.732 12.367,7.67 11.433,7.897C11.031,7.994 10.783,8.4 10.881,8.802C10.978,9.205 11.384,9.452 11.786,9.354C12.426,9.199 13.098,9.242 13.714,9.476C14.329,9.71 14.859,10.125 15.234,10.666C15.608,11.208 15.81,11.849 15.812,12.507C15.812,12.507 15.812,13.172 15.812,13.172C15.812,13.586 16.148,13.922 16.562,13.922C16.976,13.922 17.312,13.586 17.312,13.172Z"/>
    </g>
    <g transform="matrix(1,0,0,1,-3.9043,-3.7627)">
        <path d="M16.846,12.074L16.481,12.581C16.481,12.581 16.089,12.062 16.089,12.062C15.84,11.731 15.37,11.665 15.039,11.914C14.708,12.163 14.642,12.633 14.891,12.964L15.895,14.297C16.039,14.488 16.264,14.599 16.502,14.596C16.741,14.593 16.964,14.478 17.103,14.284L18.063,12.951C18.305,12.615 18.228,12.146 17.893,11.904C17.557,11.662 17.088,11.739 16.846,12.074ZM7.068,12.074C6.903,12.303 6.881,12.604 7.009,12.855C7.137,13.105 7.395,13.263 7.677,13.263L9.641,13.263C9.925,13.263 10.185,13.102 10.312,12.847C10.439,12.593 10.411,12.289 10.24,12.062L9.236,10.728C9.092,10.538 8.867,10.427 8.629,10.429C8.39,10.432 8.167,10.548 8.028,10.741L7.068,12.074Z"/>
    </g>
</svg>
