<?xml version="1.0" encoding="UTF-8" standalone="no"?>
<!DOCTYPE svg PUBLIC "-//W3C//DTD SVG 1.1//EN" "http://www.w3.org/Graphics/SVG/1.1/DTD/svg11.dtd">
<svg width="100%" height="100%" viewBox="0 0 10 10" version="1.1" xmlns="http://www.w3.org/2000/svg" xmlns:xlink="http://www.w3.org/1999/xlink" xml:space="preserve" xmlns:serif="http://www.serif.com/" style="fill-rule:evenodd;clip-rule:evenodd;stroke-linejoin:round;stroke-miterlimit:2;">
    <g id="Artboard1" transform="matrix(0.941462,0,0,0.904724,-2.8617,-3.21412)">
        <rect x="3.04" y="3.553" width="9.814" height="10.219" style="fill:none;"/>
        <g transform="matrix(1.06218,0,0,1.10531,-0.532301,-0.732545)">
            <path d="M11.576,4.076L3.576,12.076C3.342,12.31 3.342,12.69 3.576,12.924C3.81,13.158 4.19,13.158 4.424,12.924L12.424,4.924C12.658,4.69 12.658,4.31 12.424,4.076C12.19,3.842 11.81,3.842 11.576,4.076Z"/>
        </g>
        <g transform="matrix(1.06218,0,0,1.10531,-0.532301,-0.732545)">
            <path d="M3.576,4.924L11.576,12.924C11.81,13.158 12.19,13.158 12.424,12.924C12.658,12.69 12.658,12.31 12.424,12.076L4.424,4.076C4.19,3.842 3.81,3.842 3.576,4.076C3.342,4.31 3.342,4.69 3.576,4.924Z"/>
        </g>
    </g>
</svg>
