<svg xmlns="http://www.w3.org/2000/svg" xml:space="preserve" style="fill-rule:evenodd;clip-rule:evenodd;stroke-linejoin:round;stroke-miterlimit:2" viewBox="0 0 24 24"><path d="M0 0h16v16H0z" style="fill:none" transform="scale(1.5)"/><path d="M15.417 6.888a7.505 7.505 0 0 0-2.286-4.359A7.504 7.504 0 0 0 8.635.527 7.495 7.495 0 0 0 .877 5.653a7.5 7.5 0 0 0 12.426 7.65.749.749 0 1 0-1.06-1.06 5.997 5.997 0 0 1-7.388.866h-.001a6.002 6.002 0 0 1-2.553-6.987 6.003 6.003 0 0 1 6.207-4.1 5.997 5.997 0 0 1 5.426 5.088.75.75 0 1 0 1.483-.222Z" style="fill:#bec2c9" transform="matrix(1.60798 0 0 1.6 -.804 -.8)"/></svg>