<svg xmlns="http://www.w3.org/2000/svg" xml:space="preserve" style="fill-rule:evenodd;clip-rule:evenodd;stroke-linejoin:round;stroke-miterlimit:2" viewBox="0 0 48 48"><path d="M16.841 16.163c-.634.322-.986 1.181-.79 1.952.039.196 1.005 1.24 2.85 3.086l2.783 2.792-2.782 2.793c-1.846 1.845-2.812 2.89-2.851 3.085-.118.44 0 1.142.244 1.484.39.557 1.406.82 1.991.518.127-.059 1.465-1.338 2.969-2.842l2.743-2.724 2.793 2.783c1.845 1.845 2.89 2.812 3.085 2.851.44.117 1.142 0 1.484-.244.557-.39.82-1.406.518-1.992-.059-.127-1.338-1.464-2.842-2.968l-2.733-2.744 2.733-2.743c1.504-1.504 2.783-2.842 2.842-2.969.302-.585.039-1.6-.518-1.991-.342-.244-1.045-.362-1.484-.244-.195.039-1.24 1.005-3.085 2.85l-2.793 2.783-2.743-2.724c-1.504-1.503-2.842-2.783-2.969-2.841-.322-.166-1.054-.137-1.445.049Z"/><path d="M22.166.013c-.152.027-.68.09-1.172.143-2.04.233-4.5.904-6.576 1.79-5.51 2.37-10.11 6.97-12.48 12.48C1.07 16.448.442 18.74.12 21.002c-.16 1.172-.16 4.84 0 6.013C.89 32.481 3.216 37.223 7 41.008a23.76 23.76 0 0 0 9.699 5.914c2.514.796 4.438 1.091 7.3 1.091 2.864 0 4.787-.295 7.301-1.091 5.26-1.682 9.591-4.957 12.705-9.583 2.058-3.06 3.328-6.468 3.874-10.324.16-1.172.16-4.84 0-6.013-.77-5.466-3.096-10.208-6.88-13.993C37.296 3.305 32.643.98 27.338.183c-.895-.134-4.563-.25-5.172-.17Zm4.84 3.937c4.349.67 8.196 2.612 11.318 5.735 3.15 3.149 5.055 6.942 5.744 11.407.117.76.17 1.628.17 2.917 0 1.288-.053 2.156-.17 2.907-.689 4.474-2.594 8.267-5.744 11.417-3.149 3.149-6.942 5.055-11.407 5.743-1.485.233-4.348.233-5.824 0-4.474-.688-8.267-2.594-11.416-5.743-3.15-3.15-5.055-6.943-5.744-11.417-.233-1.476-.233-4.339 0-5.824.689-4.465 2.594-8.258 5.744-11.407 3.48-3.48 7.55-5.36 12.776-5.914.751-.072 3.596.035 4.554.179Z"/></svg>