<svg xmlns="http://www.w3.org/2000/svg" xml:space="preserve" style="fill-rule:evenodd;clip-rule:evenodd;stroke-linejoin:round;stroke-miterlimit:2" viewBox="0 0 24 24"><path d="M24 12c0-6.625-5.375-12-12-12S0 5.375 0 12s5.375 12 12 12 12-5.375 12-12Zm-2.057 0c0 5.49-4.453 9.943-9.943 9.943-5.49 0-9.943-4.453-9.943-9.943 0-5.49 4.453-9.943 9.943-9.943 5.49 0 9.943 4.453 9.943 9.943Z"/><path d="M10.117 16.313a.831.831 0 0 1-.41-.11.922.922 0 0 1-.456-.804V8.602c0-.337.175-.646.456-.805a.817.817 0 0 1 .838.011l5.809 3.477a.845.845 0 0 1 .291 1.123.837.837 0 0 1-.291.306l-5.809 3.478a.838.838 0 0 1-.428.121Z" style="fill-rule:nonzero" transform="translate(-4.457 -4.457) scale(1.37143)"/><path d="M-3.662-2.515h25.729V20.36H-3.662z" style="fill:none" transform="matrix(.93278 0 0 1.04917 3.416 2.64)"/></svg>