<svg xmlns="http://www.w3.org/2000/svg" xml:space="preserve" style="fill-rule:evenodd;clip-rule:evenodd;stroke-linejoin:round;stroke-miterlimit:2" viewBox="0 0 20 21"><path d="M7.5 17.25H4.167a.918.918 0 0 1-.648-.268l-.001-.001a.918.918 0 0 1-.268-.648V4.667c0-.243.097-.477.268-.649a.922.922 0 0 1 .649-.268H7.5a.75.75 0 0 0 0-1.5H4.167A2.418 2.418 0 0 0 1.75 4.667v11.666a2.418 2.418 0 0 0 2.417 2.417H7.5a.75.75 0 0 0 0-1.5Zm6.364-2.053 4.166-4.167a.747.747 0 0 0 0-1.06l-4.166-4.167a.75.75 0 1 0-1.061 1.061l3.636 3.636-3.636 3.636a.75.75 0 1 0 1.061 1.061Z"/><path d="M17.5 9.75h-10a.75.75 0 0 0 0 1.5h10a.75.75 0 0 0 0-1.5Z"/></svg>