<svg xmlns="http://www.w3.org/2000/svg" xml:space="preserve" style="fill-rule:evenodd;clip-rule:evenodd;stroke-linejoin:round;stroke-miterlimit:2" viewBox="0 0 24 24"><g transform="translate(1.023 .32) scale(.99214)"><path d="M-1.031-.322h24.19v24.19h-24.19z" style="fill:none"/><clipPath id="a"><path d="M-1.031-.322h24.19v24.19h-24.19z"/></clipPath><g clip-path="url(#a)"><path d="m1.064 18.238-1 3.622a1.835 1.835 0 0 0-.068.376l-.003.062c-.003.205.034.408.11.599a1.56 1.56 0 0 0 .835.85H.94c.19.08.392.121.597.121h.055l.055-.005c.177-.02.35-.062.515-.129l3.609-1.303.026-.011a.62.62 0 0 1 .235-.047h.001c.078 0 .151.014.222.041.195.075.95.355 1.708.568.783.219 2.219.484 3.282.484 6.702 0 11.914-5.387 11.914-11.932v-.001c0-.817-.087-1.631-.259-2.43-1.139-5.369-6.006-9.425-11.846-9.425-6.7 0-12.105 5.315-12.085 11.85 0 2.281.67 4.512 1.925 6.416l.101.148c.022.04.05.102.07.146Zm1.258 3.233.782-2.832c.126-.459-.047-1.12-.31-1.578l-.197-.299a9.58 9.58 0 0 1-1.555-5.236v-.001C1.025 6.12 5.517 1.752 11.054 1.752c4.834 0 8.876 3.338 9.818 7.783.141.658.213 1.327.213 2 0 5.405-4.304 9.858-9.84 9.858-.882 0-2.074-.226-2.723-.408A19.057 19.057 0 0 1 7 20.479a2.663 2.663 0 0 0-.962-.18c-.357-.001-.71.07-1.04.208l-2.676.964Z"/><path d="M8.888 8.716s.068-.69.76-1.26c.447-.369.99-.453 1.47-.46.44-.005.837.046 1.074.16.366.18 1.129.584 1.129 1.514 0 1.147-.83 1.595-1.663 2.168-1.514 1.04-1.86 2.084-1.86 3.253a1.037 1.037 0 0 0 2.073 0c0-.568.227-1.04.96-1.545 1.417-.974 2.563-1.925 2.563-3.876 0-2.01-1.5-2.988-2.293-3.377-.444-.215-1.18-.38-2.01-.37-.91.012-1.917.236-2.762.933-1.484 1.223-1.513 2.768-1.513 2.768a1.038 1.038 0 0 0 2.072.092Z"/><path d="M8.834 13.892a.784.784 0 1 0 0-1.568.784.784 0 0 0 0 1.568Z" style="fill-rule:nonzero" transform="translate(-1.377 -.667) scale(1.38229)"/></g></g></svg>