<?xml version="1.0" encoding="UTF-8" standalone="no"?>
<!DOCTYPE svg PUBLIC "-//W3C//DTD SVG 1.1//EN" "http://www.w3.org/Graphics/SVG/1.1/DTD/svg11.dtd">
<svg width="100%" height="100%" viewBox="0 0 20 20" version="1.1" xmlns="http://www.w3.org/2000/svg" xmlns:xlink="http://www.w3.org/1999/xlink" xml:space="preserve" xmlns:serif="http://www.serif.com/" style="fill-rule:evenodd;clip-rule:evenodd;stroke-linejoin:round;stroke-miterlimit:2;">
    <g>
        <g>
            <path d="M6.687,3.536C6.472,3.647 6.263,3.768 6.061,3.9L4.491,3.268C4.485,3.266 4.479,3.263 4.473,3.261C4.159,3.142 3.814,3.137 3.498,3.248C3.182,3.358 2.915,3.577 2.744,3.865L1.067,6.765C0.901,7.053 0.84,7.391 0.897,7.72C0.954,8.049 1.125,8.348 1.38,8.564L2.743,9.635C2.736,9.754 2.732,9.876 2.732,9.999L2.749,10.371L1.41,11.422C1.403,11.428 1.397,11.433 1.39,11.439C1.131,11.653 0.956,11.953 0.897,12.285C0.838,12.616 0.898,12.958 1.067,13.249C1.066,13.247 2.737,16.137 2.737,16.137C2.739,16.141 2.741,16.144 2.743,16.147C2.914,16.435 3.181,16.654 3.497,16.764C3.814,16.874 4.159,16.869 4.472,16.75L6.058,16.112C6.261,16.245 6.471,16.368 6.687,16.48L6.922,18.152C6.925,18.173 6.928,18.194 6.933,18.214C6.998,18.534 7.171,18.821 7.422,19.029C7.672,19.237 7.987,19.354 8.312,19.359L11.692,19.359C12.024,19.352 12.343,19.23 12.595,19.014C12.847,18.797 13.016,18.501 13.073,18.174L13.314,16.464C13.529,16.353 13.737,16.232 13.94,16.1L15.51,16.732C15.516,16.734 15.522,16.737 15.529,16.739C15.842,16.858 16.186,16.863 16.503,16.752C16.819,16.642 17.086,16.423 17.257,16.135L18.933,13.235C19.101,12.945 19.162,12.604 19.102,12.273C19.043,11.941 18.869,11.642 18.61,11.427L17.254,10.364C17.261,10.245 17.265,10.125 17.265,10.006L17.249,9.631L18.591,8.578C18.597,8.572 18.604,8.567 18.611,8.561C18.87,8.346 19.045,8.047 19.104,7.715C19.163,7.384 19.102,7.042 18.933,6.751C18.934,6.754 17.264,3.863 17.264,3.863C17.262,3.859 17.26,3.856 17.258,3.852C17.087,3.565 16.819,3.346 16.503,3.236C16.187,3.126 15.842,3.131 15.529,3.25L13.943,3.888C13.74,3.755 13.53,3.632 13.314,3.52L13.079,1.848C13.076,1.827 13.072,1.806 13.068,1.785C13.002,1.466 12.83,1.179 12.579,0.971C12.328,0.763 12.014,0.646 11.688,0.641L8.308,0.641C7.976,0.648 7.657,0.77 7.405,0.986C7.405,0.986 7.405,0.986 7.405,0.986C7.153,1.203 6.985,1.5 6.927,1.827L6.687,3.536ZM8.832,2.64L11.171,2.641L11.361,3.997C11.399,4.263 11.503,4.515 11.662,4.731C11.821,4.947 12.031,5.12 12.273,5.235C12.512,5.351 12.746,5.488 12.968,5.643C12.969,5.644 12.969,5.644 12.97,5.645C13.192,5.798 13.447,5.895 13.715,5.925C13.983,5.955 14.254,5.919 14.505,5.818L15.786,5.302L16.952,7.321L15.861,8.177C15.648,8.345 15.481,8.564 15.374,8.813C15.373,8.813 15.373,8.813 15.373,8.814C15.266,9.063 15.223,9.335 15.248,9.605L15.266,9.997C15.264,10.223 15.247,10.448 15.216,10.672C15.166,11.025 15.308,11.379 15.589,11.599L16.951,12.668L15.784,14.686L14.503,14.17C14.502,14.17 14.501,14.169 14.499,14.169C14.249,14.069 13.978,14.033 13.71,14.064C13.442,14.095 13.186,14.192 12.965,14.346C12.744,14.498 12.507,14.637 12.26,14.756C12.259,14.756 12.259,14.757 12.258,14.757C12.019,14.873 11.812,15.047 11.655,15.262C11.499,15.478 11.397,15.729 11.361,15.993L11.169,17.36L8.83,17.359L8.639,16.002C8.601,15.737 8.498,15.485 8.339,15.269C8.339,15.269 8.339,15.269 8.339,15.269C8.179,15.053 7.969,14.88 7.727,14.764C7.489,14.649 7.255,14.512 7.033,14.357C7.032,14.357 7.032,14.356 7.031,14.356C6.81,14.202 6.553,14.105 6.285,14.075C6.017,14.045 5.746,14.081 5.496,14.182L4.215,14.698L3.048,12.679L4.142,11.82C4.354,11.652 4.521,11.433 4.627,11.184C4.733,10.935 4.776,10.663 4.75,10.393C4.739,10.267 4.732,10.133 4.732,9.999L4.751,9.601C4.774,9.332 4.729,9.062 4.622,8.815C4.622,8.815 4.622,8.815 4.622,8.815C4.514,8.568 4.347,8.351 4.135,8.185L3.049,7.333L4.216,5.314L5.497,5.83C5.499,5.83 5.5,5.831 5.501,5.831C5.752,5.931 6.023,5.967 6.291,5.936C6.558,5.905 6.814,5.808 7.035,5.654C7.257,5.502 7.494,5.363 7.741,5.244C7.742,5.243 7.742,5.243 7.742,5.243C7.982,5.127 8.189,4.953 8.346,4.738C8.346,4.737 8.346,4.737 8.346,4.737C8.502,4.522 8.603,4.271 8.64,4.007L8.832,2.64ZM10.346,6.517C10.345,6.517 10.345,6.517 10.344,6.517C9.626,6.446 8.904,6.599 8.276,6.954C7.648,7.31 7.145,7.851 6.837,8.503C6.528,9.155 6.428,9.887 6.552,10.598C6.675,11.309 7.015,11.965 7.525,12.475C7.525,12.475 7.525,12.475 7.525,12.475C8.036,12.985 8.691,13.325 9.402,13.448C10.113,13.572 10.845,13.472 11.497,13.164C12.149,12.855 12.69,12.352 13.046,11.725C13.046,11.725 13.046,11.724 13.046,11.724C13.401,11.097 13.554,10.374 13.483,9.656C13.483,9.655 13.483,9.655 13.483,9.654C13.402,8.85 13.046,8.098 12.474,7.526C11.902,6.954 11.15,6.598 10.346,6.517ZM10.147,8.507C10.492,8.542 10.815,8.695 11.06,8.94C11.06,8.94 11.06,8.94 11.06,8.94C11.305,9.186 11.458,9.508 11.493,9.853C11.523,10.161 11.458,10.47 11.306,10.739C11.153,11.008 10.921,11.224 10.642,11.356C10.642,11.356 10.642,11.356 10.642,11.356C10.362,11.488 10.049,11.531 9.744,11.478C9.744,11.478 9.744,11.478 9.744,11.478C9.439,11.425 9.158,11.279 8.94,11.061C8.721,10.842 8.575,10.561 8.522,10.256C8.522,10.256 8.522,10.256 8.522,10.256C8.47,9.952 8.512,9.638 8.644,9.359C8.644,9.358 8.644,9.358 8.644,9.358C8.777,9.079 8.992,8.847 9.261,8.695C9.261,8.695 9.261,8.695 9.261,8.695C9.53,8.542 9.84,8.477 10.147,8.507L10.147,8.507Z"/>
        </g>
    </g>
</svg>
