<svg xmlns="http://www.w3.org/2000/svg" xml:space="preserve" style="fill-rule:evenodd;clip-rule:evenodd;stroke-linejoin:round;stroke-miterlimit:2" viewBox="0 0 20 20"><path d="M6.687 3.536a7.084 7.084 0 0 0-.626.364l-1.57-.632-.018-.007a1.421 1.421 0 0 0-1.729.604l-1.677 2.9a1.426 1.426 0 0 0 .313 1.799l1.363 1.071a6.212 6.212 0 0 0-.011.364l.017.372-1.339 1.051-.02.017a1.42 1.42 0 0 0-.323 1.81l1.67 2.888.006.01a1.421 1.421 0 0 0 1.729.603l1.586-.638c.203.133.413.256.629.368l.235 1.672c.003.021.006.042.011.062a1.428 1.428 0 0 0 1.379 1.145h3.38a1.434 1.434 0 0 0 1.381-1.185l.241-1.71c.215-.111.423-.232.626-.364l1.57.632.019.007a1.418 1.418 0 0 0 1.728-.604l1.676-2.9a1.421 1.421 0 0 0-.323-1.808l-1.356-1.063c.007-.119.011-.239.011-.358l-.016-.375 1.342-1.053.02-.017a1.423 1.423 0 0 0 .322-1.81l-1.669-2.888-.006-.011a1.426 1.426 0 0 0-1.729-.602l-1.586.638a7.174 7.174 0 0 0-.629-.368l-.235-1.672-.011-.063a1.434 1.434 0 0 0-1.38-1.144h-3.38a1.434 1.434 0 0 0-.903.345 1.44 1.44 0 0 0-.478.841l-.24 1.709Zm2.145-.896 2.339.001.19 1.356a1.627 1.627 0 0 0 .912 1.238c.239.116.473.253.695.408l.002.002a1.632 1.632 0 0 0 1.535.173l1.281-.516 1.166 2.019-1.091.856c-.213.168-.38.387-.487.636l-.001.001c-.107.249-.15.521-.125.791l.018.392a5.259 5.259 0 0 1-.05.675 1 1 0 0 0 .373.927l1.362 1.069-1.167 2.018-1.281-.516-.004-.001a1.622 1.622 0 0 0-1.534.177 5.337 5.337 0 0 1-.705.41l-.002.001a1.628 1.628 0 0 0-.897 1.236l-.192 1.367-2.339-.001-.191-1.357a1.626 1.626 0 0 0-.3-.733 1.647 1.647 0 0 0-.612-.505 5.073 5.073 0 0 1-.694-.407l-.002-.001a1.622 1.622 0 0 0-1.535-.174l-1.281.516-1.167-2.019 1.094-.859a1.623 1.623 0 0 0 .608-1.427 4.568 4.568 0 0 1-.018-.394l.019-.398a1.628 1.628 0 0 0-.616-1.416l-1.086-.852 1.167-2.019 1.281.516.004.001a1.627 1.627 0 0 0 1.534-.177c.222-.152.459-.291.706-.41l.001-.001c.24-.116.447-.29.604-.505v-.001c.156-.215.257-.466.294-.73l.192-1.367Zm1.514 3.877h-.002a3.502 3.502 0 0 0-3.507 1.986 3.498 3.498 0 0 0 .688 3.972 3.502 3.502 0 0 0 5.521-.75v-.001a3.5 3.5 0 0 0 .437-2.068v-.002a3.506 3.506 0 0 0-3.137-3.137Zm-.199 1.99a1.51 1.51 0 0 1 1.346 1.346 1.503 1.503 0 0 1-.851 1.503 1.5 1.5 0 0 1-2.12-1.1 1.506 1.506 0 0 1 .122-.897v-.001a1.498 1.498 0 0 1 1.503-.851Z"/></svg>