<svg xmlns="http://www.w3.org/2000/svg" xml:space="preserve" style="fill-rule:evenodd;clip-rule:evenodd;stroke-linejoin:round;stroke-miterlimit:2" viewBox="0 0 20 20"><path d="M3.7 2.2c-.375 0-.765.165-1.05.45-.285.285-.45.675-.45 1.05v5.7c0 .375.165.765.45 1.05.285.285.675.45 1.05.45h3.9c.375 0 .765-.165 1.05-.45.285-.285.45-.675.45-1.05V3.7c0-.441-.178-.804-.413-1.05-.221-.232-.552-.45-1.087-.45H3.7Zm.5 2v4.7h2.9V4.2H4.2Zm8.2 4.9c-.375 0-.765.165-1.05.45-.284.285-.45.675-.45 1.05v5.7c0 .375.166.765.45 1.05.285.285.675.45 1.05.45h3.9c.376 0 .766-.165 1.05-.45.285-.285.45-.675.45-1.05v-5.7c0-.375-.165-.765-.45-1.05a1.514 1.514 0 0 0-1.05-.45h-3.9Zm.5 2v4.7h2.9v-4.7h-2.9Zm-.5-8.9c-.375 0-.765.165-1.05.45-.284.285-.45.675-.45 1.05v2.2c0 .375.166.765.45 1.05.285.285.675.45 1.05.45h3.9c.376 0 .766-.165 1.05-.45.285-.285.45-.675.45-1.05V3.7c0-.375-.165-.765-.45-1.05a1.514 1.514 0 0 0-1.05-.45h-3.9Zm.5 2v1.2h2.9V4.2h-2.9Zm-9.2 8.4c-.375 0-.765.165-1.05.45-.285.284-.45.674-.45 1.05v2.2c0 .375.165.765.45 1.05.285.284.675.45 1.05.45h3.9c.375 0 .765-.166 1.05-.45.285-.285.45-.675.45-1.05v-2.2c0-.441-.178-.805-.412-1.05-.222-.232-.553-.45-1.088-.45H3.7Zm.5 2v1.2h2.9v-1.2H4.2Z"/></svg>