<?xml version="1.0" encoding="UTF-8" standalone="no"?>
<!DOCTYPE svg PUBLIC "-//W3C//DTD SVG 1.1//EN" "http://www.w3.org/Graphics/SVG/1.1/DTD/svg11.dtd">
<svg width="100%" height="100%" viewBox="0 0 20 20" version="1.1" xmlns="http://www.w3.org/2000/svg" xmlns:xlink="http://www.w3.org/1999/xlink" xml:space="preserve" xmlns:serif="http://www.serif.com/" style="fill-rule:evenodd;clip-rule:evenodd;stroke-linejoin:round;stroke-miterlimit:2;">
    <g>
        <path d="M3.7,2.2C3.325,2.2 2.935,2.365 2.65,2.65C2.365,2.935 2.2,3.325 2.2,3.7L2.2,9.4C2.2,9.775 2.365,10.165 2.65,10.45C2.935,10.735 3.325,10.9 3.7,10.9C3.7,10.9 7.6,10.9 7.6,10.9C7.975,10.9 8.365,10.735 8.65,10.45C8.935,10.165 9.1,9.775 9.1,9.4L9.1,3.7C9.1,3.259 8.922,2.896 8.687,2.65L8.687,2.65C8.466,2.418 8.135,2.2 7.6,2.2L3.7,2.2ZM4.2,4.2L4.2,8.9L7.1,8.9L7.1,4.2L4.2,4.2Z"/>
        <path d="M12.4,9.1C12.025,9.1 11.635,9.265 11.35,9.55C11.066,9.835 10.9,10.225 10.9,10.6L10.9,16.3C10.9,16.675 11.066,17.065 11.35,17.35C11.635,17.635 12.025,17.8 12.4,17.8L16.3,17.8C16.676,17.8 17.066,17.635 17.35,17.35C17.635,17.065 17.8,16.675 17.8,16.3L17.8,10.6C17.8,10.225 17.635,9.835 17.35,9.55C17.066,9.265 16.676,9.1 16.3,9.1L12.4,9.1ZM12.9,11.1L12.9,15.8L15.8,15.8L15.8,11.1L12.9,11.1Z"/>
        <path d="M12.4,2.2C12.025,2.2 11.635,2.365 11.35,2.65C11.066,2.935 10.9,3.325 10.9,3.7L10.9,5.9C10.9,6.275 11.066,6.665 11.35,6.95C11.635,7.235 12.025,7.4 12.4,7.4L16.3,7.4C16.676,7.4 17.066,7.235 17.35,6.95C17.635,6.665 17.8,6.275 17.8,5.9L17.8,3.7C17.8,3.325 17.635,2.935 17.35,2.65C17.066,2.365 16.676,2.2 16.3,2.2L12.4,2.2ZM12.9,4.2L12.9,5.4L15.8,5.4L15.8,4.2L12.9,4.2Z"/>
        <path d="M3.7,12.6C3.325,12.6 2.935,12.765 2.65,13.05C2.365,13.334 2.2,13.724 2.2,14.1L2.2,16.3C2.2,16.675 2.365,17.065 2.65,17.35C2.935,17.634 3.325,17.8 3.7,17.8C3.7,17.8 7.6,17.8 7.6,17.8C7.975,17.8 8.365,17.634 8.65,17.35C8.935,17.065 9.1,16.675 9.1,16.3C9.1,16.3 9.1,14.1 9.1,14.1C9.1,13.659 8.922,13.295 8.688,13.05L8.688,13.05C8.466,12.818 8.135,12.6 7.6,12.6L3.7,12.6ZM4.2,14.6L4.2,15.8L7.1,15.8L7.1,14.6L4.2,14.6Z"/>
    </g>
</svg>
