<?xml version="1.0" encoding="UTF-8" standalone="no"?>
<!DOCTYPE svg PUBLIC "-//W3C//DTD SVG 1.1//EN" "http://www.w3.org/Graphics/SVG/1.1/DTD/svg11.dtd">
<svg width="100%" height="100%" viewBox="0 0 16 16" version="1.1" xmlns="http://www.w3.org/2000/svg" xmlns:xlink="http://www.w3.org/1999/xlink" xml:space="preserve" xmlns:serif="http://www.serif.com/" style="fill-rule:evenodd;clip-rule:evenodd;stroke-linejoin:round;stroke-miterlimit:2;">
    <path d="M13,5.333C13,4.007 12.473,2.735 11.536,1.798C10.598,0.86 9.326,0.333 8,0.333C6.674,0.333 5.402,0.86 4.464,1.798C4.464,1.798 4.464,1.798 4.464,1.798C3.527,2.735 3,4.007 3,5.333C3,9.315 1.445,10.501 1.445,10.501C1.079,10.746 0.915,11.201 1.043,11.623C1.171,12.045 1.559,12.333 2,12.333L14,12.333C14.441,12.333 14.829,12.045 14.957,11.623C15.085,11.201 14.921,10.746 14.555,10.501C14.555,10.501 13,9.315 13,5.333ZM11,5.333C11,7.674 11.467,9.274 11.993,10.333C11.993,10.333 4.007,10.333 4.007,10.333C4.533,9.274 5,7.674 5,5.333C5,4.538 5.316,3.775 5.879,3.212C6.441,2.649 7.204,2.333 8,2.333C8.796,2.333 9.559,2.649 10.121,3.212C10.121,3.212 10.121,3.212 10.121,3.212C10.684,3.775 11,4.538 11,5.333Z"/>
    <path d="M8.288,13.498C8.259,13.549 8.217,13.591 8.167,13.62C8.116,13.649 8.058,13.664 8,13.664C7.942,13.664 7.884,13.649 7.834,13.62C7.783,13.591 7.741,13.549 7.712,13.498C7.435,13.021 6.822,12.858 6.345,13.135C5.868,13.412 5.705,14.024 5.982,14.502C6.187,14.855 6.481,15.149 6.835,15.353C6.835,15.353 6.836,15.353 6.836,15.353C7.19,15.557 7.591,15.664 8,15.664C8.409,15.664 8.81,15.557 9.164,15.353C9.164,15.353 9.165,15.353 9.165,15.353C9.519,15.149 9.813,14.855 10.018,14.502C10.295,14.024 10.132,13.412 9.655,13.135C9.178,12.858 8.565,13.021 8.288,13.498Z"/>
</svg>
