<svg xmlns="http://www.w3.org/2000/svg" xml:space="preserve" style="fill-rule:evenodd;clip-rule:evenodd;stroke-linejoin:round;stroke-miterlimit:2" viewBox="0 0 16 16"><path d="M13 5.333a5 5 0 0 0-8.536-3.535A5 5 0 0 0 3 5.333c0 3.982-1.555 5.168-1.555 5.168A1 1 0 0 0 2 12.333h12a1 1 0 0 0 .555-1.832S13 9.315 13 5.333Zm-2 0c0 2.341.467 3.941.993 5H4.007c.526-1.059.993-2.659.993-5a3 3 0 0 1 5.121-2.121A3 3 0 0 1 11 5.333Zm-2.712 8.165a.33.33 0 0 1-.454.122.325.325 0 0 1-.122-.122 1.001 1.001 0 0 0-1.73 1.004c.205.353.499.647.853.851h.001a2.33 2.33 0 0 0 2.328 0h.001c.354-.204.648-.498.853-.851a1 1 0 0 0-1.73-1.004Z"/></svg>