<svg xmlns="http://www.w3.org/2000/svg" width="73" height="76" fill="none" viewBox="0 0 73 76"><path fill="#2570ED" d="M25 4a4 4 0 0 1 4-4h40a4 4 0 0 1 4 4v12a4 4 0 0 1-4 4H29a4 4 0 0 1-4-4V4Zm20 28a4 4 0 0 1 4-4h20a4 4 0 0 1 4 4v12a4 4 0 0 1-4 4H49a4 4 0 0 1-4-4V32ZM25 60a4 4 0 0 1 4-4h40a4 4 0 0 1 4 4v12a4 4 0 0 1-4 4H29a4 4 0 0 1-4-4V60Z"/><path fill="#F07702" d="m19.94 21.247 14.964 14.58a3.018 3.018 0 0 1 0 4.346L19.94 54.753c-1.988 1.936-5.386.565-5.386-2.174V23.421c0-2.739 3.398-4.11 5.386-2.174Z"/><path fill="#FEC200" d="m5.966 21.247 14.964 14.58a3.018 3.018 0 0 1 0 4.346L5.966 54.753C3.98 56.689.581 55.318.581 52.579V23.421c0-2.739 3.398-4.11 5.385-2.174Z"/></svg>