<svg xmlns="http://www.w3.org/2000/svg" width="78" height="78" fill="none" viewBox="0 0 78 78"><path fill="#050505" fill-rule="evenodd" d="M66 38a2 2 0 0 1 2 2 30 30 0 0 1-50.848 21.572 2 2 0 0 1 2.78-2.876A26 26 0 0 0 64 40a2 2 0 0 1 2-2Z" clip-rule="evenodd"/><path fill="#F07702" d="M64 40c0 14.36-11.64 26-26 26S12 54.36 12 40s11.64-26 26-26 26 11.64 26 26Z"/><path fill="#2570ED" d="M50 4a4 4 0 0 1 4-4h20a4 4 0 0 1 4 4v20a4 4 0 0 1-4 4H54a4 4 0 0 1-4-4V4Z"/><path fill="#050505" fill-rule="evenodd" d="M27.414 50.586a2 2 0 0 1 0 2.828l-24 24a2 2 0 1 1-2.828-2.828l24-24a2 2 0 0 1 2.828 0Zm29.172-5.172a2 2 0 0 1 0-2.828l8-8a2 2 0 0 1 2.828 0l8 8a2 2 0 1 1-2.828 2.828L66 38.828l-6.586 6.586a2 2 0 0 1-2.828 0Z" clip-rule="evenodd"/></svg>