<svg xmlns="http://www.w3.org/2000/svg" width="68" height="80" fill="none" viewBox="0 0 68 80"><path fill="#2570ED" d="M0 28a8 8 0 0 1 8-8h28a8 8 0 0 1 8 8v44a8 8 0 0 1-8 8H8a8 8 0 0 1-8-8V28Z"/><path fill="#050505" fill-rule="evenodd" d="M30 12a6 6 0 0 0-6 6v52a2 2 0 1 1-4 0V18c0-5.523 4.477-10 10-10h28a2 2 0 1 1 0 4H30Z" clip-rule="evenodd"/><path fill="#050505" fill-rule="evenodd" d="M48.586.586a2 2 0 0 1 2.828 0l8 8a2 2 0 0 1 0 2.828l-8 8a2 2 0 1 1-2.828-2.828L55.172 10l-6.586-6.586a2 2 0 0 1 0-2.828Z" clip-rule="evenodd"/><path fill="#FEC200" d="M68 42c0 7.732-6.268 14-14 14s-14-6.268-14-14 6.268-14 14-14 14 6.268 14 14Z"/><path fill="#F07702" d="M68 58c0 7.732-6.268 14-14 14s-14-6.268-14-14 6.268-14 14-14 14 6.268 14 14Z"/></svg>