<svg xmlns="http://www.w3.org/2000/svg" width="72" height="72" fill="none" viewBox="0 0 72 72"><path fill="#2570ED" fill-rule="evenodd" d="M12 0C5.373 0 0 5.373 0 12v40c0 6.627 5.373 12 12 12h40c6.627 0 12-5.373 12-12V12c0-6.627-5.373-12-12-12H12Zm26.918 50H47L35.199 29.932 46.909 14H39.01l-9.092 12.238c-.474.706-.941 1.412-1.4 2.118-.46.706-.926 1.411-1.4 2.117V14H20v36h7.117V37.146l3.008-2.314L38.918 50Z" clip-rule="evenodd"/><path fill="#FEC200" d="M72 44.828V70a2 2 0 0 1-2 2H44.828c-1.781 0-2.674-2.154-1.414-3.414l25.172-25.172c1.26-1.26 3.414-.367 3.414 1.414Z"/></svg>