<svg xmlns="http://www.w3.org/2000/svg" width="123" height="34" fill="none" viewBox="0 0 123 34"><path fill="#050505" d="M49.92 24.108c-1.14 0-2.148-.234-3.024-.702a5.239 5.239 0 0 1-2.034-1.926c-.492-.828-.738-1.758-.738-2.79v-7.308h2.718v7.182c0 .588.132 1.116.396 1.584.276.468.642.84 1.098 1.116.468.276.996.414 1.584.414.6 0 1.134-.138 1.602-.414.48-.276.858-.648 1.134-1.116.276-.468.414-.996.414-1.584v-7.182h2.628v7.308c0 1.032-.246 1.962-.738 2.79a5.207 5.207 0 0 1-2.052 1.926c-.864.468-1.86.702-2.988.702ZM60.124 24v-9.522h2.448l.09 3.24-.576-.378a4.56 4.56 0 0 1 .81-1.548 4.292 4.292 0 0 1 1.332-1.098 3.253 3.253 0 0 1 1.584-.414c.312 0 .606.03.882.09.288.06.522.138.702.234l-.684 2.772c-.18-.12-.42-.216-.72-.288a3.55 3.55 0 0 0-.864-.108c-.36 0-.696.066-1.008.198-.3.12-.558.288-.774.504a2.375 2.375 0 0 0-.504.738 2.35 2.35 0 0 0-.162.864V24h-2.556Zm10.511 0V10.68h2.556V24h-2.556Zm10.7.18c-1.02 0-1.931-.144-2.735-.432-.804-.3-1.458-.732-1.962-1.296l1.602-1.404c.396.408.87.714 1.422.918.552.204 1.14.306 1.764.306.216 0 .426-.018.63-.054.216-.036.402-.09.558-.162a1.21 1.21 0 0 0 .378-.306.644.644 0 0 0 .144-.414c0-.264-.162-.474-.486-.63a9.994 9.994 0 0 0-.792-.234 13.197 13.197 0 0 0-1.062-.234 14.027 14.027 0 0 1-1.764-.486c-.504-.18-.924-.402-1.26-.666a2.77 2.77 0 0 1-.612-.846 2.552 2.552 0 0 1-.216-1.08c0-.432.108-.828.324-1.188.216-.36.522-.66.918-.9a4.726 4.726 0 0 1 1.35-.576 6.068 6.068 0 0 1 1.638-.216c.552 0 1.092.06 1.62.18.54.108 1.05.27 1.53.486.48.216.894.486 1.242.81l-1.332 1.548a5.178 5.178 0 0 0-.918-.558 5.044 5.044 0 0 0-1.098-.414 3.926 3.926 0 0 0-1.098-.162c-.216 0-.432.018-.648.054a1.78 1.78 0 0 0-.54.144 1.13 1.13 0 0 0-.378.27.625.625 0 0 0-.126.396c0 .132.03.252.09.36a.99.99 0 0 0 .288.252c.18.12.438.228.774.324.336.084.75.18 1.242.288.696.144 1.296.312 1.8.504.516.18.93.408 1.242.684.252.192.444.432.576.72.132.276.198.588.198.936a2.48 2.48 0 0 1-.576 1.62c-.372.456-.882.816-1.53 1.08-.636.252-1.368.378-2.196.378Zm7.687-.18V10.68h2.556V24h-2.556Zm10.669.18c-.936 0-1.764-.21-2.484-.63a4.64 4.64 0 0 1-1.674-1.764c-.396-.744-.594-1.602-.594-2.574 0-.96.204-1.806.612-2.538.42-.744.99-1.326 1.71-1.746.732-.432 1.572-.648 2.52-.648.552 0 1.062.072 1.53.216a4.15 4.15 0 0 1 1.224.594c.348.24.63.51.846.81.228.288.372.594.432.918l-.576-.018v-2.322h2.52V24h-2.556v-2.43l.54.054a2.42 2.42 0 0 1-.45.918 3.77 3.77 0 0 1-.9.828 5.18 5.18 0 0 1-1.242.594 4.815 4.815 0 0 1-1.458.216Zm.684-2.214c.576 0 1.08-.114 1.512-.342a2.467 2.467 0 0 0 1.026-.954c.24-.42.36-.906.36-1.458 0-.528-.12-.996-.36-1.404a2.587 2.587 0 0 0-1.026-.972c-.432-.24-.936-.36-1.512-.36s-1.08.12-1.512.36c-.432.24-.774.564-1.026.972-.24.408-.36.876-.36 1.404 0 .552.12 1.038.36 1.458a2.62 2.62 0 0 0 1.026.954c.432.228.936.342 1.512.342Zm15.732 2.214a5.22 5.22 0 0 1-1.458-.198 5.518 5.518 0 0 1-1.242-.522c-.36-.228-.66-.48-.9-.756-.228-.288-.378-.564-.45-.828l.72-.144-.108 2.232h-2.412V10.68h2.556v6.03l-.648-.126c.084-.276.24-.552.468-.828.228-.276.516-.522.864-.738a4.902 4.902 0 0 1 2.61-.738c.924 0 1.746.216 2.466.648a4.558 4.558 0 0 1 1.728 1.746c.42.744.63 1.596.63 2.556s-.21 1.812-.63 2.556a4.557 4.557 0 0 1-1.71 1.764c-.732.42-1.56.63-2.484.63Zm-.54-2.196c.576 0 1.08-.114 1.512-.342.432-.24.768-.564 1.008-.972.24-.42.36-.9.36-1.44 0-.54-.12-1.02-.36-1.44a2.458 2.458 0 0 0-1.008-.972c-.432-.228-.936-.342-1.512-.342-.588 0-1.098.114-1.53.342a2.58 2.58 0 0 0-1.026.972c-.24.42-.36.9-.36 1.44 0 .54.12 1.02.36 1.44.252.408.594.732 1.026.972.432.228.942.342 1.53.342Z"/><g clip-path="url(#a)"><path fill="#3D4148" d="M0 8a8 8 0 0 1 8-8h13c7.18 0 13 5.82 13 13v13a8 8 0 0 1-8 8H13C5.82 34 0 28.18 0 21V8Z"/><path fill="#fff" d="M22.828 22.318A5.834 5.834 0 0 1 17 28.146a5.834 5.834 0 0 1-5.374-8.093 5.782 5.782 0 0 1 1.305-1.907 1.02 1.02 0 0 1 1.424 1.46 3.787 3.787 0 1 0 5.29 0 1.02 1.02 0 0 1 1.424-1.46 5.784 5.784 0 0 1 1.759 4.172Zm-4.808-1.583v-7.469a1.02 1.02 0 0 0-2.04 0v7.469a1.02 1.02 0 1 0 2.04 0Zm5.71-12.33a1.02 1.02 0 0 0-.885-.51H11.154a1.02 1.02 0 0 0-.884 1.53l2.49 4.311a1.02 1.02 0 1 0 1.767-1.02L12.92 9.935h8.16l-1.607 2.781a1.02 1.02 0 0 0 1.768 1.02l2.49-4.311a1.02 1.02 0 0 0-.002-1.02Z"/></g><defs><clipPath id="a"><path fill="#fff" d="M0 0h34v34H0z"/></clipPath></defs></svg>