<svg xmlns="http://www.w3.org/2000/svg" width="75" height="80" fill="none" viewBox="0 0 75 80"><path fill="#050505" fill-rule="evenodd" d="M33 67.317A11.98 11.98 0 0 0 37 68h26c6.627 0 12-5.373 12-12V32c0-6.627-5.373-12-12-12H37c-1.403 0-2.749.24-4 .683v4.387A7.963 7.963 0 0 1 37 24h26a8 8 0 0 1 8 8v24a8 8 0 0 1-8 8H37a7.963 7.963 0 0 1-4-1.07v4.387Z" clip-rule="evenodd"/><path fill="#F07702" d="M36 22c0 7.732-6.268 14-14 14S8 29.732 8 22 14.268 8 22 8s14 6.268 14 14Z"/><path fill="#2570ED" fill-rule="evenodd" d="M22 44c12.15 0 22-9.85 22-22S34.15 0 22 0 0 9.85 0 22s9.85 22 22 22Zm0-11c6.075 0 11-4.925 11-11s-4.925-11-11-11-11 4.925-11 11 4.925 11 11 11Z" clip-rule="evenodd"/><path fill="#FEC200" d="M31 56a4 4 0 0 1 4-4h20a4 4 0 0 1 4 4v20a4 4 0 0 1-4 4H35a4 4 0 0 1-4-4V56Z"/></svg>