<svg xmlns="http://www.w3.org/2000/svg" width="72" height="72" fill="none" viewBox="0 0 72 72"><path fill="#050505" fill-rule="evenodd" d="M64 4H8a4 4 0 0 0-4 4v56h56a4 4 0 0 0 4-4V4ZM8 0a8 8 0 0 0-8 8v56a4 4 0 0 0 4 4h56a8 8 0 0 0 8-8V4a4 4 0 0 0-4-4H8Z" clip-rule="evenodd"/><path fill="#FEC200" d="M64.757 0H8a8 8 0 0 0-8 8v56.757c0 2.673 3.23 4.013 5.12 2.123L66.88 5.12c1.89-1.89.55-5.121-2.122-5.121Z"/><mask id="a" width="70" height="70" x="0" y="0" maskUnits="userSpaceOnUse" style="mask-type:alpha"><path fill="#FEC200" d="M67.172 0H2a2 2 0 0 0-2 2v65.171c0 1.782 2.154 2.675 3.414 1.415L68.586 3.414C69.846 2.154 68.954 0 67.172 0Z"/></mask><g mask="url(#a)"><path fill="#2570ED" d="M56 36c0 11.046-8.954 20-20 20s-20-8.954-20-20 8.954-20 20-20 20 8.954 20 20Z"/></g><mask id="b" width="70" height="70" x="2" y="2" maskUnits="userSpaceOnUse" style="mask-type:alpha"><path fill="#FEC200" d="M4.828 72H70a2 2 0 0 0 2-2V4.828c0-1.781-2.154-2.674-3.414-1.414L3.414 68.586C2.154 69.846 3.046 72 4.828 72Z"/></mask><g mask="url(#b)"><path fill="#050505" fill-rule="evenodd" d="M36 52c8.837 0 16-7.163 16-16s-7.163-16-16-16-16 7.163-16 16 7.163 16 16 16Zm0 4c11.046 0 20-8.954 20-20s-8.954-20-20-20-20 8.954-20 20 8.954 20 20 20Z" clip-rule="evenodd"/></g></svg>