<svg xmlns="http://www.w3.org/2000/svg" width="80" height="80" fill="none" viewBox="0 0 80 80"><path fill="#050505" fill-rule="evenodd" d="M64 4c-6.627 0-12 5.373-12 12s5.373 12 12 12 12-5.373 12-12S70.627 4 64 4ZM48 16c0-8.837 7.163-16 16-16s16 7.163 16 16-7.163 16-16 16-16-7.163-16-16ZM16 52C9.373 52 4 57.373 4 64s5.373 12 12 12 12-5.373 12-12-5.373-12-12-12ZM0 64c0-8.837 7.163-16 16-16s16 7.163 16 16-7.163 16-16 16S0 72.837 0 64Z" clip-rule="evenodd"/><path fill="#2570ED" d="M61 40c0 11.598-9.402 21-21 21s-21-9.402-21-21 9.402-21 21-21 21 9.402 21 21Z"/><path fill="#FEC200" d="M75.172 32H50a2 2 0 0 1-2-2V4.828c0-1.781 2.154-2.674 3.414-1.414l25.172 25.172c1.26 1.26.367 3.414-1.414 3.414Z"/><path fill="#F07702" d="M4.828 48H30a2 2 0 0 1 2 2v25.172c0 1.781-2.154 2.674-3.414 1.414L3.414 51.414C2.154 50.154 3.047 48 4.828 48Z"/></svg>