<svg xmlns="http://www.w3.org/2000/svg" width="80" height="80" fill="none" viewBox="0 0 80 80"><path fill="#FEC200" d="M76 62c0 7.732-6.268 14-14 14s-14-6.268-14-14 6.268-14 14-14 14 6.268 14 14Z"/><path fill="#2570ED" fill-rule="evenodd" d="M40 28c6.627 0 12 5.373 12 12h28A40 40 0 0 0 40 0v28Z" clip-rule="evenodd"/><path fill="#2570ED" d="M42 16h22v22L42 16Z"/><path fill="#F07702" d="M64 40c0 13.255-10.745 24-24 24S16 53.255 16 40s10.745-24 24-24 24 10.745 24 24Z"/><path fill="#050505" fill-rule="evenodd" d="M52.702 6.315A36 36 0 1 0 38.16 75.953a2 2 0 1 1-.205 3.995 40.001 40.001 0 1 1 41.974-42.34 2 2 0 1 1-3.992.239A36 36 0 0 0 52.702 6.315Z" clip-rule="evenodd"/><path fill="#050505" fill-rule="evenodd" d="M27 29a2 2 0 0 1 2-2h22a2 2 0 0 1 1.99 2.206l-2.415 23.292a2 2 0 0 1-1.388 1.701l-8.585 2.708a2 2 0 0 1-1.204 0L30.813 54.2a2 2 0 0 1-1.386-1.688l-.537-4.876a2 2 0 1 1 3.976-.437l.394 3.579L40 52.903l6.731-2.124.844-8.133H30.073a2 2 0 1 1 0-4H47.99L48.782 31H29a2 2 0 0 1-2-2Z" clip-rule="evenodd"/></svg>