<svg xmlns="http://www.w3.org/2000/svg" width="74" height="77" fill="none" viewBox="0 0 74 77"><path fill="#2570ED" d="M0 12C0 5.373 5.373 0 12 0h40c6.627 0 12 5.373 12 12v40c0 6.627-5.373 12-12 12H12C5.373 64 0 58.627 0 52V12Z"/><path fill="#FEC200" d="M56 16a8 8 0 1 1-16 0 8 8 0 0 1 16 0Z"/><path fill="#F07702" d="M24.94 25.06 4.56 45.44c-.944.944-.275 2.56 1.061 2.56H46.38c1.336 0 2.005-1.616 1.06-2.56L27.061 25.06a1.5 1.5 0 0 0-2.122 0Z"/><path fill="#F07702" d="M40.94 29.06 24.56 45.44c-.944.944-.275 2.56 1.061 2.56H58.38c1.336 0 2.005-1.616 1.06-2.56L43.06 29.06a1.5 1.5 0 0 0-2.12 0Z"/><path fill="#050505" fill-rule="evenodd" d="M54.393 52.039a2 2 0 0 1 1.569 2.353l-4 20a2 2 0 0 1-3.923-.784l4-20a2 2 0 0 1 2.354-1.57Zm-8.729 2.851a2 2 0 0 0-2.774-.554l-10.752 7.168c-1.78 1.187-1.78 3.805 0 4.992l10.752 7.168a2 2 0 0 0 2.22-3.328L35.604 64l9.504-6.336a2 2 0 0 0 .555-2.773Zm12.672 0a2 2 0 0 1 2.773-.554l10.752 7.168c1.781 1.187 1.781 3.805 0 4.992l-10.752 7.168a2 2 0 0 1-2.219-3.328L68.394 64l-9.504-6.336a2 2 0 0 1-.554-2.773Z" clip-rule="evenodd"/></svg>