<svg xmlns="http://www.w3.org/2000/svg" width="72" height="76" fill="none" viewBox="0 0 72 76"><path fill="#2570ED" d="M0 8a8 8 0 0 1 8-8h56a8 8 0 0 1 8 8v20a8 8 0 0 1-8 8H8a8 8 0 0 1-8-8V8Z"/><path fill="#FEC200" d="M8 28a8 8 0 0 1 8-8h40a8 8 0 0 1 8 8v20a8 8 0 0 1-8 8H16a8 8 0 0 1-8-8V28Z"/><path fill="#050505" fill-rule="evenodd" d="M42 44H30a8 8 0 0 0-8 8v12a8 8 0 0 0 8 8h12a8 8 0 0 0 8-8V52a8 8 0 0 0-8-8Zm-12-4c-6.627 0-12 5.373-12 12v12c0 6.627 5.373 12 12 12h12c6.627 0 12-5.373 12-12V52c0-6.627-5.373-12-12-12H30Z" clip-rule="evenodd"/></svg>