<svg xmlns="http://www.w3.org/2000/svg" width="80" height="80" fill="none" viewBox="0 0 80 80"><path fill="#050505" fill-rule="evenodd" d="M68 52a2 2 0 0 0 2-2V20c0-5.523-4.477-10-10-10H31a2 2 0 1 0 0 4h29a6 6 0 0 1 6 6v30a2 2 0 0 0 2 2ZM12 28a2 2 0 0 0-2 2v26c0 7.732 6.268 14 14 14h25a2 2 0 1 0 0-4H24c-5.523 0-10-4.477-10-10V30a2 2 0 0 0-2-2Z" clip-rule="evenodd"/><path fill="#FEC200" fill-rule="evenodd" d="M24.693 3.045A40 40 0 0 1 40 0v28c-6.627 0-12 5.373-12 12H0A40 40 0 0 1 24.693 3.045Z" clip-rule="evenodd"/><path fill="#F07702" fill-rule="evenodd" d="M40 52c6.627 0 12-5.373 12-12h28a40 40 0 0 1-40 40V52Z" clip-rule="evenodd"/><path fill="#2570ED" fill-rule="evenodd" d="M40 60c11.046 0 20-8.954 20-20s-8.954-20-20-20-20 8.954-20 20 8.954 20 20 20Zm0-10c5.523 0 10-4.477 10-10s-4.477-10-10-10-10 4.477-10 10 4.477 10 10 10Z" clip-rule="evenodd"/></svg>