<svg xmlns="http://www.w3.org/2000/svg" width="76" height="76" fill="none" viewBox="0 0 76 76"><path fill="#050505" fill-rule="evenodd" d="M64 36v30a2 2 0 1 0 4 0V36c0-5.523-4.477-10-10-10H29a2 2 0 1 0 0 4h29a6 6 0 0 1 6 6Z" clip-rule="evenodd"/><path fill="#050505" fill-rule="evenodd" d="M28 26a2 2 0 0 0-2 2v30c0 5.523 4.477 10 10 10h30a2 2 0 1 0 0-4H36a6 6 0 0 1-6-6V28a2 2 0 0 0-2-2Z" clip-rule="evenodd"/><path fill="#FEC200" d="M0 8a8 8 0 0 1 8-8h40a8 8 0 0 1 8 8v38a8 8 0 0 1-8 8H8a8 8 0 0 1-8-8V8Z"/><path fill="#050505" fill-rule="evenodd" d="M29.393 14.039a2 2 0 0 1 1.568 2.353l-4 20a2 2 0 1 1-3.922-.784l4-20a2 2 0 0 1 2.354-1.57Zm-8.729 2.851a2 2 0 0 0-2.773-.554L7.139 23.504c-1.782 1.187-1.782 3.805 0 4.992l10.752 7.168a2 2 0 0 0 2.218-3.328L10.606 26l9.503-6.336a2 2 0 0 0 .555-2.773Zm12.672 0a2 2 0 0 1 2.773-.554l10.752 7.168c1.782 1.187 1.782 3.805 0 4.992L36.11 35.664a2 2 0 0 1-2.218-3.328L43.395 26l-9.504-6.336a2 2 0 0 1-.555-2.773Z" clip-rule="evenodd"/><path fill="#2570ED" d="M76 66c0 5.523-4.477 10-10 10s-10-4.477-10-10 4.477-10 10-10 10 4.477 10 10Z"/></svg>