<svg width="650" height="64" viewBox="0 0 650 64" fill="none" xmlns="http://www.w3.org/2000/svg"><path d="M0 10C0 4.47715 4.47715 0 10 0H640C645.523 0 650 4.47715 650 10V30H0V10Z" fill="#E4E5E9"/><ellipse cx="16.8751" cy="18.0618" rx="4.8995" ry="5.02043" fill="#FF492B"/><ellipse cx="32.1175" cy="18.0613" rx="4.8995" ry="5.02043" fill="#FA9531"/><ellipse cx="47.3597" cy="18.0613" rx="4.8995" ry="5.02043" fill="#07B65D"/><path d="M182.372 15.041C182.372 12.2796 184.61 10.041 187.372 10.041H192.07C194.831 10.041 197.07 12.2796 197.07 15.041V20.1023C197.07 22.8637 194.831 25.1023 192.07 25.1023H187.372C184.61 25.1023 182.372 22.8637 182.372 20.1023V15.041Z" fill="#F5F5F7"/><path d="M64 13C64 10.2386 66.2386 8 69 8H169C171.761 8 174 10.2386 174 13V30H64V13Z" fill="#F5F5F7"/><rect x="78.9367" y="16.7343" width="62.6047" height="5.02043" rx="2.51021" fill="#E4E5E9"/><rect x="160.051" y="16.7343" width="5.44389" height="5.57825" rx="2.72194" fill="#E4E5E9"/><rect y="30" width="650" height="34" fill="#EDEFF3"/><rect x="564.53" y="39.4833" width="14.6985" height="15.0613" rx="5" fill="#E4E5E9"/><rect x="584.13" y="39.4833" width="14.6985" height="15.0613" rx="5" fill="#E4E5E9"/><rect x="603.726" y="39.4833" width="14.6985" height="15.0613" rx="5" fill="#E4E5E9"/><rect x="623.327" y="39.4833" width="14.6985" height="15.0613" rx="5" fill="#E4E5E9"/><rect x="48.9935" y="39.4834" width="14.6985" height="15.0613" rx="5" fill="#E4E5E9"/><rect x="29.3958" y="39.4834" width="14.6985" height="15.0613" rx="5" fill="#E4E5E9"/><rect x="9.7977" y="39.4836" width="14.6985" height="15.0613" rx="5" fill="#E4E5E9"/><rect x="76.759" y="36.1364" width="473.618" height="22.313" rx="5" fill="white"/><path d="M100.387 51.9791V48.0658C100.387 47.5727 100.275 47.2047 100.05 46.9618C99.8259 46.719 99.4745 46.5975 98.9961 46.5975C98.3595 46.5975 97.8941 46.7705 97.5997 47.1164C97.309 47.4623 97.1636 48.029 97.1636 48.8164V51.9791H96.2474V43.3907H97.1636V45.9904C97.1636 46.3032 97.1489 46.5626 97.1195 46.7687H97.1747C97.355 46.478 97.6107 46.2498 97.9419 46.0842C98.2767 45.915 98.6576 45.8303 99.0844 45.8303C99.8241 45.8303 100.378 46.007 100.746 46.3602C101.117 46.7098 101.303 47.2673 101.303 48.0326V51.9791H100.387ZM105.145 51.3333C105.307 51.3333 105.463 51.3223 105.614 51.3002C105.765 51.2745 105.885 51.2487 105.973 51.2229V51.9239C105.874 51.9718 105.726 52.0104 105.531 52.0398C105.34 52.073 105.167 52.0895 105.012 52.0895C103.842 52.0895 103.257 51.4732 103.257 50.2405V46.6417H102.391V46.2001L103.257 45.8193L103.644 44.5277H104.173V45.9297H105.929V46.6417H104.173V50.2018C104.173 50.5661 104.26 50.8458 104.433 51.0408C104.606 51.2358 104.843 51.3333 105.145 51.3333ZM109.141 51.3333C109.303 51.3333 109.459 51.3223 109.61 51.3002C109.761 51.2745 109.881 51.2487 109.969 51.2229V51.9239C109.87 51.9718 109.722 52.0104 109.527 52.0398C109.336 52.073 109.163 52.0895 109.009 52.0895C107.838 52.0895 107.253 51.4732 107.253 50.2405V46.6417H106.387V46.2001L107.253 45.8193L107.64 44.5277H108.17V45.9297H109.925V46.6417H108.17V50.2018C108.17 50.5661 108.256 50.8458 108.429 51.0408C108.602 51.2358 108.839 51.3333 109.141 51.3333ZM113.998 52.0895C113.605 52.0895 113.244 52.0178 112.916 51.8743C112.593 51.7271 112.32 51.5026 112.1 51.2009H112.033C112.077 51.5541 112.1 51.889 112.1 52.2054V54.6948H111.183V45.9297H111.928L112.055 46.7576H112.1C112.335 46.4264 112.609 46.1873 112.922 46.0401C113.235 45.8929 113.594 45.8193 113.998 45.8193C114.8 45.8193 115.419 46.0934 115.853 46.6417C116.291 47.19 116.51 47.959 116.51 48.9489C116.51 49.9424 116.287 50.7151 115.842 51.2671C115.4 51.8154 114.786 52.0895 113.998 52.0895ZM113.866 46.5975C113.248 46.5975 112.801 46.7687 112.525 47.1109C112.249 47.4531 112.107 47.9977 112.1 48.7447V48.9489C112.1 49.7989 112.241 50.4079 112.525 50.7759C112.808 51.1402 113.262 51.3223 113.888 51.3223C114.41 51.3223 114.819 51.1107 115.113 50.6875C115.411 50.2644 115.56 49.6811 115.56 48.9378C115.56 48.1835 115.411 47.6058 115.113 47.2047C114.819 46.7999 114.403 46.5975 113.866 46.5975ZM122.018 50.3288C122.018 50.8918 121.808 51.326 121.389 51.6314C120.97 51.9368 120.381 52.0895 119.623 52.0895C118.821 52.0895 118.195 51.9626 117.746 51.7087V50.8587C118.037 51.0058 118.348 51.1218 118.679 51.2064C119.014 51.291 119.336 51.3333 119.645 51.3333C120.123 51.3333 120.491 51.2579 120.749 51.107C121.006 50.9525 121.135 50.7188 121.135 50.406C121.135 50.1705 121.032 49.97 120.826 49.8044C120.624 49.6352 120.226 49.4364 119.634 49.2083C119.071 48.9986 118.67 48.8164 118.431 48.6619C118.195 48.5036 118.018 48.3252 117.901 48.1265C117.787 47.9278 117.73 47.6904 117.73 47.4144C117.73 46.9214 117.93 46.5332 118.331 46.2498C118.732 45.9628 119.282 45.8193 119.982 45.8193C120.633 45.8193 121.269 45.9518 121.891 46.2167L121.566 46.9618C120.958 46.7116 120.408 46.5865 119.915 46.5865C119.481 46.5865 119.154 46.6546 118.933 46.7907C118.712 46.9269 118.602 47.1145 118.602 47.3537C118.602 47.5156 118.642 47.6536 118.723 47.7677C118.808 47.8818 118.942 47.9903 119.126 48.0934C119.31 48.1964 119.663 48.3454 120.186 48.5404C120.903 48.8017 121.387 49.0648 121.637 49.3297C121.891 49.5947 122.018 49.9277 122.018 50.3288ZM123.382 51.3941C123.382 51.1475 123.437 50.9617 123.547 50.8366C123.661 50.7078 123.823 50.6434 124.033 50.6434C124.246 50.6434 124.412 50.7078 124.53 50.8366C124.651 50.9617 124.712 51.1475 124.712 51.3941C124.712 51.6332 124.651 51.8172 124.53 51.946C124.408 52.0748 124.243 52.1392 124.033 52.1392C123.845 52.1392 123.689 52.0822 123.564 51.9681C123.442 51.8503 123.382 51.659 123.382 51.3941ZM123.382 46.5203C123.382 46.0235 123.599 45.7751 124.033 45.7751C124.485 45.7751 124.712 46.0235 124.712 46.5203C124.712 46.7595 124.651 46.9434 124.53 47.0722C124.408 47.201 124.243 47.2654 124.033 47.2654C123.845 47.2654 123.689 47.2084 123.564 47.0943C123.442 46.9766 123.382 46.7852 123.382 46.5203ZM129.591 43.9095L126.583 51.9791H125.667L128.675 43.9095H129.591ZM133.742 43.9095L130.734 51.9791H129.817L132.826 43.9095H133.742ZM139.769 51.9791L138.66 48.43C138.59 48.2129 138.459 47.7199 138.268 46.9508H138.224C138.076 47.5948 137.948 48.0915 137.837 48.4411L136.695 51.9791H135.635L133.985 45.9297H134.945C135.335 47.4494 135.631 48.6067 135.834 49.4015C136.04 50.1963 136.158 50.7317 136.187 51.0077H136.231C136.272 50.7979 136.336 50.5275 136.424 50.1963C136.516 49.8615 136.595 49.5965 136.662 49.4015L137.771 45.9297H138.765L139.846 49.4015C140.052 50.0344 140.192 50.5661 140.266 50.9966H140.31C140.325 50.8642 140.363 50.6599 140.426 50.384C140.492 50.108 140.877 48.6232 141.58 45.9297H142.529L140.857 51.9791H139.769ZM148.567 51.9791L147.458 48.43C147.388 48.2129 147.257 47.7199 147.066 46.9508H147.022C146.875 47.5948 146.746 48.0915 146.635 48.4411L145.493 51.9791H144.433L142.783 45.9297H143.743C144.133 47.4494 144.43 48.6067 144.632 49.4015C144.838 50.1963 144.956 50.7317 144.985 51.0077H145.029C145.07 50.7979 145.134 50.5275 145.222 50.1963C145.314 49.8615 145.394 49.5965 145.46 49.4015L146.569 45.9297H147.563L148.645 49.4015C148.851 50.0344 148.991 50.5661 149.064 50.9966H149.108C149.123 50.8642 149.162 50.6599 149.224 50.384C149.29 50.108 149.675 48.6232 150.378 45.9297H151.327L149.655 51.9791H148.567ZM157.366 51.9791L156.256 48.43C156.186 48.2129 156.056 47.7199 155.864 46.9508H155.82C155.673 47.5948 155.544 48.0915 155.434 48.4411L154.291 51.9791H153.231L151.581 45.9297H152.541C152.931 47.4494 153.228 48.6067 153.43 49.4015C153.636 50.1963 153.754 50.7317 153.783 51.0077H153.827C153.868 50.7979 153.932 50.5275 154.021 50.1963C154.113 49.8615 154.192 49.5965 154.258 49.4015L155.367 45.9297H156.361L157.443 49.4015C157.649 50.0344 157.789 50.5661 157.862 50.9966H157.906C157.921 50.8642 157.96 50.6599 158.022 50.384C158.089 50.108 158.473 48.6232 159.176 45.9297H160.125L158.453 51.9791H157.366ZM161.091 51.3941C161.091 51.1475 161.146 50.9617 161.257 50.8366C161.371 50.7078 161.533 50.6434 161.743 50.6434C161.956 50.6434 162.122 50.7078 162.239 50.8366C162.361 50.9617 162.421 51.1475 162.421 51.3941C162.421 51.6332 162.361 51.8172 162.239 51.946C162.118 52.0748 161.952 52.1392 161.743 52.1392C161.555 52.1392 161.398 52.0822 161.273 51.9681C161.152 51.8503 161.091 51.659 161.091 51.3941ZM163.277 45.9297H164.259L165.584 49.3794C165.875 50.1669 166.055 50.7354 166.125 51.085H166.169C166.217 50.8973 166.316 50.5772 166.467 50.1246C166.622 49.6683 167.122 48.27 167.969 45.9297H168.951L166.351 52.8181C166.094 53.4988 165.792 53.9809 165.446 54.2642C165.104 54.5512 164.683 54.6948 164.182 54.6948C163.903 54.6948 163.627 54.6635 163.354 54.6009V53.8668C163.557 53.911 163.783 53.9331 164.033 53.9331C164.662 53.9331 165.111 53.5798 165.38 52.8733L165.717 52.0122L163.277 45.9297ZM175.155 48.9489C175.155 49.935 174.907 50.7059 174.41 51.2616C173.913 51.8135 173.227 52.0895 172.351 52.0895C171.81 52.0895 171.33 51.9626 170.911 51.7087C170.491 51.4548 170.167 51.0905 169.939 50.6158C169.711 50.1411 169.597 49.5855 169.597 48.9489C169.597 47.9627 169.843 47.1955 170.337 46.6472C170.83 46.0953 171.514 45.8193 172.39 45.8193C173.236 45.8193 173.908 46.1008 174.404 46.6638C174.905 47.2268 175.155 47.9885 175.155 48.9489ZM170.546 48.9489C170.546 49.7216 170.701 50.3104 171.01 50.7151C171.319 51.1199 171.773 51.3223 172.373 51.3223C172.973 51.3223 173.427 51.1218 173.737 50.7207C174.049 50.3159 174.206 49.7253 174.206 48.9489C174.206 48.1798 174.049 47.5966 173.737 47.1992C173.427 46.7981 172.969 46.5975 172.362 46.5975C171.762 46.5975 171.31 46.7944 171.004 47.1881C170.699 47.5819 170.546 48.1688 170.546 48.9489ZM177.628 45.9297V49.8541C177.628 50.3472 177.74 50.7151 177.965 50.958C178.189 51.2009 178.54 51.3223 179.019 51.3223C179.652 51.3223 180.113 51.1494 180.404 50.8035C180.699 50.4576 180.846 49.8927 180.846 49.109V45.9297H181.762V51.9791H181.006L180.873 51.1677H180.824C180.636 51.4658 180.375 51.6939 180.04 51.8522C179.709 52.0104 179.33 52.0895 178.903 52.0895C178.167 52.0895 177.615 51.9147 177.247 51.5652C176.883 51.2156 176.701 50.6563 176.701 49.8872V45.9297H177.628ZM185.664 51.3333C185.826 51.3333 185.983 51.3223 186.134 51.3002C186.284 51.2745 186.404 51.2487 186.492 51.2229V51.9239C186.393 51.9718 186.246 52.0104 186.051 52.0398C185.859 52.073 185.686 52.0895 185.532 52.0895C184.362 52.0895 183.777 51.4732 183.777 50.2405V46.6417H182.91V46.2001L183.777 45.8193L184.163 44.5277H184.693V45.9297H186.448V46.6417H184.693V50.2018C184.693 50.5661 184.779 50.8458 184.952 51.0408C185.125 51.2358 185.363 51.3333 185.664 51.3333ZM188.568 45.9297V49.8541C188.568 50.3472 188.68 50.7151 188.904 50.958C189.129 51.2009 189.48 51.3223 189.959 51.3223C190.591 51.3223 191.053 51.1494 191.344 50.8035C191.638 50.4576 191.786 49.8927 191.786 49.109V45.9297H192.702V51.9791H191.946L191.813 51.1677H191.763C191.576 51.4658 191.315 51.6939 190.98 51.8522C190.649 52.0104 190.269 52.0895 189.843 52.0895C189.107 52.0895 188.555 51.9147 188.187 51.5652C187.822 51.2156 187.64 50.6563 187.64 49.8872V45.9297H188.568ZM197.465 45.8303C198.26 45.8303 198.876 46.1026 199.314 46.6472C199.756 47.1881 199.977 47.9554 199.977 48.9489C199.977 49.9424 199.754 50.7151 199.309 51.2671C198.867 51.8154 198.253 52.0895 197.465 52.0895C197.071 52.0895 196.711 52.0178 196.383 51.8743C196.06 51.7271 195.787 51.5026 195.566 51.2009H195.5L195.307 51.9791H194.65V43.3907H195.566V45.4771C195.566 45.9444 195.552 46.3639 195.522 46.7355H195.566C195.993 46.1321 196.626 45.8303 197.465 45.8303ZM197.333 46.5975C196.707 46.5975 196.256 46.7779 195.98 47.1385C195.704 47.4954 195.566 48.0989 195.566 48.9489C195.566 49.7989 195.708 50.4079 195.991 50.7759C196.275 51.1402 196.729 51.3223 197.355 51.3223C197.918 51.3223 198.337 51.1181 198.613 50.7096C198.889 50.2975 199.027 49.7069 199.027 48.9378C199.027 48.1504 198.889 47.5635 198.613 47.1771C198.337 46.7907 197.91 46.5975 197.333 46.5975ZM204.138 52.0895C203.244 52.0895 202.538 51.8172 202.019 51.2726C201.504 50.728 201.246 49.9718 201.246 49.0041C201.246 48.029 201.485 47.2544 201.964 46.6803C202.446 46.1063 203.091 45.8193 203.901 45.8193C204.659 45.8193 205.259 46.0695 205.7 46.57C206.142 47.0667 206.363 47.7235 206.363 48.5404V49.12H202.195C202.214 49.8302 202.392 50.3693 202.731 50.7372C203.073 51.1052 203.553 51.2892 204.171 51.2892C204.823 51.2892 205.467 51.153 206.103 50.8807V51.6976C205.779 51.8375 205.472 51.9368 205.182 51.9957C204.895 52.0582 204.547 52.0895 204.138 52.0895ZM203.89 46.5865C203.404 46.5865 203.016 46.7447 202.725 47.0612C202.438 47.3776 202.269 47.8155 202.218 48.3748H205.38C205.38 47.7971 205.251 47.3556 204.994 47.0502C204.736 46.7411 204.368 46.5865 203.89 46.5865ZM207.798 51.3941C207.798 51.1475 207.853 50.9617 207.963 50.8366C208.077 50.7078 208.239 50.6434 208.449 50.6434C208.663 50.6434 208.828 50.7078 208.946 50.8366C209.067 50.9617 209.128 51.1475 209.128 51.3941C209.128 51.6332 209.067 51.8172 208.946 51.946C208.824 52.0748 208.659 52.1392 208.449 52.1392C208.261 52.1392 208.105 52.0822 207.98 51.9681C207.859 51.8503 207.798 51.659 207.798 51.3941ZM213.362 52.0895C212.486 52.0895 211.807 51.8209 211.325 51.2837C210.846 50.7427 210.607 49.9792 210.607 48.993C210.607 47.9811 210.85 47.1992 211.336 46.6472C211.825 46.0953 212.521 45.8193 213.422 45.8193C213.713 45.8193 214.004 45.8506 214.294 45.9131C214.585 45.9757 214.813 46.0493 214.979 46.1339L214.697 46.9122C214.495 46.8312 214.274 46.765 214.035 46.7135C213.796 46.6583 213.584 46.6307 213.4 46.6307C212.171 46.6307 211.557 47.4144 211.557 48.982C211.557 49.7253 211.706 50.2957 212.004 50.6931C212.305 51.0905 212.751 51.2892 213.339 51.2892C213.844 51.2892 214.361 51.1806 214.89 50.9635V51.7749C214.486 51.9846 213.976 52.0895 213.362 52.0895ZM221.553 48.9489C221.553 49.935 221.304 50.7059 220.807 51.2616C220.311 51.8135 219.624 52.0895 218.749 52.0895C218.208 52.0895 217.727 51.9626 217.308 51.7087C216.889 51.4548 216.565 51.0905 216.337 50.6158C216.108 50.1411 215.994 49.5855 215.994 48.9489C215.994 47.9627 216.241 47.1955 216.734 46.6472C217.227 46.0953 217.911 45.8193 218.787 45.8193C219.634 45.8193 220.305 46.1008 220.802 46.6638C221.302 47.2268 221.553 47.9885 221.553 48.9489ZM216.944 48.9489C216.944 49.7216 217.098 50.3104 217.407 50.7151C217.716 51.1199 218.171 51.3223 218.771 51.3223C219.37 51.3223 219.825 51.1218 220.134 50.7207C220.447 50.3159 220.603 49.7253 220.603 48.9489C220.603 48.1798 220.447 47.5966 220.134 47.1992C219.825 46.7981 219.367 46.5975 218.76 46.5975C218.16 46.5975 217.707 46.7944 217.402 47.1881C217.096 47.5819 216.944 48.1688 216.944 48.9489ZM230.875 51.9791V48.0437C230.875 47.5616 230.772 47.201 230.566 46.9618C230.36 46.719 230.04 46.5975 229.606 46.5975C229.035 46.5975 228.614 46.7613 228.342 47.0888C228.069 47.4163 227.933 47.9204 227.933 48.6012V51.9791H227.017V48.0437C227.017 47.5616 226.914 47.201 226.708 46.9618C226.502 46.719 226.18 46.5975 225.742 46.5975C225.168 46.5975 224.747 46.7705 224.478 47.1164C224.213 47.4586 224.081 48.0216 224.081 48.8054V51.9791H223.164V45.9297H223.909L224.058 46.7576H224.103C224.276 46.4632 224.518 46.2333 224.831 46.0677C225.148 45.9021 225.501 45.8193 225.891 45.8193C226.837 45.8193 227.455 46.1615 227.746 46.8459H227.79C227.97 46.5295 228.231 46.2793 228.573 46.0953C228.916 45.9113 229.306 45.8193 229.744 45.8193C230.428 45.8193 230.939 45.9959 231.278 46.3492C231.62 46.6987 231.791 47.2599 231.791 48.0326V51.9791H230.875ZM236.748 43.9095L233.74 51.9791H232.824L235.832 43.9095H236.748Z" fill="#65676B"/><path d="M88.586 45.8102H88.169V44.9587C88.169 43.7838 87.2349 42.8302 86.084 42.8302C84.933 42.8302 83.9989 43.7838 83.9989 44.9587V45.8102H83.5819C83.1232 45.8102 82.7479 46.1933 82.7479 46.6616V50.9187C82.7479 51.3869 83.1232 51.7701 83.5819 51.7701H88.586C89.0447 51.7701 89.42 51.3869 89.42 50.9187V46.6616C89.42 46.1933 89.0447 45.8102 88.586 45.8102ZM87.3767 45.8102H84.7913V44.9587C84.7913 44.2308 85.3709 43.639 86.084 43.639C86.7971 43.639 87.3767 44.2308 87.3767 44.9587V45.8102Z" fill="#8C9097"/></svg>