<svg width="78" height="78" viewBox="0 0 78 78" fill="none" xmlns="http://www.w3.org/2000/svg">
<path fill-rule="evenodd" clip-rule="evenodd" d="M66 38C67.1046 38 68 38.8954 68 40C68 45.8899 66.2663 51.6494 63.0149 56.5606C59.7636 61.4717 55.1386 65.3172 49.7165 67.6175C44.2944 69.9177 38.3151 70.5711 32.5242 69.496C26.7333 68.421 21.3869 65.6651 17.1517 61.572C16.3575 60.8044 16.3359 59.5382 17.1035 58.7439C17.8711 57.9497 19.1372 57.9281 19.9315 58.6957C23.602 62.2431 28.2355 64.6315 33.2543 65.5632C38.2731 66.4949 43.4551 65.9287 48.1543 63.9351C52.8534 61.9416 56.8618 58.6088 59.6796 54.3525C62.4974 50.0962 64 45.1045 64 40C64 38.8954 64.8954 38 66 38Z" fill="#050505"/>
<path d="M64 40C64 54.3594 52.3594 66 38 66C23.6406 66 12 54.3594 12 40C12 25.6406 23.6406 14 38 14C52.3594 14 64 25.6406 64 40Z" fill="#F07702"/>
<path d="M50 4C50 1.79086 51.7909 0 54 0H74C76.2091 0 78 1.79086 78 4V24C78 26.2091 76.2091 28 74 28H54C51.7909 28 50 26.2091 50 24V4Z" fill="#2570ED"/>
<path fill-rule="evenodd" clip-rule="evenodd" d="M27.4142 50.5858C28.1953 51.3668 28.1953 52.6332 27.4142 53.4142L3.41421 77.4142C2.63317 78.1953 1.36683 78.1953 0.585786 77.4142C-0.195262 76.6332 -0.195262 75.3668 0.585786 74.5858L24.5858 50.5858C25.3668 49.8047 26.6332 49.8047 27.4142 50.5858Z" fill="#050505"/>
<path fill-rule="evenodd" clip-rule="evenodd" d="M56.5858 45.4142C55.8047 44.6332 55.8047 43.3668 56.5858 42.5858L64.5858 34.5858C65.3668 33.8047 66.6332 33.8047 67.4142 34.5858L75.4142 42.5858C76.1953 43.3668 76.1953 44.6332 75.4142 45.4142C74.6332 46.1953 73.3668 46.1953 72.5858 45.4142L66 38.8284L59.4142 45.4142C58.6332 46.1953 57.3668 46.1953 56.5858 45.4142Z" fill="#050505"/>
</svg>
