<svg width="80" height="80" viewBox="0 0 80 80" fill="none" xmlns="http://www.w3.org/2000/svg">
<path fill-rule="evenodd" clip-rule="evenodd" d="M68 52C69.1046 52 70 51.1046 70 50V20C70 14.4772 65.5228 10 60 10L31 10C29.8954 10 29 10.8954 29 12C29 13.1046 29.8954 14 31 14L60 14C63.3137 14 66 16.6863 66 20V50C66 51.1046 66.8954 52 68 52Z" fill="#050505"/>
<path fill-rule="evenodd" clip-rule="evenodd" d="M12 28C10.8954 28 10 28.8954 10 30L10 56C10 63.732 16.268 70 24 70H49C50.1046 70 51 69.1046 51 68C51 66.8954 50.1046 66 49 66H24C18.4772 66 14 61.5228 14 56L14 30C14 28.8954 13.1046 28 12 28Z" fill="#050505"/>
<path fill-rule="evenodd" clip-rule="evenodd" d="M24.6927 3.04482C29.5457 1.03463 34.7471 0 40 0V28C39.9999 28 40.0001 28 40 28C33.3726 28 27.9997 33.3726 27.9997 40L0 40C0 34.7471 1.03463 29.5457 3.04482 24.6927C5.05501 19.8396 8.00138 15.4301 11.7157 11.7157C15.4301 8.00139 19.8396 5.05501 24.6927 3.04482Z" fill="#FEC200"/>
<path fill-rule="evenodd" clip-rule="evenodd" d="M40 52C46.6273 51.9998 51.9997 46.6273 51.9997 40L80 40C80 45.2529 78.9654 50.4543 76.9552 55.3073C74.945 60.1604 71.9986 64.5699 68.2843 68.2843C64.5699 71.9986 60.1604 74.945 55.3073 76.9552C50.4543 78.9654 45.2529 80 40 80V52Z" fill="#F07702"/>
<path fill-rule="evenodd" clip-rule="evenodd" d="M40 60C51.0457 60 60 51.0457 60 40C60 28.9543 51.0457 20 40 20C28.9543 20 20 28.9543 20 40C20 51.0457 28.9543 60 40 60ZM40 50C45.5229 50 50 45.5229 50 40C50 34.4772 45.5229 30 40 30C34.4772 30 30 34.4772 30 40C30 45.5229 34.4772 50 40 50Z" fill="#2570ED"/>
</svg>
