<svg width="80" height="80" viewBox="0 0 80 80" fill="none" xmlns="http://www.w3.org/2000/svg">
<path d="M76 62C76 69.732 69.732 76 62 76C54.268 76 48 69.732 48 62C48 54.268 54.268 48 62 48C69.732 48 76 54.268 76 62Z" fill="#FEC200"/>
<path fill-rule="evenodd" clip-rule="evenodd" d="M40 28C46.6273 28.0002 51.9997 33.3727 51.9997 40L80 40C80 34.7471 78.9654 29.5457 76.9552 24.6927C74.945 19.8396 71.9986 15.4301 68.2843 11.7157C64.5699 8.00138 60.1604 5.055 55.3073 3.04482C50.4543 1.03463 45.2529 -3.8147e-06 40 -3.8147e-06L40 28Z" fill="#2570ED"/>
<path d="M42 16L64 16L64 38L42 16Z" fill="#2570ED"/>
<path d="M64 40C64 53.2548 53.2548 64 40 64C26.7452 64 16 53.2548 16 40C16 26.7452 26.7452 16 40 16C53.2548 16 64 26.7452 64 40Z" fill="#F07702"/>
<path fill-rule="evenodd" clip-rule="evenodd" d="M52.7023 6.31542C46.1993 3.86316 39.1254 3.34571 32.3348 4.82553C25.5441 6.30535 19.327 9.71919 14.4339 14.6549C9.54089 19.5906 6.18115 25.8371 4.76032 32.6404C3.3395 39.4436 3.91833 46.5127 6.42694 52.9942C8.93556 59.4757 13.2667 65.0925 18.8975 69.1665C24.5282 73.2405 31.2179 75.5975 38.1588 75.9529C39.262 76.0094 40.1104 76.9494 40.0539 78.0526C39.9975 79.1557 39.0574 80.0042 37.9543 79.9477C30.2421 79.5527 22.8092 76.9338 16.5527 72.4072C10.2963 67.8805 5.48395 61.6397 2.6966 54.438C-0.090745 47.2363 -0.733894 39.3818 0.844802 31.8226C2.4235 24.2635 6.15654 17.3229 11.5933 11.8388C17.03 6.35465 23.9379 2.5615 31.4831 0.917254C39.0283 -0.726995 46.8881 -0.152048 54.1137 2.57269C61.3393 5.29742 67.6217 10.0554 72.2025 16.2723C76.7832 22.4892 79.4665 29.8992 79.9284 37.6076C79.9945 38.7102 79.1542 39.6576 78.0516 39.7236C76.949 39.7897 76.0016 38.9494 75.9356 37.8469C75.5199 30.9093 73.1049 24.2403 68.9822 18.6451C64.8595 13.0499 59.2053 8.76768 52.7023 6.31542Z" fill="#050505"/>
<path fill-rule="evenodd" clip-rule="evenodd" d="M27 29C27 27.8954 27.8954 27 29 27H51C51.5663 27 52.1061 27.2401 52.4853 27.6607C52.8646 28.0813 53.0477 28.6429 52.9893 29.2062L50.5747 52.4979C50.4925 53.2908 49.9473 53.9592 49.1871 54.199L40.6017 56.9073C40.2101 57.0309 39.7899 57.0309 39.3983 56.9073L30.8129 54.199C30.0571 53.9606 29.5134 53.2983 29.4266 52.5105L28.8901 47.6355C28.7692 46.5375 29.5613 45.5495 30.6592 45.4287C31.7572 45.3078 32.7452 46.0999 32.866 47.1979L33.26 50.7766L40 52.9028L46.7314 50.7794L47.5746 42.6458H30.0732C28.9686 42.6458 28.0732 41.7504 28.0732 40.6458C28.0732 39.5413 28.9686 38.6458 30.0732 38.6458H47.9893L48.7819 31H29C27.8954 31 27 30.1046 27 29Z" fill="#050505"/>
</svg>
