<svg width="72" height="72" viewBox="0 0 72 72" fill="none" xmlns="http://www.w3.org/2000/svg">
<path fill-rule="evenodd" clip-rule="evenodd" d="M12 0C5.37258 0 0 5.37258 0 12V52C0 58.6274 5.37258 64 12 64H52C58.6274 64 64 58.6274 64 52V12C64 5.37258 58.6274 0 52 0H12ZM38.9184 50H47L35.199 29.9316L46.9082 14H39.0102L29.9184 26.238C29.4439 26.9439 28.977 27.6498 28.5179 28.3557C28.0587 29.0616 27.5918 29.7674 27.1173 30.4733V14H20V50H27.1173V37.1464L30.125 34.8317L38.9184 50Z" fill="#2570ED"/>
<path d="M72 44.8284V70C72 71.1046 71.1046 72 70 72H44.8284C43.0466 72 42.1543 69.8457 43.4142 68.5858L68.5858 43.4142C69.8457 42.1543 72 43.0466 72 44.8284Z" fill="#FEC200"/>
</svg>
