<svg width="72" height="76" viewBox="0 0 72 76" fill="none" xmlns="http://www.w3.org/2000/svg">
<path d="M0 8C0 3.58172 3.58172 0 8 0H64C68.4183 0 72 3.58172 72 8V28C72 32.4183 68.4183 36 64 36H8C3.58172 36 0 32.4183 0 28V8Z" fill="#2570ED"/>
<path d="M8 28C8 23.5817 11.5817 20 16 20H56C60.4183 20 64 23.5817 64 28V48C64 52.4183 60.4183 56 56 56H16C11.5817 56 8 52.4183 8 48V28Z" fill="#FEC200"/>
<path fill-rule="evenodd" clip-rule="evenodd" d="M42 44H30C25.5817 44 22 47.5817 22 52V64C22 68.4183 25.5817 72 30 72H42C46.4183 72 50 68.4183 50 64V52C50 47.5817 46.4183 44 42 44ZM30 40C23.3726 40 18 45.3726 18 52V64C18 70.6274 23.3726 76 30 76H42C48.6274 76 54 70.6274 54 64V52C54 45.3726 48.6274 40 42 40H30Z" fill="#050505"/>
</svg>
