<svg width="72" height="72" viewBox="0 0 72 72" fill="none" xmlns="http://www.w3.org/2000/svg">
<path d="M22 8C22 3.58172 25.5817 0 30 0H64C68.4183 0 72 3.58172 72 8V42C72 46.4183 68.4183 50 64 50H30C25.5817 50 22 46.4183 22 42V8Z" fill="#2570ED"/>
<path d="M12 22C12 15.3726 17.3726 10 24 10H50C56.6274 10 62 15.3726 62 22V48C62 54.6274 56.6274 60 50 60H24C17.3726 60 12 54.6274 12 48V22Z" fill="#FEC200"/>
<path d="M0 34C0 27.3726 5.37258 22 12 22H38C44.6274 22 50 27.3726 50 34V60C50 66.6274 44.6274 72 38 72H12C5.37258 72 0 66.6274 0 60V34Z" fill="#F07702"/>
</svg>
