<svg width="76" height="76" viewBox="0 0 76 76" fill="none" xmlns="http://www.w3.org/2000/svg">
<path fill-rule="evenodd" clip-rule="evenodd" d="M64 36V66C64 67.1046 64.8954 68 66 68C67.1046 68 68 67.1046 68 66V36C68 30.4771 63.5228 26 58 26L29 26C27.8954 26 27 26.8954 27 28C27 29.1046 27.8954 30 29 30L58 30C61.3137 30 64 32.6863 64 36Z" fill="#050505"/>
<path fill-rule="evenodd" clip-rule="evenodd" d="M28 26C26.8954 26 26 26.8954 26 28L26 58C26 63.5228 30.4772 68 36 68L66 68C67.1046 68 68 67.1046 68 66C68 64.8954 67.1046 64 66 64L36 64C32.6863 64 30 61.3137 30 58L30 28C30 26.8954 29.1046 26 28 26Z" fill="#050505"/>
<path d="M0 8C0 3.58172 3.58172 0 8 0H48C52.4183 0 56 3.58172 56 8V46C56 50.4183 52.4183 54 48 54H8C3.58172 54 0 50.4183 0 46V8Z" fill="#FEC200"/>
<path fill-rule="evenodd" clip-rule="evenodd" d="M29.3926 14.0388C30.4757 14.2555 31.1781 15.3091 30.9614 16.3923L26.9612 36.3922C26.7445 37.4754 25.6909 38.1778 24.6077 37.9611C23.5246 37.7445 22.8222 36.6908 23.0388 35.6077L27.0391 15.6077C27.2558 14.5246 28.3094 13.8222 29.3926 14.0388Z" fill="#050505"/>
<path fill-rule="evenodd" clip-rule="evenodd" d="M20.6641 16.8906C20.0514 15.9715 18.8097 15.7232 17.8906 16.3359L7.13867 23.5038C5.35747 24.6913 5.35748 27.3087 7.13867 28.4961L17.8906 35.6641C18.8097 36.2768 20.0514 36.0284 20.6641 35.1094C21.2768 34.1903 21.0285 32.9486 20.1094 32.3359L10.6056 26L20.1094 19.6641C21.0285 19.0514 21.2768 17.8096 20.6641 16.8906Z" fill="#050505"/>
<path fill-rule="evenodd" clip-rule="evenodd" d="M33.3359 16.8906C33.9486 15.9715 35.1903 15.7232 36.1094 16.3359L46.8613 23.5038C48.6425 24.6913 48.6425 27.3087 46.8613 28.4961L36.1094 35.6641C35.1903 36.2768 33.9486 36.0284 33.3359 35.1094C32.7232 34.1903 32.9715 32.9486 33.8906 32.3359L43.3945 26L33.8906 19.6641C32.9715 19.0514 32.7232 17.8096 33.3359 16.8906Z" fill="#050505"/>
<path d="M76 66C76 71.5229 71.5229 76 66 76C60.4772 76 56 71.5229 56 66C56 60.4772 60.4772 56 66 56C71.5229 56 76 60.4772 76 66Z" fill="#2570ED"/>
</svg>
