<?xml version="1.0" encoding="UTF-8" standalone="no"?>
<!DOCTYPE svg PUBLIC "-//W3C//DTD SVG 1.1//EN" "http://www.w3.org/Graphics/SVG/1.1/DTD/svg11.dtd">
<svg width="100%" height="100%" viewBox="0 0 48 48" version="1.1" xmlns="http://www.w3.org/2000/svg" xmlns:xlink="http://www.w3.org/1999/xlink" xml:space="preserve" xmlns:serif="http://www.serif.com/" style="fill-rule:evenodd;clip-rule:evenodd;stroke-linejoin:round;stroke-miterlimit:2;">
    <g id="Artboard1" transform="matrix(0.773476,0,0,0.755889,-322.483,-314.284)">
            <g transform="matrix(0.12313,-1.92952e-16,-1.88564e-16,-0.125995,-149.289,515.156)">
                <g transform="matrix(0.10252,0,9.94007e-32,0.10252,4574.93,261.222)">
                    <path d="M1955,3490C1890,3457 1854,3369 1874,3290C1878,3270 1977,3163 2166,2974L2451,2688L2166,2402C1977,2213 1878,2106 1874,2086C1862,2041 1874,1969 1899,1934C1939,1877 2043,1850 2103,1881C2116,1887 2253,2018 2407,2172L2688,2451L2974,2166C3163,1977 3270,1878 3290,1874C3335,1862 3407,1874 3442,1899C3499,1939 3526,2043 3495,2103C3489,2116 3358,2253 3204,2407L2924,2688L3204,2969C3358,3123 3489,3260 3495,3273C3526,3333 3499,3437 3442,3477C3407,3502 3335,3514 3290,3502C3270,3498 3163,3399 2974,3210L2688,2925L2407,3204C2253,3358 2116,3489 2103,3495C2070,3512 1995,3509 1955,3490Z" />
                </g>
                <g transform="matrix(0.0939423,0,3.70537e-32,0.0939423,4598.01,284.118)">
                    <path d="M2483,5370C2466,5367 2407,5360 2352,5354C2124,5328 1849,5253 1617,5154C1001,4889 487,4375 222,3759C125,3533 55,3277 19,3024C1,2893 1,2483 19,2352C105,1741 365,1211 788,788C1095,481 1456,260 1872,127C2153,38 2368,5 2688,5C3008,5 3223,38 3504,127C4092,315 4576,681 4924,1198C5154,1540 5296,1921 5357,2352C5375,2483 5375,2893 5357,3024C5271,3635 5011,4165 4588,4588C4174,5002 3654,5262 3061,5351C2961,5366 2551,5379 2483,5370ZM3024,4930C3510,4855 3940,4638 4289,4289C4641,3937 4854,3513 4931,3014C4944,2929 4950,2832 4950,2688C4950,2544 4944,2447 4931,2363C4854,1863 4641,1439 4289,1087C3937,735 3513,522 3014,445C2848,419 2528,419 2363,445C1863,522 1439,735 1087,1087C735,1439 522,1863 445,2363C419,2528 419,2848 445,3014C522,3513 735,3937 1087,4289C1476,4678 1931,4888 2515,4950C2599,4958 2917,4946 3024,4930Z" />
                </g>
            </g>
    </g>
</svg>
