<?xml version="1.0" standalone="no"?>
<!DOCTYPE svg PUBLIC "-//W3C//DTD SVG 20010904//EN"
 "http://www.w3.org/TR/2001/REC-SVG-20010904/DTD/svg10.dtd">
<svg version="1.0" xmlns="http://www.w3.org/2000/svg"
 width="479.559443pt" height="479.518246pt" viewBox="0 0 479.559443 479.518246"
 preserveAspectRatio="xMidYMid meet">
<g transform="translate(-15.940557,496.018246) rotate(-360.00) scale(0.095238,-0.095238)" stroke="none">
<path d="M611 5193 c-204 -50 -389 -240 -431 -445 -17 -78 -17 -2855 0 -2934
33 -162 161 -325 314 -398 103 -50 162 -62 326 -62 l136 1 0 194 0 194 -101 0
c-55 0 -122 5 -149 12 -64 16 -121 74 -137 138 -18 69 -18 2708 0 2777 16 64
73 121 137 137 69 18 2708 18 2777 0 64 -16 122 -73 138 -137 7 -27 12 -92 12
-144 l0 -95 194 0 195 0 0 131 c-1 157 -12 217 -60 320 -72 150 -238 281 -400
314 -86 18 -2876 15 -2951 -3z"/>
<path d="M1822 4020 c-95 -18 -224 -89 -301 -165 -79 -80 -147 -207 -166 -311
-15 -86 -15 -2802 0 -2888 17 -92 84 -224 151 -296 63 -68 141 -119 245 -159
l71 -28 1454 0 1454 0 71 28 c193 75 312 197 378 386 l24 69 0 1449 0 1449
-28 71 c-40 104 -91 182 -159 245 -72 67 -204 134 -296 151 -79 14 -2821 13
-2898 -1z m2869 -403 c52 -22 75 -44 98 -94 19 -40 20 -105 20 -1423 0 -1318
-1 -1383 -20 -1423 -23 -50 -46 -72 -98 -94 -34 -14 -200 -16 -1417 -16 -1315
0 -1381 1 -1421 20 -50 23 -72 46 -94 98 -14 34 -16 200 -16 1415 0 1215 2
1381 16 1415 22 52 44 75 94 98 40 19 106 20 1421 20 1217 0 1383 -2 1417 -16z"/>
</g>
</svg>
