<?xml version="1.0" encoding="UTF-8" standalone="no"?>
<!DOCTYPE svg PUBLIC "-//W3C//DTD SVG 1.1//EN" "http://www.w3.org/Graphics/SVG/1.1/DTD/svg11.dtd">
<svg width="100%" height="100%" viewBox="0 0 18 14" version="1.1" xmlns="http://www.w3.org/2000/svg" xmlns:xlink="http://www.w3.org/1999/xlink" xml:space="preserve" xmlns:serif="http://www.serif.com/" style="fill-rule:evenodd;clip-rule:evenodd;stroke-linecap:round;stroke-linejoin:round;">
    <g transform="matrix(1,0,0,1,-3,-5)">
        <path d="M21,12L16.65,18.15C16.467,18.417 16.229,18.625 15.938,18.775C15.646,18.925 15.333,19 15,19L5,19C4.45,19 3.979,18.804 3.588,18.413C3.196,18.021 3,17.55 3,17L3,7C3,6.45 3.196,5.979 3.588,5.588C3.979,5.196 4.45,5 5,5L15,5C15.333,5 15.646,5.075 15.938,5.225C16.229,5.375 16.467,5.583 16.65,5.85L21,12Z" style="fill:rgb(101,103,107);fill-rule:nonzero;"/>
    </g>
    <g transform="matrix(1,0,0,1,-3,-5)">
        <path d="M11,8.667L11,15.333" style="fill:none;fill-rule:nonzero;stroke:white;stroke-width:1.5px;"/>
    </g>
    <g transform="matrix(1,0,0,1,-3,-5)">
        <path d="M7.667,12.001L14.333,12.001" style="fill:none;fill-rule:nonzero;stroke:white;stroke-width:1.5px;"/>
    </g>
</svg>
