<?xml version="1.0" encoding="utf-8"?>
<svg xmlns="http://www.w3.org/2000/svg" xmlns:xlink="http://www.w3.org/1999/xlink" x="0px" y="0px" viewBox="0 0 24 24" xml:space="preserve" style="fill-rule:evenodd">
<path class="st0" d="M12,21.1c-0.4,0-0.8-0.3-0.8-0.8V3.6c0-0.4,0.3-0.8,0.8-0.8s0.8,0.3,0.8,0.8v16.8C12.8,20.8,12.4,21.1,12,21.1z
	"/>
<path class="st0" d="M13.8,18H7.8c-0.4,0-0.8-0.3-0.8-0.8s0.3-0.8,0.8-0.8h5.9c0.4,0,0.9-0.2,1.2-0.5c0.3-0.4,0.5-0.8,0.5-1.3
	s-0.2-1-0.5-1.3c-0.3-0.3-0.7-0.5-1.2-0.5h-3.5c-0.9,0-1.7-0.4-2.3-1c-0.6-0.6-0.9-1.5-0.9-2.4S7.4,7.7,8,7c0.6-0.6,1.4-1,2.3-1h5.2
	c0.4,0,0.8,0.3,0.8,0.8c0,0.4-0.3,0.8-0.8,0.8h-5.2C9.8,7.5,9.4,7.7,9.1,8C8.7,8.4,8.6,8.9,8.6,9.4s0.2,1,0.5,1.3
	c0.3,0.3,0.7,0.5,1.2,0.5h3.5c0.9,0,1.7,0.4,2.3,1c0.6,0.6,0.9,1.5,0.9,2.4S16.6,16.4,16,17C15.4,17.6,14.6,18,13.8,18z"/>
</svg>
