<svg width="100%" height="100%" viewBox="0 0 20 20" version="1.1" xmlns="http://www.w3.org/2000/svg" xmlns:xlink="http://www.w3.org/1999/xlink" xml:space="preserve" xmlns:serif="http://www.serif.com/" style="fill-rule:evenodd;clip-rule:evenodd;stroke-linejoin:round;stroke-miterlimit:2;">
    <g transform="matrix(1.14286,0,0,1.14286,-1.42857,-1.42857)">
        <path d="M18.75,10C18.75,5.169 14.831,1.25 10,1.25C5.169,1.25 1.25,5.169 1.25,10C1.25,14.831 5.169,18.75 10,18.75C14.831,18.75 18.75,14.831 18.75,10ZM17.25,10C17.25,14.003 14.003,17.25 10,17.25C5.997,17.25 2.75,14.003 2.75,10C2.75,5.997 5.997,2.75 10,2.75C14.003,2.75 17.25,5.997 17.25,10Z"/>
    </g>
    <g transform="matrix(1.14286,0,0,1.14286,-1.42857,-1.42857)">
        <path d="M6.267,7.267L6.267,12.733C6.267,13.285 6.714,13.733 7.267,13.733L12.733,13.733C13.285,13.733 13.733,13.285 13.733,12.733L13.733,7.267C13.733,6.714 13.285,6.267 12.733,6.267C12.733,6.267 7.267,6.267 7.267,6.267C6.714,6.267 6.267,6.714 6.267,7.267Z"/>
    </g>
</svg>
