<?xml version="1.0" encoding="UTF-8"?>
<svg width="100%" height="100%" xmlns="http://www.w3.org/2000/svg" xmlns:xlink="http://www.w3.org/1999/xlink"
    viewBox="0 0 512 512">
    <g style="fill-rule:evenodd">
        <path
            d="M 511.5,77.5 C 511.5,196.167 511.5,314.833 511.5,433.5C 505.342,454.822 491.342,467.656 469.5,472C 326.833,472.667 184.167,472.667 41.5,472C 19.6579,467.656 5.65795,454.822 -0.5,433.5C -0.5,314.833 -0.5,196.167 -0.5,77.5C 5.65795,56.1777 19.6579,43.3443 41.5,39C 184.167,38.3333 326.833,38.3333 469.5,39C 491.342,43.3443 505.342,56.1777 511.5,77.5 Z M 44.5,118.5 C 80.5863,118.013 116.586,118.513 152.5,120C 154.049,121.214 155.215,122.714 156,124.5C 156.978,146.922 156.645,169.255 155,191.5C 153.833,192.667 152.667,193.833 151.5,195C 115.833,195.667 80.1667,195.667 44.5,195C 42.2739,193.773 40.7739,191.939 40,189.5C 39.3333,167.833 39.3333,146.167 40,124.5C 41.332,122.34 42.832,120.34 44.5,118.5 Z M 202.5,118.5 C 238.586,118.013 274.586,118.513 310.5,120C 312.604,122.042 313.771,124.542 314,127.5C 314.667,147.167 314.667,166.833 314,186.5C 313.786,190.438 311.953,193.272 308.5,195C 272.415,195.987 236.415,195.653 200.5,194C 198.396,191.958 197.229,189.458 197,186.5C 196.333,166.833 196.333,147.167 197,127.5C 197.339,123.47 199.173,120.47 202.5,118.5 Z M 360.5,118.5 C 395.835,118.333 431.168,118.5 466.5,119C 468.378,120.543 469.878,122.376 471,124.5C 471.667,146.167 471.667,167.833 471,189.5C 470.226,191.939 468.726,193.773 466.5,195C 430.833,195.667 395.167,195.667 359.5,195C 357.622,193.457 356.122,191.624 355,189.5C 354.333,167.833 354.333,146.167 355,124.5C 356.36,121.977 358.193,119.977 360.5,118.5 Z M 45.5,236.5 C 81.2531,236.013 116.92,236.513 152.5,238C 154.049,239.214 155.215,240.714 156,242.5C 156.667,264.167 156.667,285.833 156,307.5C 154.371,311.232 151.538,313.399 147.5,314C 113.119,314.973 78.786,314.639 44.5,313C 42.2739,311.773 40.7739,309.939 40,307.5C 39.3333,285.833 39.3333,264.167 40,242.5C 41.3597,239.977 43.193,237.977 45.5,236.5 Z M 202.5,236.5 C 237.835,236.333 273.168,236.5 308.5,237C 311.553,239.051 313.386,241.885 314,245.5C 314.667,265.167 314.667,284.833 314,304.5C 313.5,310.333 310.333,313.5 304.5,314C 271.833,314.667 239.167,314.667 206.5,314C 200.667,313.5 197.5,310.333 197,304.5C 196.333,284.833 196.333,265.167 197,245.5C 197.825,241.844 199.658,238.844 202.5,236.5 Z M 360.5,236.5 C 396.253,236.013 431.92,236.513 467.5,238C 469.049,239.214 470.215,240.714 471,242.5C 471.667,264.5 471.667,286.5 471,308.5C 468.949,311.553 466.115,313.386 462.5,314C 428.119,314.973 393.786,314.639 359.5,313C 357.274,311.773 355.774,309.939 355,307.5C 354.333,285.833 354.333,264.167 355,242.5C 356.36,239.977 358.193,237.977 360.5,236.5 Z M 45.5,354.5 C 81.2284,354.02 116.895,354.52 152.5,356C 154.487,357.319 155.654,359.152 156,361.5C 156.667,382.833 156.667,404.167 156,425.5C 155.027,429.406 152.527,431.573 148.5,432C 114.833,432.667 81.1667,432.667 47.5,432C 43.9798,431.496 41.4798,429.663 40,426.5C 39.3333,404.5 39.3333,382.5 40,360.5C 41.3597,357.977 43.193,355.977 45.5,354.5 Z M 203.5,354.5 C 238.168,354.333 272.835,354.5 307.5,355C 311.232,356.629 313.399,359.462 314,363.5C 314.667,383.5 314.667,403.5 314,423.5C 313.13,428.37 310.297,431.203 305.5,432C 270.786,432.973 236.119,432.64 201.5,431C 198.819,428.806 197.319,425.973 197,422.5C 196.333,402.833 196.333,383.167 197,363.5C 197.719,359.374 199.886,356.374 203.5,354.5 Z M 361.5,354.5 C 396.92,354.013 432.253,354.513 467.5,356C 469.049,357.214 470.215,358.714 471,360.5C 471.667,382.5 471.667,404.5 471,426.5C 469.52,429.663 467.02,431.496 463.5,432C 429.833,432.667 396.167,432.667 362.5,432C 358.473,431.573 355.973,429.406 355,425.5C 354.333,404.167 354.333,382.833 355,361.5C 356.018,357.985 358.185,355.652 361.5,354.5 Z" />
    </g>
</svg>