<?xml version="1.0" encoding="UTF-8" standalone="no"?>
<!DOCTYPE svg PUBLIC "-//W3C//DTD SVG 1.1//EN" "http://www.w3.org/Graphics/SVG/1.1/DTD/svg11.dtd">
<svg width="100%" height="100%" viewBox="0 0 24 24" version="1.1" xmlns="http://www.w3.org/2000/svg" xmlns:xlink="http://www.w3.org/1999/xlink" xml:space="preserve" xmlns:serif="http://www.serif.com/" style="fill-rule:evenodd;clip-rule:evenodd;stroke-linejoin:round;stroke-miterlimit:2;">
    <g id="Artboard1" transform="matrix(1.35554,0,0,1.38496,0.530545,0.42705)">
        <rect x="-0.391" y="-0.308" width="17.705" height="17.329" style="fill:none;"/>
        <g transform="matrix(1.14226,0,0,1.118,-0.676954,-0.587851)">
            <path d="M4.25,2.942L2.331,2.942C1.78,2.944 1.251,3.164 0.861,3.554C0.471,3.944 0.252,4.472 0.25,5.023L0.25,7.394C0.25,7.611 0.336,7.819 0.489,7.972C0.489,7.972 0.49,7.972 0.49,7.972C0.643,8.125 0.851,8.212 1.067,8.212C1.067,8.212 1.973,8.212 1.973,8.212C2.56,8.212 3.035,8.731 3.043,9.318C3.043,9.318 3.043,9.318 3.043,9.318C3.052,9.915 2.595,10.481 2,10.481L1.067,10.481C0.85,10.481 0.642,10.567 0.489,10.721C0.336,10.874 0.25,11.081 0.25,11.298L0.25,13.669C0.252,14.22 0.471,14.749 0.861,15.139C0.861,15.139 0.861,15.139 0.861,15.139C1.251,15.529 1.78,15.748 2.331,15.75L4.702,15.75C4.919,15.75 5.126,15.664 5.279,15.511C5.433,15.358 5.519,15.149 5.519,14.933C5.519,14.933 5.519,14.228 5.519,14.228C5.519,13.61 6.02,13.072 6.638,13.058C7.227,13.044 7.789,13.414 7.789,14L7.789,14.933C7.789,15.149 7.875,15.358 8.028,15.511C8.181,15.664 8.389,15.75 8.606,15.75C8.606,15.75 11,15.75 11,15.75C11.546,15.75 12.069,15.533 12.455,15.147C12.841,14.761 13.058,14.238 13.058,13.692L13.058,11.75L13.333,11.75C14.678,11.75 15.75,10.653 15.75,9.304C15.75,7.95 14.631,6.917 13.306,6.917L13.058,6.917L13.058,5C13.058,4.454 12.841,3.931 12.455,3.545C12.069,3.159 11.546,2.942 11,2.942L9.083,2.942L9.083,2.694C9.083,1.373 8.03,0.273 6.709,0.25C6.389,0.245 6.07,0.303 5.772,0.422C5.474,0.541 5.202,0.718 4.973,0.943C4.744,1.168 4.563,1.436 4.438,1.732C4.314,2.028 4.25,2.345 4.25,2.666L4.25,2.942ZM9.289,14.25L9.289,14C9.289,12.569 8.04,11.525 6.603,11.558C6.603,11.558 6.603,11.558 6.603,11.558C5.185,11.591 4.019,12.809 4.019,14.228L4.019,14.25L2.335,14.25C2.18,14.249 2.032,14.188 1.922,14.078C1.812,13.968 1.751,13.82 1.75,13.665L1.75,11.981L2,11.981C3.409,11.981 4.563,10.71 4.543,9.297C4.524,7.907 3.363,6.712 1.973,6.712L1.75,6.712L1.75,5.028C1.751,4.873 1.812,4.724 1.922,4.614C2.032,4.505 2.18,4.443 2.335,4.442C2.335,4.442 4.933,4.442 4.933,4.442C5.15,4.442 5.357,4.356 5.511,4.203C5.664,4.05 5.75,3.842 5.75,3.625C5.75,3.625 5.75,2.667 5.75,2.667C5.75,2.545 5.774,2.424 5.822,2.312C5.869,2.2 5.938,2.098 6.024,2.013C6.111,1.927 6.214,1.86 6.327,1.815C6.327,1.815 6.327,1.815 6.327,1.815C6.44,1.77 6.561,1.748 6.683,1.75C6.683,1.75 6.683,1.75 6.683,1.75C7.189,1.759 7.583,2.188 7.583,2.694L7.583,3.625C7.583,3.842 7.669,4.05 7.823,4.203C7.976,4.356 8.184,4.442 8.401,4.442C8.401,4.442 11,4.442 11,4.442C11.148,4.442 11.29,4.501 11.394,4.606C11.394,4.606 11.394,4.606 11.394,4.606C11.499,4.71 11.558,4.852 11.558,5L11.558,7.599C11.558,7.817 11.644,8.024 11.798,8.178C11.951,8.331 12.158,8.417 12.375,8.417L13.306,8.417C13.808,8.417 14.25,8.791 14.25,9.304C14.25,9.821 13.849,10.25 13.334,10.25C13.334,10.25 12.375,10.25 12.375,10.25C12.158,10.25 11.951,10.336 11.798,10.488C11.644,10.642 11.558,10.849 11.558,11.067L11.558,13.692C11.558,13.84 11.499,13.982 11.394,14.087C11.29,14.191 11.148,14.25 11,14.25L9.289,14.25Z"/>
        </g>
    </g>
</svg>
