<?xml version="1.0" encoding="UTF-8" standalone="no"?>
<!DOCTYPE svg PUBLIC "-//W3C//DTD SVG 1.1//EN" "http://www.w3.org/Graphics/SVG/1.1/DTD/svg11.dtd">
<svg width="100%" height="100%" viewBox="0 0 24 24" version="1.1" xmlns="http://www.w3.org/2000/svg" xmlns:xlink="http://www.w3.org/1999/xlink" xml:space="preserve" xmlns:serif="http://www.serif.com/" style="fill-rule:evenodd;clip-rule:evenodd;stroke-linejoin:round;stroke-miterlimit:2;">
    <g id="Artboard1" transform="matrix(0.99214,0,0,0.99214,1.02329,0.319102)">
        <rect x="-1.031" y="-0.322" width="24.19" height="24.19" style="fill:none;"/>
        <clipPath id="_clip1">
            <rect x="-1.031" y="-0.322" width="24.19" height="24.19"/>
        </clipPath>
        <g clip-path="url(#_clip1)">
            <g transform="matrix(1.38229,0,0,1.38229,-1.37697,-0.667261)">
                <path d="M1.766,13.677L1.042,16.297C1.016,16.386 1,16.477 0.993,16.569L0.991,16.614C0.989,16.762 1.016,16.909 1.071,17.047L1.071,17.047C1.127,17.184 1.208,17.31 1.312,17.415C1.416,17.521 1.539,17.605 1.675,17.662L1.676,17.662C1.813,17.72 1.96,17.75 2.108,17.75L2.148,17.75L2.188,17.746C2.316,17.732 2.441,17.701 2.56,17.653C2.56,17.653 5.171,16.71 5.171,16.71L5.19,16.702C5.244,16.68 5.301,16.668 5.36,16.668L5.361,16.668C5.417,16.668 5.47,16.678 5.521,16.698C5.662,16.752 6.209,16.955 6.757,17.109C7.323,17.267 8.362,17.459 9.131,17.459C13.98,17.459 17.75,13.562 17.75,8.827L17.75,8.826C17.75,8.235 17.687,7.646 17.563,7.068C16.739,3.184 13.218,0.25 8.993,0.25C4.146,0.25 0.236,4.095 0.25,8.822C0.25,10.473 0.735,12.087 1.643,13.464L1.716,13.571C1.732,13.6 1.752,13.645 1.766,13.677ZM2.676,16.016L3.242,13.967C3.333,13.635 3.208,13.157 3.018,12.825L2.875,12.609C2.145,11.494 1.75,10.172 1.75,8.821L1.75,8.82C1.738,4.911 4.987,1.75 8.993,1.75C12.49,1.75 15.414,4.165 16.096,7.381L16.096,7.381C16.198,7.857 16.25,8.341 16.25,8.827C16.25,12.738 13.136,15.959 9.131,15.959C8.493,15.959 7.631,15.796 7.161,15.664C6.673,15.528 6.186,15.346 6.06,15.298L6.06,15.298C5.838,15.212 5.602,15.168 5.364,15.168C5.106,15.167 4.85,15.218 4.612,15.318L2.676,16.016Z"/>
                <path d="M7.426,6.788C7.426,6.788 7.475,6.289 7.976,5.877C8.299,5.61 8.692,5.549 9.039,5.544C9.358,5.54 9.645,5.577 9.816,5.66C10.081,5.79 10.633,6.082 10.633,6.755C10.633,7.585 10.032,7.909 9.43,8.323L9.43,8.323C8.335,9.076 8.084,9.831 8.084,10.677C8.084,11.091 8.42,11.427 8.834,11.427C9.248,11.427 9.584,11.091 9.584,10.677C9.584,10.266 9.748,9.924 10.279,9.559C11.304,8.854 12.133,8.166 12.133,6.755C12.133,5.301 11.048,4.593 10.474,4.312L10.474,4.312C10.153,4.156 9.62,4.037 9.02,4.044L9.02,4.044C8.362,4.053 7.633,4.215 7.022,4.719L7.022,4.719C5.948,5.604 5.927,6.722 5.927,6.722C5.909,7.136 6.231,7.486 6.644,7.504C7.058,7.522 7.408,7.201 7.426,6.788Z"/>
                <path d="M8.834,13.892C9.267,13.892 9.618,13.541 9.618,13.108C9.618,12.675 9.267,12.323 8.834,12.323C8.401,12.323 8.05,12.675 8.05,13.108C8.05,13.541 8.401,13.892 8.834,13.892Z" style="fill-rule:nonzero;"/>
            </g>
        </g>
    </g>
</svg>
