<?xml version="1.0" encoding="UTF-8" standalone="no"?>
<!DOCTYPE svg PUBLIC "-//W3C//DTD SVG 1.1//EN" "http://www.w3.org/Graphics/SVG/1.1/DTD/svg11.dtd">
<svg width="100%" height="100%" viewBox="0 0 24 24" version="1.1" xmlns="http://www.w3.org/2000/svg" xmlns:xlink="http://www.w3.org/1999/xlink" xml:space="preserve" xmlns:serif="http://www.serif.com/" style="fill-rule:evenodd;clip-rule:evenodd;stroke-linejoin:round;stroke-miterlimit:2;">
    <g id="Artboard1" transform="matrix(1.0486,0,0,1.36585,0.973699,0.347628)">
        <rect x="-0.929" y="-0.255" width="22.888" height="17.571" style="fill:none;"/>
        <clipPath id="_clip1">
            <rect x="-0.929" y="-0.255" width="22.888" height="17.571"/>
        </clipPath>
        <g clip-path="url(#_clip1)">
            <g transform="matrix(1.39317,0,0,1.06957,-2.02328,-1.22522)">
                <path d="M6.019,5.585L1.847,6.227C0.842,6.381 0.432,7.608 1.143,8.335L4.199,11.465L3.482,15.863C3.314,16.893 4.407,17.663 5.32,17.158L9,15.123L12.68,17.158C13.593,17.663 14.686,16.893 14.518,15.863L13.801,11.466L16.857,8.335C17.568,7.608 17.158,6.381 16.153,6.227L11.981,5.585L10.132,1.645C9.682,0.687 8.318,0.687 7.868,1.646L7.868,1.645L6.019,5.585ZM9,2.765L10.68,6.343C10.857,6.72 11.21,6.985 11.621,7.048L15.444,7.635L12.64,10.508C12.363,10.792 12.237,11.19 12.3,11.582L12.955,15.596L9.605,13.743C9.228,13.535 8.772,13.535 8.395,13.743L5.045,15.596L5.7,11.582C5.763,11.191 5.638,10.792 5.36,10.508L2.556,7.635L6.379,7.048C6.79,6.985 7.143,6.72 7.32,6.344L9,2.765Z"/>
            </g>
        </g>
    </g>
</svg>
