<?xml version="1.0" encoding="UTF-8" standalone="no"?>
<!DOCTYPE svg PUBLIC "-//W3C//DTD SVG 1.1//EN" "http://www.w3.org/Graphics/SVG/1.1/DTD/svg11.dtd">
<svg width="100%" height="100%" viewBox="0 0 48 48" version="1.1" xmlns="http://www.w3.org/2000/svg" xmlns:xlink="http://www.w3.org/1999/xlink" xml:space="preserve" xmlns:serif="http://www.serif.com/" style="fill-rule:evenodd;clip-rule:evenodd;stroke-linejoin:round;stroke-miterlimit:2;">
    <g id="Artboard1" transform="matrix(0.696791,0,0,0.696791,-309.021,-308.227)">
            <g transform="matrix(0.136681,-2.09317e-16,-2.09317e-16,-0.136681,-193.058,542.406)">
                <g transform="matrix(0.0939423,0,0,0.0939423,4656.68,227.41)">
                    <path d="M2483,5370C2466,5367 2407,5360 2352,5354C2124,5328 1849,5253 1617,5154C1001,4889 487,4375 222,3759C125,3533 55,3277 19,3024C1,2893 1,2483 19,2352C105,1741 365,1211 788,788C1095,481 1456,260 1872,127C2153,38 2368,5 2688,5C3008,5 3223,38 3504,127C4092,315 4576,681 4924,1198C5154,1540 5296,1921 5357,2352C5375,2483 5375,2893 5357,3024C5271,3635 5011,4165 4588,4588C4174,5002 3654,5262 3061,5351C2961,5366 2551,5379 2483,5370ZM3024,4930C3510,4855 3940,4638 4289,4289C4641,3937 4854,3513 4931,3014C4944,2929 4950,2832 4950,2688C4950,2544 4944,2447 4931,2363C4854,1863 4641,1439 4289,1087C3937,735 3513,522 3014,445C2848,419 2528,419 2363,445C1863,522 1439,735 1087,1087C735,1439 522,1863 445,2363C419,2528 419,2848 445,3014C522,3513 735,3937 1087,4289C1476,4678 1931,4888 2515,4950C2599,4958 2917,4946 3024,4930Z"/>
                </g>
                <g transform="matrix(0.0939423,0,0,0.0939423,4656.68,227.41)">
                    <path d="M3644,3585C3620,3575 3374,3336 2964,2927L2321,2284L2050,2554C1769,2834 1728,2866 1648,2866C1592,2867 1509,2821 1476,2771C1442,2720 1431,2644 1449,2587C1459,2555 1538,2469 1826,2180C2066,1939 2204,1808 2231,1795C2286,1769 2356,1769 2409,1795C2438,1809 2693,2058 3183,2549C3974,3341 3945,3308 3935,3414C3922,3551 3770,3639 3644,3585Z" />
                </g>
        </g>
    </g>
</svg>
