<?xml version="1.0" encoding="utf-8"?>
<svg width="100%" height="100%" xmlns="http://www.w3.org/2000/svg" xmlns:xlink="http://www.w3.org/1999/xlink"
    viewBox="0 0 512 512" style="fill-rule:evenodd">
    <path
        d="M258.92,395.41c-64.35-.59-118.39-20.65-165.51-59.7-20-16.58-40.22-32.9-60.27-49.42-15.71-12.94-19.99-31.75-10.78-48.12,2-3.56,4.6-7.11,7.74-9.67,27.33-22.34,54.11-45.44,82.48-66.38,35.23-26,75.56-40.15,119.22-44.07,70.44-6.32,132.74,13.66,187.2,58.61,19.65,16.22,39.44,32.27,59.16,48.4,15.47,12.66,20.45,29.84,12.69,46.11-2.3,4.82-5.69,9.63-9.77,13.01-26.43,21.86-52.53,44.21-80.01,64.68-35.4,26.37-75.82,40.93-119.84,45.11-8.44,.8-16.93,1.11-22.31,1.45Zm-103.97-139.6c.16,56.79,45.17,101.4,102.15,101.24,55.42-.16,100.13-45.74,99.96-101.9-.17-55.4-45.56-100.38-101.13-100.22-56,.17-101.14,45.26-100.98,100.88Zm211.13,78.08c4.88-3.14,10.07-5.88,14.57-9.48,26.41-21.08,52.69-42.33,78.93-63.62,4.18-3.39,3.71-6.63-1.12-10.57-18.59-15.14-37.06-30.44-55.86-45.3-10.56-8.34-21.68-15.98-32.59-23.87-1.3-.94-2.92-1.46-4.68-2.33,32.28,52.03,32.17,103.24,.77,155.17Zm-220.9-.5c.33-.27,.67-.54,1.01-.81-31.69-51.07-31.63-102.19-.38-153.51-5.94,3.35-11.66,6.51-16.69,10.53-25.6,20.46-51.04,41.12-76.48,61.78-3.82,3.1-3.67,6.26,.32,9.52,23.84,19.47,47.62,39.01,71.63,58.26,6.5,5.21,13.71,9.52,20.59,14.24Z" />
    <path
        d="M272.66,194.44c-8.67,17.07-7.42,30.62,3.65,41.55,10.91,10.79,24.64,11.97,40.82,3.53,7.25,17.16,1.85,48.79-21.63,66.95-24.14,18.67-58.3,18.01-81.08-1.73-23.38-20.26-29.28-53.6-14.19-80.25,14.4-25.42,46.17-38.68,72.43-30.06Z" />
</svg>