<?xml version="1.0" encoding="utf-8"?>
<svg width="100%" height="100%" xmlns="http://www.w3.org/2000/svg" xmlns:xlink="http://www.w3.org/1999/xlink"
	viewBox="0 0 512 512" style="fill-rule:evenodd">
	<path d="M263.3,128.8c0.9,0,1.8,0,2.7,0c13.6,0,26.9,0.6,40.3,3.2c0.8,0.1,1.7,0.3,2.6,0.4c25.6,4.5,50.7,13.7,74.1,24.8
	c0.8,0.4,1.7,0.8,2.6,1.2c38,18.1,72.2,43.3,103.2,71.5c0.9,0.9,1.9,1.7,2.9,2.6c19.7,17.9,19.7,17.9,20.9,24.4
	c0.1,5.9-0.2,9.9-4.1,14.5c-0.7,0.7-1.4,1.4-2.2,2.2c-0.5,0.5-1,1-1.5,1.5c-5.8,6-11.7,11.9-18,17.3c-2.2,1.9-4.4,3.9-6.5,5.8
	c-58.5,52.7-136.1,93.4-216.2,93.1c-0.9,0-1.8,0-2.7,0c-13.6,0-26.9-0.6-40.3-3.2c-1.3-0.2-1.3-0.2-2.6-0.4
	c-25.6-4.5-50.7-13.7-74.1-24.8c-0.8-0.4-1.7-0.8-2.6-1.2c-38-18.1-72.2-43.3-103.2-71.5c-0.9-0.9-1.9-1.7-2.9-2.6
	C16,269.6,16,269.6,14.8,263.1c-0.1-5.9,0.2-9.9,4.1-14.5c1.1-1.1,1.1-1.1,2.2-2.2c0.5-0.5,1-1,1.5-1.5c5.8-6,11.7-11.9,18-17.3
	c2.2-1.9,4.4-3.9,6.5-5.8C105.6,169.2,183.3,128.4,263.3,128.8z M193.8,186.3c-0.6,0.5-1.2,1-1.8,1.6c-13.7,12.7-22.8,31-27.3,48.9
	c-0.2,0.7-0.4,1.4-0.5,2.2c-5.9,25.9-0.2,51.9,13,74.3c3.8,5.9,8.1,11.4,12.7,16.7c0.8,0.9,0.8,0.9,1.6,1.8
	c12.7,13.7,31,22.8,48.9,27.3c0.7,0.2,1.4,0.4,2.2,0.5c25.9,5.9,51.9,0.2,74.3-13c5.9-3.8,11.4-8.1,16.7-12.7c0.6-0.5,1.2-1,1.8-1.6
	c13.7-12.7,22.8-31,27.3-48.9c0.2-0.7,0.4-1.4,0.5-2.2c5.9-25.9,0.2-51.9-13-74.3c-3.8-5.9-8.1-11.4-12.7-16.7
	c-0.5-0.6-1-1.2-1.6-1.8c-12.7-13.7-31-22.8-48.9-27.3c-0.7-0.2-1.4-0.4-2.2-0.5C251.4,153,218.9,164.2,193.8,186.3z" />
	<path d="M296.7,195c0,0.6,0,1.3,0,1.9c-1.1,1-2.3,2-3.5,2.9c-4.6,3.9-7.4,8.2-10.1,13.6c-0.5,1-0.5,1-1,1.9
	c-3.7,8.8-3.3,21.2-0.3,30.1c5.2,11.9,13.1,20.1,25.1,25.2c4.9,1.8,9.3,2,14.4,2c1.1,0,1.1,0,2.2,0c4.1,0,8-0.3,12-1.1
	c-1.1,18.4-12,33.1-25,45.3c-17,14.2-36.9,17.1-58.4,15.8c-16.4-1.9-30.5-10.7-41.7-22.3c-0.7-0.7-1.4-1.4-2.2-2.1
	c-12.6-12.8-17.5-30.9-17.7-48.4c0.2-19.3,6.3-37.1,20.2-50.8c0.9-0.8,1.7-1.7,2.6-2.5c0.7-0.7,1.4-1.4,2.1-2.2
	C235.5,184.6,272.6,180.4,296.7,195z" />
</svg>