<?xml version="1.0" encoding="UTF-8"?>
<svg width="100%" height="100%" xmlns="http://www.w3.org/2000/svg" xmlns:xlink="http://www.w3.org/1999/xlink"
  viewBox="0 0 512 512" style="fill-rule:evenodd">
  <g>
    <path d="M507.8,146c-0.2,3.5-1.4,7.3-3.3,10.3c-5.5,8.7-15.6,9.8-23.3,3c-1.9-1.7-3.5-3.6-5.4-5.3
		c-6.7-6.1-13.5-12.3-20.2-18.4c-6.7,6.2-13.7,12.2-20.1,18.6C399.6,190,363.9,225.9,328,261.7c-24.8,24.8-50.1,49.2-74.3,74.7
		c-13.2,13.9-30.8,11.1-41.3,0.1c-24-25-48.8-49.1-73.3-73.6c-5.4-5.4-5.7-5.4-11.1,0.1c-25.3,25.3-50.6,50.6-75.9,75.9
		c-2.2,2.2-4.6,4.5-7.2,6.3c-8.5,6-18,7.4-26.9,1.8c-10.6-6.7-19.9-15.1-17.6-29.5c0.8-4.8,2.7-10.4,6-13.8
		c36.3-36.8,72.9-73.3,109.5-109.8c9-9,22.3-9.8,32.6-2.3c2.3,1.7,4.3,3.7,6.3,5.7c24.5,24.4,49,49,73.5,73.4
		c4.3,4.3,5.1,4.4,9.4,0.1C295.3,213.3,353,155.5,410.8,97.9c3.4-3.4,3.3-5.9-0.1-9.1c-6.5-6.2-12.8-12.7-19.2-19.1
		c-4.7-4.7-7.3-10-4.9-16.7c2.3-6.5,7.3-9.4,13.8-9.9c7.8-0.7,15.7-1.2,23.5-1.6c21.5-1.1,43.1-2.1,64.6-3c4.3-0.2,8.8,0,12.9,1
		c6.8,1.7,10.2,6.5,10.5,13.5c0.2,3.7,0,7.4,0,11C512.1,64,509.5,118.7,507.8,146L507.8,146z" />
    <path d="M461.8,326.2c0,43.3,0,86.6,0,130c0,2.3,0.1,4.7-0.1,7c-0.6,6.9-3.7,10.3-10.5,10.3c-20.2,0.2-40.5,0.2-60.7,0
		c-7-0.1-10.3-3.7-10.8-10.7c-0.1-1.8-0.1-3.7-0.1-5.5c0-64.2,0.1-128.4-0.1-192.7c0-6.5,1.9-11.3,6.6-15.9
		c21.7-21.3,43.1-43,64.7-64.4c1.6-1.6,4.5-4.6,6-3.1c1.9,1.9,3.7,4.4,4.8,7c0.4,0.9,0.3,4.3,0.3,6.5
		C461.8,238.6,461.8,282.4,461.8,326.2L461.8,326.2z" />
    <path d="M345.9,290.5c0.2,3.7,0.4,5.6,0.4,7.6c0,53.8,0,107.7,0,161.5c0,11.5-2.6,14.1-14.3,14.1
		c-18.1,0-36.1,0.1-54.2,0c-10.1,0-12.8-2.7-12.8-12.8c0-28.2-0.1-56.5,0.1-84.7c0-3.2,1-7.3,3.2-9.4c23.7-23.8,47.8-47.3,71.7-70.8
		C341.6,294.4,343.2,293,345.9,290.5L345.9,290.5z" />
    <path d="M151.4,320.8c1.4,1.3,2.9,2.6,4.3,4c11.7,11.7,23.6,23.3,35.1,35.2c9.4,9.7,20.6,16,34,17.8
		c5.4,0.8,7.3,3.1,7.2,8.5c-0.2,23.9-0.1,47.8-0.1,71.7c0,2.3-0.2,4.7-0.6,7c-1.1,5.5-4,8.5-9.6,8.5c-20.7,0.2-41.5,0.2-62.2-0.1
		c-6.5-0.1-9.6-3.7-9.7-10.4c-0.2-11.7-0.1-23.4-0.1-35.1c0-33.3,0-66.5,0-99.8c0-2.3,0.2-4.5,0.4-6.8
		C150.5,321.1,150.9,321,151.4,320.8L151.4,320.8z" />
    <path d="M115.9,320.8c0.3,3.2,0.5,5.1,0.5,7c0,43.8,0,87.6,0,131.4c0,11.8-2.7,14.5-14.5,14.5c-17.7,0-35.4,0-53.2,0
		c-11.3,0-14.5-3.1-14.5-14.2c-0.1-23.2,0-46.5,0-69.7c0-7.1,0.4-7.5,7.3-8.9c12.4-2.5,22.6-8.9,31.4-17.7
		c12.5-12.5,25.1-25.1,37.6-37.6C112,324.2,113.4,323,115.9,320.8L115.9,320.8z" />
  </g>
</svg>