<?xml version="1.0" encoding="UTF-8"?>
<svg xmlns="http://www.w3.org/2000/svg" width="100%" height="100%" viewBox="0 0 9.57 9.57" fill="fill-rule:evenodd">
    <path
        d="M3.91,7.13h-1.17C1.45,7.13,.4,6.08,.4,4.78S1.45,2.43,2.75,2.43c.33,0,.6,.27,.6,.6s-.27,.6-.6,.6c-.63,0-1.15,.52-1.15,1.15s.52,1.15,1.15,1.15h1.17c.33,0,.6,.27,.6,.6s-.27,.6-.6,.6Zm3.9-.31c-.19,0-.38-.09-.5-.26-.19-.27-.12-.65,.16-.83,.31-.22,.5-.57,.5-.95,0-.63-.52-1.15-1.15-1.15h-1.17c-.33,0-.6-.27-.6-.6s.27-.6,.6-.6h1.17c1.3,0,2.35,1.05,2.35,2.35,0,.78-.38,1.5-1.02,1.94-.1,.07-.22,.1-.34,.1Z" />
    <path d="M6.51,5.38h-.32c-.33,0-.6-.27-.6-.6s.27-.6,.6-.6h.32c.33,0,.6,.27,.6,.6s-.27,.6-.6,.6Z" />
    <path d="M4.69,5.38h-1.59c-.33,0-.6-.27-.6-.6s.27-.6,.6-.6h1.59c.33,0,.6,.27,.6,.6s-.27,.6-.6,.6Z" />
    <path
        d="M8.97,9.57c-.15,0-.31-.06-.42-.18L.18,1.02C-.06,.79-.06,.41,.18,.18,.41-.06,.79-.06,1.02,.18L9.39,8.55c.23,.23,.23,.61,0,.85-.12,.12-.27,.18-.42,.18Z" />
</svg>