<?xml version="1.0" standalone="no"?>
<!DOCTYPE svg PUBLIC "-//W3C//DTD SVG 20010904//EN"
 "http://www.w3.org/TR/2001/REC-SVG-20010904/DTD/svg10.dtd">
<svg version="1.0" xmlns="http://www.w3.org/2000/svg"
 width="368.000000pt" height="459.500000pt" viewBox="0 0 368.000000 459.500000"
 preserveAspectRatio="xMidYMid meet">
<metadata>
Created by Potrace Professional 1.1m
</metadata>
<g transform="translate(-72.000000,486.000000) rotate(-360.00) scale(0.095238,-0.095238)"
fill="#000000" stroke="none">
<path d="M1087 5083 c-82 -29 -114 -48 -178 -107 -69 -63 -105 -121 -133 -210
-19 -62 -20 -135 -20 -2078 0 -1976 0 -2015 21 -2081 39 -127 136 -236 263
-296 l68 -33 1580 0 1580 0 71 34 c124 58 221 170 261 298 19 62 20 126 20
1798 l0 1734 -480 481 -481 480 -1260 0 c-1187 -1 -1263 -2 -1312 -20z m2814
-704 l483 -483 -486 0 -485 0 0 483 c0 265 1 483 2 483 2 0 220 -218 486 -483z
m-441 -925 l168 -168 -599 -598 -598 -598 -171 170 -171 171 596 596 c328 327
599 596 602 596 3 0 81 -76 173 -169z m-1371 -1369 c89 -90 160 -165 157 -167
-7 -7 -486 -164 -489 -161 -5 5 158 490 164 490 4 0 79 -73 168 -162z"/>
</g>
</svg>
