<?xml version="1.0" encoding="UTF-8" standalone="no"?>
<!DOCTYPE svg PUBLIC "-//W3C//DTD SVG 1.1//EN" "http://www.w3.org/Graphics/SVG/1.1/DTD/svg11.dtd">
<svg width="100%" height="100%" viewBox="0 0 24 24" version="1.1" xmlns="http://www.w3.org/2000/svg" xmlns:xlink="http://www.w3.org/1999/xlink" xml:space="preserve" xmlns:serif="http://www.serif.com/" style="fill-rule:evenodd;clip-rule:evenodd;stroke-linejoin:round;stroke-miterlimit:2;">
    <g transform="matrix(1.37143,0,0,1.37143,-5.48571,-4.11429)">
        <g transform="matrix(1,0,0,1,0.75,-0.25)">
            <path d="M20.75,12C20.75,7.169 16.831,3.25 12,3.25C7.169,3.25 3.25,7.169 3.25,12C3.25,16.831 7.169,20.75 12,20.75C16.831,20.75 20.75,16.831 20.75,12ZM19.25,12C19.25,16.003 16.003,19.25 12,19.25C7.997,19.25 4.75,16.003 4.75,12C4.75,7.997 7.997,4.75 12,4.75C16.003,4.75 19.25,7.997 19.25,12Z"/>
        </g>
        <g transform="matrix(1,0,0,1,0.75,-0.25)">
            <path d="M10.117,16.313C9.973,16.312 9.832,16.275 9.707,16.203C9.426,16.044 9.251,15.734 9.251,15.399L9.251,8.602C9.251,8.265 9.426,7.956 9.707,7.797C9.835,7.723 9.98,7.686 10.128,7.688C10.275,7.689 10.419,7.731 10.545,7.808L16.354,11.285C16.476,11.361 16.575,11.466 16.645,11.591C16.714,11.716 16.75,11.857 16.75,12C16.75,12.143 16.714,12.283 16.645,12.408C16.575,12.533 16.476,12.639 16.354,12.714L10.545,16.192C10.416,16.27 10.268,16.312 10.117,16.313Z" style="fill-rule:nonzero;"/>
        </g>
    </g>
    <g id="Artboard1" transform="matrix(0.932783,0,0,1.04917,3.41627,2.63916)">
        <rect x="-3.662" y="-2.515" width="25.729" height="22.875" style="fill:none;"/>
    </g>
</svg>
