<svg xmlns="http://www.w3.org/2000/svg" xmlns:xlink="http://www.w3.org/1999/xlink" xmlns:serif="http://www.serif.com/" width="100%" height="100%" viewBox="0 0 60 61" xml:space="preserve" style="fill-rule:evenodd;clip-rule:evenodd;stroke-linejoin:round;stroke-miterlimit:2;">    <g id="Artboard1" transform="matrix(1.08012,0,0,0.98868,-8.55701,-3.89075)">        <rect x="7.922" y="3.935" width="55.06" height="61.081" style="fill:none;"></rect>        <g transform="matrix(0.925826,0,0,1.01145,5.52556,0.102636)">            <path d="M40.738,5.692C40.738,4.722 41.525,3.935 42.495,3.935L60.059,3.935C61.029,3.935 61.815,4.722 61.815,5.692C61.815,6.662 61.029,7.448 60.059,7.448L42.495,7.448C41.525,7.448 40.738,6.662 40.738,5.692ZM44.25,7.448L58.301,7.448L58.301,48.184C58.304,48.266 58.305,48.349 58.305,48.431C58.305,48.514 58.304,48.596 58.301,48.678L58.301,49.142L58.27,49.142C57.913,52.688 54.92,55.457 51.279,55.457C47.639,55.457 44.645,52.688 44.289,49.142L44.25,49.142L44.25,7.448Z" style="fill:rgb(223,234,253);"></path>            <path d="M55.477,25.732L47.074,25.732L47.074,48.219C47.074,50.539 48.955,52.42 51.276,52.42C53.596,52.42 55.477,50.539 55.477,48.219C55.477,48.199 55.477,48.18 55.477,48.161L55.477,25.732Z" style="fill:rgb(37,112,237);"></path>            <path d="M24.495,19.463C26.015,16.7 29.985,16.7 31.505,19.463L52.74,58.072C54.206,60.738 52.277,64 49.235,64L6.765,64C3.723,64 1.794,60.738 3.26,58.072L24.495,19.463Z" style="fill:rgb(223,234,253);fill-rule:nonzero;"></path>            <path d="M26.232,21.521C26.984,20.102 29.016,20.102 29.767,21.521L49.355,58.519C50.06,59.851 49.094,61.455 47.587,61.455L8.413,61.455C6.905,61.455 5.94,59.851 6.645,58.519L26.232,21.521Z" style="fill:rgb(37,112,237);fill-rule:nonzero;"></path>            <path d="M28,18L45.406,49.911L10.594,49.911L28,18Z" style="fill:rgb(223,234,253);fill-rule:nonzero;"></path>            <rect x="20.363" y="8" width="15.273" height="19.091" style="fill:rgb(223,234,253);"></rect>            <path d="M39.455,9.909C39.455,8.855 38.6,8 37.546,8L18.455,8C17.401,8 16.546,8.855 16.546,9.909C16.546,10.963 17.401,11.818 18.455,11.818L37.546,11.818C38.6,11.818 39.455,10.963 39.455,9.909Z" style="fill:rgb(223,234,253);"></path>        </g>    </g></svg>