<?xml version="1.0" encoding="UTF-8"?>
<svg viewBox="0 0 16 16" xmlns="http://www.w3.org/2000/svg" style="fill-rule:evenodd">
    <path
        d="M2 8C2 4.688 4.688 2 8 2C11.312 2 14 4.688 14 8C14 11.312 11.312 14 8 14C4.688 14 2 11.312 2 8ZM8.13794 8.69231C8.39318 8.69231 8.6001 8.48539 8.6001 8.23015V5.46216C8.6001 5.20692 8.39318 5 8.13794 5H7.86226C7.60701 5 7.4001 5.20692 7.4001 5.46216L7.4001 8.23015C7.4001 8.48539 7.60701 8.69231 7.86226 8.69231H8.13794ZM8.13794 11C8.39318 11 8.6001 10.7931 8.6001 10.5378V10.0775C8.6001 9.8223 8.39318 9.61538 8.13794 9.61538H7.86226C7.60701 9.61538 7.4001 9.8223 7.4001 10.0775V10.5378C7.4001 10.7931 7.60701 11 7.86226 11H8.13794Z" />
</svg>