<?xml version="1.0" encoding="utf-8"?>
<svg width="100%" height="100%" xmlns="http://www.w3.org/2000/svg" xmlns:xlink="http://www.w3.org/1999/xlink" viewBox="0 0 512 512" style="fill-rule:evenodd">
<path d="M236.4,0.1c-1.6,0.3-7.3,1-12.5,1.5c-21.8,2.5-48,9.6-70.1,19.1C95,46,46,95.1,20.7,153.9
	c-9.3,21.6-15.9,46-19.4,70.1c-1.7,12.5-1.7,51.6,0,64.1c8.2,58.3,33,108.9,73.4,149.3c29.3,29.3,63.7,50.4,103.4,63.1
	c26.8,8.5,47.3,11.6,77.9,11.6s51.1-3.1,77.9-11.6c56.1-17.9,102.3-52.9,135.5-102.2c21.9-32.6,35.5-69,41.3-110.1
	c1.7-12.5,1.7-51.6,0-64.1c-8.2-58.3-33-108.9-73.4-149.3C397.8,35.3,348.2,10.4,291.6,2C282.1,0.5,242.9-0.7,236.4,0.1z
	 M288.1,42.1c46.4,7.2,87.4,27.9,120.7,61.2c33.6,33.6,53.9,74.1,61.3,121.7c1.2,8.1,1.8,17.4,1.8,31.1c0,13.7-0.6,23-1.8,31
	c-7.3,47.7-27.7,88.2-61.3,121.8s-74.1,53.9-121.7,61.3c-15.8,2.5-46.4,2.5-62.1,0c-47.7-7.3-88.2-27.7-121.8-61.3
	s-53.9-74.1-61.3-121.8c-2.5-15.7-2.5-46.3,0-62.1c7.3-47.6,27.7-88.1,61.3-121.7c37.1-37.1,80.5-57.2,136.3-63.1
	C247.5,39.5,277.9,40.6,288.1,42.1z"/>
<path d="M329.3,184.6L223,281.3l-40.2-36.6c-9-8.2-22.9-7.5-31.1,1.5c-8.2,9-7.5,22.9,1.5,31.1l55.1,50.1
	c8.4,7.6,21.2,7.6,29.6,0l121.1-110.1c9-8.2,9.6-22.1,1.5-31.1C352.2,177.1,338.3,176.5,329.3,184.6z"/>
</svg>
