<?xml version="1.0" encoding="UTF-8" standalone="no"?>
<!DOCTYPE svg PUBLIC "-//W3C//DTD SVG 1.1//EN" "http://www.w3.org/Graphics/SVG/1.1/DTD/svg11.dtd">
<svg width="100%" height="100%" viewBox="0 0 24 24" version="1.1" xmlns="http://www.w3.org/2000/svg" xmlns:xlink="http://www.w3.org/1999/xlink" xml:space="preserve" xmlns:serif="http://www.serif.com/" style="fill-rule:evenodd;clip-rule:evenodd;stroke-linejoin:round;stroke-miterlimit:2;">
    <g id="Artboard1" transform="matrix(1.5,0,0,1.5,0,0)">
        <rect x="0" y="0" width="16" height="16" style="fill:none;"/>
        <g transform="matrix(1.07199,0,0,1.06667,-0.535994,-0.533323)">
            <path d="M15.417,6.888C15.167,5.219 14.361,3.684 13.131,2.529L13.131,2.529C11.9,1.375 10.316,0.67 8.635,0.527L8.635,0.527C6.953,0.384 5.273,0.812 3.865,1.743C2.458,2.673 1.405,4.05 0.877,5.653L0.877,5.653C0.349,7.256 0.376,8.989 0.956,10.574L0.956,10.574C1.535,12.159 2.631,13.502 4.068,14.387C5.505,15.271 7.198,15.646 8.874,15.449C10.55,15.252 12.11,14.496 13.303,13.303C13.596,13.011 13.596,12.535 13.303,12.243C13.011,11.95 12.535,11.95 12.243,12.243C11.288,13.197 10.04,13.802 8.699,13.959L8.699,13.959C7.358,14.116 6.004,13.817 4.855,13.109L4.854,13.109C3.705,12.402 2.828,11.327 2.364,10.059C1.901,8.791 1.879,7.404 2.301,6.122C2.724,4.84 3.566,3.738 4.692,2.994C5.819,2.25 7.163,1.907 8.508,2.022C9.853,2.136 11.12,2.7 12.105,3.624C13.089,4.547 13.734,5.775 13.934,7.11C13.995,7.52 14.377,7.802 14.787,7.741C15.196,7.679 15.478,7.297 15.417,6.888Z" style="fill:rgb(190,194,201);"/>
        </g>
    </g>
</svg>
