<?xml version="1.0" encoding="utf-8"?>
<svg width="100%" height="100%" xmlns="http://www.w3.org/2000/svg" xmlns:xlink="http://www.w3.org/1999/xlink"
	viewBox="0 0 512 512" style="fill-rule:evenodd">
	<path class="st0" d="M169.5,395.7l226.2-226.2c17.8-17.8,20.4-44.3,5.7-58.9c-14.7-14.7-41.1-12.1-59,5.7L116.3,342.4
	c-17.8,17.8-20.4,44.3-5.7,59C125.3,416.1,151.7,413.5,169.5,395.7z" />
	<path class="st0" d="M116.3,169.5l226.2,226.2c17.8,17.8,44.3,20.4,58.9,5.7c14.7-14.7,12.1-41.1-5.7-59L169.6,116.3
	c-17.8-17.8-44.3-20.4-59-5.7S98.5,151.7,116.3,169.5z" />
</svg>