<?xml version="1.0" encoding="UTF-8"?>
<svg xmlns="http://www.w3.org/2000/svg" viewBox="0 0 17.44 17.69" style="fill-rule:evenodd">
  <g>
    <path
      d="M7.82,16.44c-.34,0-.65-.2-.78-.52l-1.8-4.26c-.09-.21-.25-.37-.46-.46L.52,9.4c-.31-.13-.52-.44-.52-.78s.2-.65,.52-.78l4.26-1.8c.21-.09,.37-.25,.46-.46L7.04,1.32c.27-.63,1.3-.63,1.57,0l1.8,4.26c.09,.21,.25,.37,.46,.46l4.26,1.8c.31,.13,.52,.44,.52,.78s-.21,.65-.52,.78l-4.26,1.8c-.21,.09-.37,.25-.46,.46l-1.8,4.26c-.13,.31-.44,.52-.78,.52ZM2.52,8.62l2.84,1.2c.57,.24,1.01,.69,1.25,1.25l1.2,2.85,1.2-2.85c.24-.57,.68-1.01,1.25-1.25l2.84-1.2-2.84-1.2c-.57-.24-1.01-.69-1.25-1.25l-1.2-2.84-1.2,2.84c-.24,.57-.69,1.01-1.25,1.25l-2.84,1.2Zm12.01,.6s0,0,0,0h0Zm-13.43,0h0s0,0,0,0Zm13.43-1.2s0,0,0,0h0Zm-13.44,0h0s0,0,0,0ZM7.22,1.9s0,0,0,0h0Zm1.2,0h0s0,0,0,0Z" />
    <path
      d="M15,.06c.03-.08,.15-.08,.18,0l.63,1.5s.03,.04,.05,.05l1.5,.63c.08,.03,.08,.15,0,.18l-1.5,.63s-.04,.03-.05,.05l-.63,1.5c-.03,.08-.15,.08-.18,0l-.63-1.5s-.03-.04-.05-.05l-1.5-.63c-.08-.03-.08-.15,0-.18l1.5-.63s.04-.03,.05-.05L15,.06Z" />
    <path
      d="M15,13.06c.03-.08,.15-.08,.18,0l.63,1.5s.03,.04,.05,.05l1.5,.63c.08,.03,.08,.15,0,.18l-1.5,.63s-.04,.03-.05,.05l-.63,1.5c-.03,.08-.15,.08-.18,0l-.63-1.5s-.03-.04-.05-.05l-1.5-.63c-.08-.03-.08-.15,0-.18l1.5-.63s.04-.03,.05-.05l.63-1.5Z" />
  </g>
</svg>