<?xml version="1.0" encoding="UTF-8"?>
<svg xmlns="http://www.w3.org/2000/svg" viewBox="0 0 17.58 8.74" style="fill-rule:evenodd">
	<g>
		<path
			d="M3.57,8.74c-.19,0-.38-.07-.53-.22-.29-.29-.29-.77,0-1.06l2.34-2.34H.75c-.41,0-.75-.34-.75-.75s.34-.75,.75-.75H5.38L3.04,1.28c-.29-.29-.29-.77,0-1.06S3.81-.07,4.1,.22l3.62,3.62c.29,.29,.29,.77,0,1.06l-3.62,3.62c-.15,.15-.34,.22-.53,.22Zm10.44,0c-.19,0-.38-.07-.53-.22l-3.62-3.62c-.14-.14-.22-.33-.22-.53s.08-.39,.22-.53L13.48,.22c.29-.29,.77-.29,1.06,0s.29,.77,0,1.06l-2.34,2.34h4.63c.41,0,.75,.34,.75,.75s-.34,.75-.75,.75h-4.63l2.34,2.34c.29,.29,.29,.77,0,1.06-.15,.15-.34,.22-.53,.22Z" />
	</g>
</svg>