<svg width="72" height="72" viewBox="0 0 72 72" fill="none" xmlns="http://www.w3.org/2000/svg">
<path fill-rule="evenodd" clip-rule="evenodd" d="M64 4H8C5.79086 4 4 5.79086 4 8L4 64H60C62.2091 64 64 62.2091 64 60V4ZM8 0C3.58172 0 0 3.58172 0 8V64C0 66.2091 1.79086 68 4 68H60C64.4183 68 68 64.4183 68 60V4C68 1.79086 66.2091 0 64 0H8Z" fill="#050505"/>
<path d="M64.7572 4.58122e-05L7.99981 4.6489e-05C3.58153 4.65417e-05 -0.0001915 3.58177 -0.000191448 8.00005L-0.000190771 64.7574C-0.000190739 67.4301 3.23122 68.7686 5.12112 66.8787L66.8785 5.12137C68.7684 3.23147 67.4299 4.57803e-05 64.7572 4.58122e-05Z" fill="#FEC200"/>
<mask id="mask0_819_47789" style="mask-type:alpha" maskUnits="userSpaceOnUse" x="0" y="0" width="70" height="70">
<path d="M67.1718 -4.57525e-05L2.0002 -4.49753e-05C0.895629 -4.49621e-05 0.00019755 0.895387 0.000197563 1.99996L0.00019834 67.1715C0.000198362 68.9533 2.15448 69.8457 3.41441 68.5857L68.586 3.41417C69.8459 2.15424 68.9536 -4.57737e-05 67.1718 -4.57525e-05Z" fill="#FEC200"/>
</mask>
<g mask="url(#mask0_819_47789)">
<path d="M56 36C56 47.0457 47.0457 56 36 56C24.9543 56 16 47.0457 16 36C16 24.9543 24.9543 16 36 16C47.0457 16 56 24.9543 56 36Z" fill="#2570ED"/>
</g>
<mask id="mask1_819_47789" style="mask-type:alpha" maskUnits="userSpaceOnUse" x="2" y="2" width="70" height="70">
<path d="M4.82823 72L69.9998 72C71.1044 72 71.9998 71.1046 71.9998 70L71.9998 4.82848C71.9998 3.04667 69.8455 2.15433 68.5856 3.41426L3.41401 68.5858C2.15408 69.8458 3.04642 72 4.82823 72Z" fill="#FEC200"/>
</mask>
<g mask="url(#mask1_819_47789)">
<path fill-rule="evenodd" clip-rule="evenodd" d="M36 52C44.8366 52 52 44.8366 52 36C52 27.1634 44.8366 20 36 20C27.1634 20 20 27.1634 20 36C20 44.8366 27.1634 52 36 52ZM36 56C47.0457 56 56 47.0457 56 36C56 24.9543 47.0457 16 36 16C24.9543 16 16 24.9543 16 36C16 47.0457 24.9543 56 36 56Z" fill="#050505"/>
</g>
</svg>
