<svg width="68" height="72" viewBox="0 0 68 72" fill="none" xmlns="http://www.w3.org/2000/svg">
<path d="M27.7246 37.8579C25.8675 39.715 24.3943 41.9198 23.3892 44.3463C22.3841 46.7728 21.8668 49.3736 21.8668 52L29.8526 52C29.8526 50.4223 30.1634 48.86 30.7672 47.4024C31.3709 45.9448 32.2559 44.6203 33.3715 43.5047L27.7246 37.8579Z" fill="#FEC200"/>
<path d="M29.8678 64C29.8678 66.2091 28.0769 68 25.8678 68C23.6586 68 21.8678 66.2091 21.8678 64C21.8678 61.7909 23.6586 60 25.8678 60C28.0769 60 29.8678 61.7909 29.8678 64Z" fill="#FEC200"/>
<path d="M38.395 28.446L38.4031 28.454L44.05 34.1009L44.0519 34.1028L33.3749 43.545L27.7271 37.8684L38.395 28.446Z" fill="#FEC200"/>
<path d="M44.05 34.1009C46.3548 31.7827 48.0565 28.9345 49.0056 25.8057C49.9603 22.6583 50.1241 19.324 49.4825 16.0982C48.8408 12.8724 47.4135 9.85459 45.327 7.31214C43.2405 4.76969 40.5591 2.78107 37.5204 1.52242C34.4818 0.263762 31.1796 -0.22607 27.9064 0.0963103C24.6333 0.41869 21.4901 1.54333 18.7554 3.37061L23.1921 10.0106C24.8348 8.91295 26.723 8.23737 28.6892 8.04371C30.6554 7.85005 32.639 8.1443 34.4644 8.90038C36.2897 9.65647 37.9004 10.851 39.1538 12.3783C40.4072 13.9056 41.2646 15.7184 41.6501 17.6562C42.0355 19.5939 41.9371 21.5969 41.3636 23.4875C40.7957 25.3596 39.7793 27.0644 38.4031 28.454L44.05 34.1009Z" fill="#FEC200"/>
<path d="M16 52C16 54.2091 14.2091 56 12 56C9.79086 56 8 54.2091 8 52C8 49.7909 9.79086 48 12 48C14.2091 48 16 49.7909 16 52Z" fill="#F07702"/>
<path d="M12.6863 28.6863C11.2006 30.172 10.022 31.9359 9.21793 33.8771C8.41385 35.8183 8 37.8988 8 40H16.1159C16.1159 38.9646 16.3198 37.9394 16.716 36.9829C17.1123 36.0263 17.693 35.1572 18.4251 34.4251L12.6863 28.6863Z" fill="#F07702"/>
<path d="M27.3137 27.3137C29.1743 25.4532 30.5472 23.1625 31.311 20.6446C32.0748 18.1266 32.2059 15.4592 31.6926 12.8786C31.1792 10.2979 30.0374 7.88367 28.3682 5.84971C26.6989 3.81576 24.5539 2.22485 22.1229 1.21793C19.692 0.211009 17.0503 -0.180856 14.4317 0.0770482C11.8132 0.334952 9.29865 1.23466 7.11088 2.69649C4.9231 4.15831 3.12961 6.13713 1.88926 8.45765C0.648914 10.7782 3.97303e-07 13.3688 0 16L8.0657 16C8.0657 14.6952 8.3875 13.4105 9.00257 12.2598C9.61765 11.1091 10.507 10.1278 11.5919 9.40288C12.6768 8.67797 13.9238 8.2318 15.2223 8.10391C16.5208 7.97602 17.8308 8.17034 19.0363 8.66967C20.2418 9.169 21.3055 9.95791 22.1333 10.9665C22.9611 11.9752 23.5273 13.1724 23.7818 14.4521C24.0364 15.7318 23.9714 17.0546 23.5926 18.3032C23.2139 19.5518 22.533 20.6878 21.6104 21.6104L27.3137 27.3137Z" fill="#F07702"/>
<path d="M21.6201 21.6096L27.3152 27.311L18.4041 34.4315L12.6903 28.705L21.6201 21.6096Z" fill="#F07702"/>
<path d="M8 40H16V44H8V40Z" fill="#F07702"/>
<path fill-rule="evenodd" clip-rule="evenodd" d="M52 72C60.8366 72 68 64.8366 68 56C68 47.1634 60.8366 40 52 40C43.1634 40 36 47.1634 36 56C36 64.8366 43.1634 72 52 72ZM52 64C56.4183 64 60 60.4183 60 56C60 51.5817 56.4183 48 52 48C47.5817 48 44 51.5817 44 56C44 60.4183 47.5817 64 52 64Z" fill="#2570ED"/>
<path fill-rule="evenodd" clip-rule="evenodd" d="M47.5317 56.1876C48.498 55.6526 49.7151 56.0023 50.2501 56.9687C50.4199 57.2754 50.6673 57.532 50.9676 57.713C51.2678 57.8939 51.6104 57.9927 51.9608 57.9996C52.3113 58.0064 52.6575 57.921 52.9645 57.7519C53.2716 57.5828 53.5289 57.336 53.7105 57.0362C54.2828 56.0914 55.5126 55.7895 56.4573 56.3617C57.4021 56.934 57.704 58.1638 57.1318 59.1086C56.5869 60.0081 55.8152 60.7486 54.8939 61.2559C53.9727 61.7631 52.9343 62.0193 51.8828 61.9988C50.8314 61.9783 49.8038 61.6818 48.903 61.139C48.0023 60.5962 47.26 59.8262 46.7506 58.9061C46.2156 57.9397 46.5653 56.7226 47.5317 56.1876Z" fill="#050505"/>
<path fill-rule="evenodd" clip-rule="evenodd" d="M66.9102 36.2005C67.8889 36.7125 68.2672 37.921 67.7552 38.8997L57.367 58.7554C56.8549 59.7341 55.6464 60.1124 54.6677 59.6004C53.689 59.0883 53.3107 57.8798 53.8227 56.9011L64.2109 37.0454C64.723 36.0667 65.9315 35.6884 66.9102 36.2005ZM46.7804 54.2004C47.788 53.748 48.9717 54.1981 49.4241 55.2057L50.1377 56.7949C50.5902 57.8026 50.1401 58.9862 49.1324 59.4387C48.1248 59.8911 46.9411 59.441 46.4887 58.4334L45.7751 56.8442C45.3227 55.8365 45.7727 54.6529 46.7804 54.2004Z" fill="#050505"/>
</svg>
