<svg width="73" height="76" viewBox="0 0 73 76" fill="none" xmlns="http://www.w3.org/2000/svg">
<path d="M25.0002 4C25.0002 1.79086 26.7911 0 29.0002 0H69.0002C71.2094 0 73.0002 1.79086 73.0002 4V16C73.0002 18.2091 71.2094 20 69.0002 20H29.0002C26.7911 20 25.0002 18.2091 25.0002 16V4Z" fill="#2570ED"/>
<path d="M45.0002 32C45.0002 29.7909 46.7911 28 49.0002 28H69.0002C71.2094 28 73.0002 29.7909 73.0002 32V44C73.0002 46.2091 71.2094 48 69.0002 48H49.0002C46.7911 48 45.0002 46.2091 45.0002 44V32Z" fill="#2570ED"/>
<path d="M25.0002 60C25.0002 57.7909 26.7911 56 29.0002 56H69.0002C71.2094 56 73.0002 57.7909 73.0002 60V72C73.0002 74.2091 71.2094 76 69.0002 76H29.0002C26.7911 76 25.0002 74.2091 25.0002 72V60Z" fill="#2570ED"/>
<path d="M19.9398 21.2472L34.9038 35.8266C36.1358 37.0269 36.1358 38.9731 34.9038 40.1734L19.9398 54.7528C17.9524 56.6892 14.5542 55.3178 14.5542 52.5794L14.5542 23.4206C14.5542 20.6822 17.9524 19.3108 19.9398 21.2472Z" fill="#F07702"/>
<path d="M5.96612 21.2472L20.9301 35.8266C22.1621 37.0269 22.1621 38.9731 20.9301 40.1734L5.96612 54.7528C3.97872 56.6892 0.580571 55.3178 0.580571 52.5794L0.580566 23.4206C0.580567 20.6822 3.97872 19.3108 5.96612 21.2472Z" fill="#FEC200"/>
</svg>
