<svg width="96" height="96" viewBox="0 0 96 96" fill="none" xmlns="http://www.w3.org/2000/svg">
<path fill-rule="evenodd" clip-rule="evenodd" d="M76 46C77.1046 46 78 46.8954 78 48C78 53.8899 76.2663 59.6494 73.0149 64.5606C69.7636 69.4717 65.1386 73.3172 59.7165 75.6175C54.2944 77.9177 48.3151 78.5711 42.5242 77.496C36.7333 76.421 31.3869 73.6651 27.1517 69.572C26.3575 68.8044 26.3359 67.5382 27.1035 66.7439C27.8711 65.9497 29.1372 65.9281 29.9315 66.6957C33.602 70.2431 38.2355 72.6315 43.2543 73.5632C48.2731 74.4949 53.4551 73.9287 58.1543 71.9351C62.8534 69.9416 66.8618 66.6088 69.6796 62.3525C72.4974 58.0962 74 53.1045 74 48C74 46.8954 74.8954 46 76 46Z" fill="#050505"/>
<path d="M74 48C74 62.3594 62.3594 74 48 74C33.6406 74 22 62.3594 22 48C22 33.6406 33.6406 22 48 22C62.3594 22 74 33.6406 74 48Z" fill="#F07702"/>
<path d="M60 12C60 9.79086 61.7909 8 64 8H84C86.2091 8 88 9.79086 88 12V32C88 34.2091 86.2091 36 84 36H64C61.7909 36 60 34.2091 60 32V12Z" fill="#2570ED"/>
<path fill-rule="evenodd" clip-rule="evenodd" d="M37.4142 58.5858C38.1953 59.3668 38.1953 60.6332 37.4142 61.4142L13.4142 85.4142C12.6332 86.1953 11.3668 86.1953 10.5858 85.4142C9.80474 84.6332 9.80474 83.3668 10.5858 82.5858L34.5858 58.5858C35.3668 57.8047 36.6332 57.8047 37.4142 58.5858Z" fill="#050505"/>
<path fill-rule="evenodd" clip-rule="evenodd" d="M66.5858 53.4142C65.8047 52.6332 65.8047 51.3668 66.5858 50.5858L74.5858 42.5858C75.3668 41.8047 76.6332 41.8047 77.4142 42.5858L85.4142 50.5858C86.1953 51.3668 86.1953 52.6332 85.4142 53.4142C84.6332 54.1953 83.3668 54.1953 82.5858 53.4142L76 46.8284L69.4142 53.4142C68.6332 54.1953 67.3668 54.1953 66.5858 53.4142Z" fill="#050505"/>
</svg>
