<svg width="96" height="96" viewBox="0 0 96 96" fill="none" xmlns="http://www.w3.org/2000/svg">
<path fill-rule="evenodd" clip-rule="evenodd" d="M76 60C77.1046 60 78 59.1046 78 58V28C78 22.4772 73.5228 18 68 18L39 18C37.8954 18 37 18.8954 37 20C37 21.1046 37.8954 22 39 22L68 22C71.3137 22 74 24.6863 74 28V58C74 59.1046 74.8954 60 76 60Z" fill="#050505"/>
<path fill-rule="evenodd" clip-rule="evenodd" d="M20 36C18.8954 36 18 36.8954 18 38L18 64C18 71.732 24.268 78 32 78H57C58.1046 78 59 77.1046 59 76C59 74.8954 58.1046 74 57 74H32C26.4772 74 22 69.5228 22 64L22 38C22 36.8954 21.1046 36 20 36Z" fill="#050505"/>
<path fill-rule="evenodd" clip-rule="evenodd" d="M32.6927 11.0448C37.5457 9.03463 42.7471 8 48 8V36C47.9999 36 48.0001 36 48 36C41.3726 36 35.9997 41.3726 35.9997 48L8 48C8 42.7471 9.03463 37.5457 11.0448 32.6927C13.055 27.8396 16.0014 23.4301 19.7157 19.7157C23.4301 16.0014 27.8396 13.055 32.6927 11.0448Z" fill="#FEC200"/>
<path fill-rule="evenodd" clip-rule="evenodd" d="M48 60C54.6273 59.9998 59.9997 54.6273 59.9997 48L88 48C88 53.2529 86.9654 58.4543 84.9552 63.3073C82.945 68.1604 79.9986 72.5699 76.2843 76.2843C72.5699 79.9986 68.1604 82.945 63.3073 84.9552C58.4543 86.9654 53.2529 88 48 88V60Z" fill="#F07702"/>
<path fill-rule="evenodd" clip-rule="evenodd" d="M48 68C59.0457 68 68 59.0457 68 48C68 36.9543 59.0457 28 48 28C36.9543 28 28 36.9543 28 48C28 59.0457 36.9543 68 48 68ZM48 58C53.5229 58 58 53.5229 58 48C58 42.4772 53.5229 38 48 38C42.4772 38 38 42.4772 38 48C38 53.5229 42.4772 58 48 58Z" fill="#2570ED"/>
</svg>
