<svg width="96" height="96" viewBox="0 0 96 96" fill="none" xmlns="http://www.w3.org/2000/svg">
<path d="M12 20C12 15.5817 15.5817 12 20 12H76C80.4183 12 84 15.5817 84 20V40C84 44.4183 80.4183 48 76 48H20C15.5817 48 12 44.4183 12 40V20Z" fill="#2570ED"/>
<path d="M20 40C20 35.5817 23.5817 32 28 32H68C72.4183 32 76 35.5817 76 40V60C76 64.4183 72.4183 68 68 68H28C23.5817 68 20 64.4183 20 60V40Z" fill="#FEC200"/>
<path fill-rule="evenodd" clip-rule="evenodd" d="M54 56H42C37.5817 56 34 59.5817 34 64V76C34 80.4183 37.5817 84 42 84H54C58.4183 84 62 80.4183 62 76V64C62 59.5817 58.4183 56 54 56ZM42 52C35.3726 52 30 57.3726 30 64V76C30 82.6274 35.3726 88 42 88H54C60.6274 88 66 82.6274 66 76V64C66 57.3726 60.6274 52 54 52H42Z" fill="#050505"/>
</svg>
