<svg width="96" height="96" viewBox="0 0 96 96" fill="none" xmlns="http://www.w3.org/2000/svg">
<path fill-rule="evenodd" clip-rule="evenodd" d="M72 12C65.3726 12 60 17.3726 60 24C60 30.6274 65.3726 36 72 36C78.6274 36 84 30.6274 84 24C84 17.3726 78.6274 12 72 12ZM56 24C56 15.1634 63.1634 8 72 8C80.8366 8 88 15.1634 88 24C88 32.8366 80.8366 40 72 40C63.1634 40 56 32.8366 56 24Z" fill="#050505"/>
<path fill-rule="evenodd" clip-rule="evenodd" d="M24 60C17.3726 60 12 65.3726 12 72C12 78.6274 17.3726 84 24 84C30.6274 84 36 78.6274 36 72C36 65.3726 30.6274 60 24 60ZM8 72C8 63.1634 15.1634 56 24 56C32.8366 56 40 63.1634 40 72C40 80.8366 32.8366 88 24 88C15.1634 88 8 80.8366 8 72Z" fill="#050505"/>
<path d="M69 48C69 59.598 59.598 69 48 69C36.402 69 27 59.598 27 48C27 36.402 36.402 27 48 27C59.598 27 69 36.402 69 48Z" fill="#2570ED"/>
<path d="M83.1716 40L58 40C56.8954 40 56 39.1046 56 38V12.8284C56 11.0466 58.1543 10.1543 59.4142 11.4142L84.5858 36.5858C85.8457 37.8457 84.9534 40 83.1716 40Z" fill="#FEC200"/>
<path d="M12.8284 56H38C39.1046 56 40 56.8954 40 58V83.1716C40 84.9534 37.8457 85.8457 36.5858 84.5858L11.4142 59.4142C10.1543 58.1543 11.0466 56 12.8284 56Z" fill="#F07702"/>
</svg>
