<svg width="80" height="80" viewBox="0 0 80 80" fill="none" xmlns="http://www.w3.org/2000/svg">
<path fill-rule="evenodd" clip-rule="evenodd" d="M64 4C57.3726 4 52 9.37258 52 16C52 22.6274 57.3726 28 64 28C70.6274 28 76 22.6274 76 16C76 9.37258 70.6274 4 64 4ZM48 16C48 7.16344 55.1634 0 64 0C72.8366 0 80 7.16344 80 16C80 24.8366 72.8366 32 64 32C55.1634 32 48 24.8366 48 16Z" fill="#050505"/>
<path fill-rule="evenodd" clip-rule="evenodd" d="M16 52C9.37258 52 4 57.3726 4 64C4 70.6274 9.37258 76 16 76C22.6274 76 28 70.6274 28 64C28 57.3726 22.6274 52 16 52ZM0 64C0 55.1634 7.16344 48 16 48C24.8366 48 32 55.1634 32 64C32 72.8366 24.8366 80 16 80C7.16344 80 0 72.8366 0 64Z" fill="#050505"/>
<path d="M61 40C61 51.598 51.598 61 40 61C28.402 61 19 51.598 19 40C19 28.402 28.402 19 40 19C51.598 19 61 28.402 61 40Z" fill="#2570ED"/>
<path d="M75.1716 32L50 32C48.8954 32 48 31.1046 48 30V4.82843C48 3.04662 50.1543 2.15428 51.4142 3.41421L76.5858 28.5858C77.8457 29.8457 76.9534 32 75.1716 32Z" fill="#FEC200"/>
<path d="M4.82843 48H30C31.1046 48 32 48.8954 32 50V75.1716C32 76.9534 29.8457 77.8457 28.5858 76.5858L3.41421 51.4142C2.15428 50.1543 3.04662 48 4.82843 48Z" fill="#F07702"/>
</svg>
