<svg width="96" height="96" viewBox="0 0 96 96" fill="none" xmlns="http://www.w3.org/2000/svg">
<path fill-rule="evenodd" clip-rule="evenodd" d="M61.9002 10.8256C64.7122 8.75413 68.1774 7.76727 71.6588 8.0464C75.1403 8.32554 78.404 9.8519 80.8501 12.3449C83.2961 14.838 84.7602 18.1301 84.973 21.6162C85.1859 25.1024 84.1333 28.5482 82.0088 31.3203C79.8842 34.0924 76.8305 36.0046 73.4089 36.7052C69.9873 37.4059 66.4277 36.848 63.3845 35.1341C62.4221 34.5921 62.0813 33.3725 62.6233 32.41C63.1654 31.4476 64.385 31.1068 65.3474 31.6488C67.5511 32.8899 70.1287 33.2939 72.6064 32.7866C75.0842 32.2792 77.2955 30.8945 78.834 28.8871C80.3724 26.8797 81.1346 24.3845 80.9805 21.86C80.8263 19.3356 79.7662 16.9516 77.9949 15.1463C76.2236 13.341 73.8602 12.2357 71.3392 12.0336C68.8181 11.8315 66.3088 12.5461 64.2725 14.0461C62.2362 15.5461 60.8098 17.7307 60.2554 20.1984C59.701 22.666 60.0559 25.2508 61.2548 27.4777C61.7785 28.4503 61.4146 29.6632 60.442 30.1868C59.4694 30.7104 58.2565 30.3465 57.7329 29.374C56.0772 26.2987 55.5871 22.7292 56.3527 19.3215C57.1183 15.9139 59.0881 12.897 61.9002 10.8256Z" fill="#050505"/>
<path d="M16 72C16 69.7909 17.7909 68 20 68H68C70.2091 68 72 69.7909 72 72V76C72 78.2092 70.2091 80 68 80H20C17.7909 80 16 78.2092 16 76V72Z" fill="#2570ED"/>
<path d="M16 52C16 49.7909 17.7909 48 20 48H68C70.2091 48 72 49.7909 72 52V60C72 62.2092 70.2091 64 68 64H20C17.7909 64 16 62.2092 16 60V52Z" fill="#F07702"/>
<path d="M16 28C16 25.7909 17.7909 24 20 24H68C70.2091 24 72 25.7909 72 28V40C72 42.2092 70.2091 44 68 44H20C17.7909 44 16 42.2092 16 40V28Z" fill="#FEC200"/>
</svg>
