<svg width="74" height="77" viewBox="0 0 74 77" fill="none" xmlns="http://www.w3.org/2000/svg">
<path d="M0 12C0 5.37258 5.37258 0 12 0H52C58.6274 0 64 5.37258 64 12V52C64 58.6274 58.6274 64 52 64H12C5.37258 64 0 58.6274 0 52V12Z" fill="#2570ED"/>
<path d="M56 16C56 20.4183 52.4183 24 48 24C43.5817 24 40 20.4183 40 16C40 11.5817 43.5817 8 48 8C52.4183 8 56 11.5817 56 16Z" fill="#FEC200"/>
<path d="M24.9392 25.0607L4.56051 45.4394C3.61556 46.3843 4.28481 48 5.62117 48H46.3785C47.7149 48 48.3841 46.3843 47.4392 45.4394L27.0605 25.0607C26.4747 24.4749 25.525 24.4749 24.9392 25.0607Z" fill="#F07702"/>
<path d="M40.9392 29.0607L24.5605 45.4394C23.6156 46.3843 24.2848 48 25.6212 48H58.3785C59.7149 48 60.3841 46.3843 59.4392 45.4394L43.0605 29.0607C42.4747 28.4749 41.525 28.4749 40.9392 29.0607Z" fill="#F07702"/>
<path fill-rule="evenodd" clip-rule="evenodd" d="M54.3926 52.0388C55.4757 52.2555 56.1781 53.3091 55.9615 54.3922L51.9612 74.3922C51.7445 75.4753 50.6909 76.1778 49.6077 75.9611C48.5246 75.7445 47.8222 74.6908 48.0388 73.6077L52.0391 53.6077C52.2558 52.5246 53.3094 51.8222 54.3926 52.0388Z" fill="#050505"/>
<path fill-rule="evenodd" clip-rule="evenodd" d="M45.6639 54.8906C45.0512 53.9715 43.8094 53.7232 42.8904 54.3359L32.1385 61.5038C30.3573 62.6913 30.3573 65.3087 32.1385 66.4961L42.8904 73.6641C43.8094 74.2768 45.0512 74.0284 45.6639 73.1094C46.2766 72.1903 46.0282 70.9486 45.1092 70.3359L35.6053 64L45.1092 57.6641C46.0282 57.0514 46.2766 55.8096 45.6639 54.8906Z" fill="#050505"/>
<path fill-rule="evenodd" clip-rule="evenodd" d="M58.3356 54.8906C58.9483 53.9715 60.1901 53.7232 61.1091 54.3359L71.861 61.5038C73.6423 62.6913 73.6422 65.3087 71.861 66.4961L61.1091 73.6641C60.1901 74.2768 58.9483 74.0284 58.3356 73.1094C57.7229 72.1903 57.9713 70.9486 58.8903 70.3359L68.3942 64L58.8903 57.6641C57.9713 57.0514 57.7229 55.8096 58.3356 54.8906Z" fill="#050505"/>
</svg>
