<svg width="68" height="80" viewBox="0 0 68 80" fill="none" xmlns="http://www.w3.org/2000/svg">
<path d="M0 28C0 23.5817 3.58172 20 8 20H36C40.4183 20 44 23.5817 44 28V72C44 76.4183 40.4183 80 36 80H8C3.58172 80 0 76.4183 0 72V28Z" fill="#2570ED"/>
<path fill-rule="evenodd" clip-rule="evenodd" d="M30 12C26.6863 12 24 14.6863 24 18V70C24 71.1046 23.1046 72 22 72C20.8954 72 20 71.1046 20 70V18C20 12.4772 24.4772 8 30 8H58C59.1046 8 60 8.89543 60 10C60 11.1046 59.1046 12 58 12H30Z" fill="#050505"/>
<path fill-rule="evenodd" clip-rule="evenodd" d="M48.5858 0.585786C49.3668 -0.195262 50.6332 -0.195262 51.4142 0.585786L59.4142 8.58579C60.1953 9.36684 60.1953 10.6332 59.4142 11.4142L51.4142 19.4142C50.6332 20.1953 49.3668 20.1953 48.5858 19.4142C47.8047 18.6332 47.8047 17.3668 48.5858 16.5858L55.1716 10L48.5858 3.41421C47.8047 2.63317 47.8047 1.36683 48.5858 0.585786Z" fill="#050505"/>
<path d="M68 42C68 49.732 61.732 56 54 56C46.268 56 40 49.732 40 42C40 34.268 46.268 28 54 28C61.732 28 68 34.268 68 42Z" fill="#FEC200"/>
<path d="M68 58C68 65.732 61.732 72 54 72C46.268 72 40 65.732 40 58C40 50.268 46.268 44 54 44C61.732 44 68 50.268 68 58Z" fill="#F07702"/>
</svg>
