<svg width="96" height="96" viewBox="0 0 96 96" fill="none" xmlns="http://www.w3.org/2000/svg">
<path d="M12 43.9999C12 41.7908 13.7909 39.9999 16 39.9999H36C38.2091 39.9999 40 41.7908 40 43.9999V79.9999C40 82.209 38.2091 83.9999 36 83.9999H16C13.7909 83.9999 12 82.209 12 79.9999V43.9999Z" fill="#F07702"/>
<path d="M28 34.9999C28 32.7908 29.7909 30.9999 32 30.9999H48C50.2091 30.9999 52 32.7908 52 34.9999V70.9999C52 73.209 50.2091 74.9999 48 74.9999H32C29.7909 74.9999 28 73.209 28 70.9999V34.9999Z" fill="#2570ED"/>
<path d="M44 43.9999C44 41.7908 45.7909 39.9999 48 39.9999H80C82.2091 39.9999 84 41.7908 84 43.9999V79.9999C84 82.209 82.2091 83.9999 80 83.9999H48C45.7909 83.9999 44 82.209 44 79.9999V43.9999Z" fill="#FEC200"/>
<path fill-rule="evenodd" clip-rule="evenodd" d="M65.3926 8.03874C66.4757 8.25538 67.1781 9.30904 66.9614 10.3922L62.9612 30.3921C62.7445 31.4753 61.6909 32.1777 60.6077 31.961C59.5246 31.7444 58.8222 30.6907 59.0388 29.6076L63.0391 9.60764C63.2558 8.52452 64.3094 7.8221 65.3926 8.03874Z" fill="#050505"/>
<path fill-rule="evenodd" clip-rule="evenodd" d="M56.6641 10.8905C56.0514 9.97142 54.8097 9.72307 53.8906 10.3358L43.1387 17.5037C41.3575 18.6912 41.3575 21.3086 43.1387 22.496L53.8906 29.664C54.8097 30.2767 56.0514 30.0283 56.6641 29.1093C57.2768 28.1902 57.0285 26.9485 56.1094 26.3358L46.6056 19.9999L56.1094 13.664C57.0285 13.0513 57.2768 11.8095 56.6641 10.8905Z" fill="#050505"/>
<path fill-rule="evenodd" clip-rule="evenodd" d="M69.3359 10.8905C69.9486 9.97142 71.1903 9.72307 72.1094 10.3358L82.8613 17.5037C84.6425 18.6912 84.6425 21.3086 82.8613 22.496L72.1094 29.664C71.1903 30.2767 69.9486 30.0283 69.3359 29.1093C68.7232 28.1902 68.9715 26.9485 69.8906 26.3358L79.3945 19.9999L69.8906 13.664C68.9715 13.0513 68.7232 11.8095 69.3359 10.8905Z" fill="#050505"/>
</svg>
