<svg width="75" height="80" viewBox="0 0 75 80" fill="none" xmlns="http://www.w3.org/2000/svg">
<path fill-rule="evenodd" clip-rule="evenodd" d="M33 67.3172C34.2511 67.7594 35.5975 68 37 68H63C69.6274 68 75 62.6274 75 56V32C75 25.3726 69.6274 20 63 20H37C35.5975 20 34.2511 20.2406 33 20.6828V25.0703C34.1767 24.3896 35.5429 24 37 24H63C67.4183 24 71 27.5817 71 32V56C71 60.4183 67.4183 64 63 64H37C35.5429 64 34.1767 63.6104 33 62.9297V67.3172Z" fill="#050505"/>
<path d="M36 22C36 29.732 29.732 36 22 36C14.268 36 8 29.732 8 22C8 14.268 14.268 8 22 8C29.732 8 36 14.268 36 22Z" fill="#F07702"/>
<path fill-rule="evenodd" clip-rule="evenodd" d="M22 44C34.1503 44 44 34.1503 44 22C44 9.84974 34.1503 0 22 0C9.84974 0 0 9.84974 0 22C0 34.1503 9.84974 44 22 44ZM22 33C28.0751 33 33 28.0751 33 22C33 15.9249 28.0751 11 22 11C15.9249 11 11 15.9249 11 22C11 28.0751 15.9249 33 22 33Z" fill="#2570ED"/>
<path d="M31 56C31 53.7909 32.7909 52 35 52H55C57.2091 52 59 53.7909 59 56V76C59 78.2091 57.2091 80 55 80H35C32.7909 80 31 78.2091 31 76V56Z" fill="#FEC200"/>
</svg>
