<svg width="96" height="96" viewBox="0 0 96 96" fill="none" xmlns="http://www.w3.org/2000/svg">
<path d="M16 66C16 61.5817 19.5817 58 24 58H72C76.4183 58 80 61.5817 80 66V80C80 84.4183 76.4183 88 72 88H24C19.5817 88 16 84.4183 16 80V66Z" fill="#F07702"/>
<path fill-rule="evenodd" clip-rule="evenodd" d="M54 12H42C37.5817 12 34 15.5817 34 20V32C34 36.4183 37.5817 40 42 40H54C58.4183 40 62 36.4183 62 32V20C62 15.5817 58.4183 12 54 12ZM42 8C35.3726 8 30 13.3726 30 20V32C30 38.6274 35.3726 44 42 44H54C60.6274 44 66 38.6274 66 32V20C66 13.3726 60.6274 8 54 8H42Z" fill="#050505"/>
<path d="M72 48C72 61.2548 61.2548 72 48 72C34.7452 72 24 61.2548 24 48C24 34.7452 34.7452 24 48 24C61.2548 24 72 34.7452 72 48Z" fill="#2570ED"/>
<path d="M60 48C60 54.6274 54.6274 60 48 60C41.3726 60 36 54.6274 36 48C36 41.3726 41.3726 36 48 36C54.6274 36 60 41.3726 60 48Z" fill="#FEC200"/>
</svg>
