<svg width="96" height="96" viewBox="0 0 96 96" fill="none" xmlns="http://www.w3.org/2000/svg">
<path fill-rule="evenodd" clip-rule="evenodd" d="M76 16H20C17.7909 16 16 17.7909 16 20V76H72C74.2091 76 76 74.2091 76 72V16ZM20 12C15.5817 12 12 15.5817 12 20V76C12 78.2091 13.4222 80 15.0044 80H72C76.4183 80 80 76.4183 80 72V14.9957C79.958 13.5109 78.2091 12 76 12H20Z" fill="#050505"/>
<path d="M76.9835 12L20.0279 12C15.5942 12 12 15.5942 12 20.0279L12 76.9835C12 79.6655 15.2427 81.0087 17.1392 79.1122L79.1122 17.1392C81.0087 15.2427 79.6655 12 76.9835 12Z" fill="#FEC200"/>
<path d="M33.9844 62.2693L62.2686 33.9851C58.6513 30.3805 53.6616 28.1522 48.1515 28.1522C37.1058 28.1522 28.1515 37.1065 28.1515 48.1522C28.1515 53.6623 30.3798 58.652 33.9844 62.2693Z" fill="#2570ED"/>
<path d="M33.9832 62.2713C37.6024 65.8905 42.6023 68.1289 48.125 68.1289C59.1707 68.1289 68.125 59.1746 68.125 48.1289C68.125 42.6062 65.8865 37.6063 62.2674 33.9871L59.439 36.8155C62.3343 39.7109 64.125 43.7108 64.125 48.1289C64.125 56.9655 56.9616 64.1289 48.125 64.1289C43.7069 64.1289 39.707 62.3382 36.8116 59.4429L33.9832 62.2713Z" fill="#050505"/>
</svg>
