<svg width="96" height="96" viewBox="0 0 96 96" fill="none" xmlns="http://www.w3.org/2000/svg">
<path d="M84 26C84 33.732 77.732 40 70 40C62.268 40 56 33.732 56 26C56 18.268 62.268 12 70 12C77.732 12 84 18.268 84 26Z" fill="#FEC200"/>
<path d="M12 64C12 61.7909 13.7909 60 16 60H32C34.2091 60 36 61.7909 36 64V80C36 82.2091 34.2091 84 32 84H16C13.7909 84 12 82.2091 12 80V64Z" fill="#F07702"/>
<path d="M48 73C34.1929 73 23 61.8071 23 48C23 34.1929 34.1929 23 48 23C53.3625 35.9872 53.2168 60.033 48 73Z" fill="#2570ED"/>
<path fill-rule="evenodd" clip-rule="evenodd" d="M60.2848 60H68C69.1046 60 70 59.1046 70 58C70 56.8954 69.1046 56 68 56H61.2679C61.7426 53.4883 62 50.7978 62 48C62 45.2022 61.7426 42.5117 61.2679 40H68C69.1046 40 70 39.1046 70 38C70 36.8954 69.1046 36 68 36H60.2848C57.9064 28.2526 53.2967 23 48 23C42.7033 23 38.0936 28.2526 35.7152 36H26.0625C25.1719 37.5625 24.4847 39.457 24.3155 40H34.7321C34.2574 42.5117 34 45.2022 34 48C34 50.7978 34.2574 53.4883 34.7321 56H24.3155C24.5643 56.7638 24.7278 57.2105 25.121 58.0881C25.5041 58.945 25.694 59.3706 26.0625 60H35.7152C38.0936 67.7474 42.7033 73 48 73C53.2967 73 57.9064 67.7474 60.2848 60ZM54.4095 63.7233C55.0279 62.6189 55.5887 61.3704 56.0735 60H39.9265C40.4113 61.3704 40.9721 62.6189 41.5905 63.7233C43.8035 67.6749 46.23 69 48 69C49.77 69 52.1965 67.6749 54.4095 63.7233ZM56.0735 36C55.5887 34.6296 55.0279 33.3811 54.4095 32.2767C52.1965 28.3251 49.77 27 48 27C46.23 27 43.8035 28.3251 41.5905 32.2767C40.9721 33.3811 40.4113 34.6296 39.9265 36H56.0735ZM38.8112 40H57.1888C57.7066 42.4486 58 45.1435 58 48C58 50.8565 57.7066 53.5514 57.1888 56H38.8112C38.2934 53.5514 38 50.8565 38 48C38 45.1435 38.2934 42.4486 38.8112 40Z" fill="#050505"/>
</svg>
