<svg width="96" height="96" viewBox="0 0 96 96" fill="none" xmlns="http://www.w3.org/2000/svg">
<path fill-rule="evenodd" clip-rule="evenodd" d="M76 48V78C76 79.1046 76.8954 80 78 80C79.1046 80 80 79.1046 80 78V48C80 42.4771 75.5228 38 70 38L41 38C39.8954 38 39 38.8954 39 40C39 41.1046 39.8954 42 41 42L70 42C73.3137 42 76 44.6863 76 48Z" fill="#050505"/>
<path fill-rule="evenodd" clip-rule="evenodd" d="M40 38C38.8954 38 38 38.8954 38 40L38 70C38 75.5228 42.4772 80 48 80L78 80C79.1046 80 80 79.1046 80 78C80 76.8954 79.1046 76 78 76L48 76C44.6863 76 42 73.3137 42 70L42 40C42 38.8954 41.1046 38 40 38Z" fill="#050505"/>
<path d="M12 20C12 15.5817 15.5817 12 20 12H60C64.4183 12 68 15.5817 68 20V58C68 62.4183 64.4183 66 60 66H20C15.5817 66 12 62.4183 12 58V20Z" fill="#FEC200"/>
<path fill-rule="evenodd" clip-rule="evenodd" d="M41.3926 26.0388C42.4757 26.2555 43.1781 27.3091 42.9614 28.3923L38.9612 48.3922C38.7445 49.4754 37.6909 50.1778 36.6077 49.9611C35.5246 49.7445 34.8222 48.6908 35.0388 47.6077L39.0391 27.6077C39.2558 26.5246 40.3094 25.8222 41.3926 26.0388Z" fill="#050505"/>
<path fill-rule="evenodd" clip-rule="evenodd" d="M32.6641 28.8906C32.0514 27.9715 30.8097 27.7232 29.8906 28.3359L19.1387 35.5038C17.3575 36.6913 17.3575 39.3087 19.1387 40.4961L29.8906 47.6641C30.8097 48.2768 32.0514 48.0284 32.6641 47.1094C33.2768 46.1903 33.0285 44.9486 32.1094 44.3359L22.6056 38L32.1094 31.6641C33.0285 31.0514 33.2768 29.8096 32.6641 28.8906Z" fill="#050505"/>
<path fill-rule="evenodd" clip-rule="evenodd" d="M45.3359 28.8906C45.9486 27.9715 47.1903 27.7232 48.1094 28.3359L58.8613 35.5038C60.6425 36.6913 60.6425 39.3087 58.8613 40.4961L48.1094 47.6641C47.1903 48.2768 45.9486 48.0284 45.3359 47.1094C44.7232 46.1903 44.9715 44.9486 45.8906 44.3359L55.3945 38L45.8906 31.6641C44.9715 31.0514 44.7232 29.8096 45.3359 28.8906Z" fill="#050505"/>
<path d="M88 78C88 83.5229 83.5229 88 78 88C72.4772 88 68 83.5229 68 78C68 72.4772 72.4772 68 78 68C83.5229 68 88 72.4772 88 78Z" fill="#F07702"/>
</svg>
