<svg width="96" height="96" viewBox="0 0 96 96" fill="none" xmlns="http://www.w3.org/2000/svg">
<path d="M43.7246 49.8579C41.8674 51.715 40.3943 53.9198 39.3892 56.3463C38.3841 58.7728 37.8668 61.3736 37.8668 64L45.8526 64C45.8526 62.4223 46.1634 60.86 46.7671 59.4024C47.3709 57.9448 48.2559 56.6203 49.3715 55.5047L43.7246 49.8579Z" fill="#FEC200"/>
<path d="M45.8677 76C45.8677 78.2091 44.0769 80 41.8677 80C39.6586 80 37.8677 78.2091 37.8677 76C37.8677 73.7909 39.6586 72 41.8677 72C44.0769 72 45.8677 73.7909 45.8677 76Z" fill="#FEC200"/>
<path d="M54.395 40.446L54.4031 40.454L60.05 46.1009L60.0519 46.1028L49.3749 55.545L43.7271 49.8684L54.395 40.446Z" fill="#FEC200"/>
<path d="M60.05 46.1009C62.3548 43.7827 64.0564 40.9345 65.0056 37.8057C65.9603 34.6583 66.1241 31.324 65.4825 28.0982C64.8408 24.8724 63.4135 21.8546 61.327 19.3121C59.2404 16.7697 56.5591 14.7811 53.5204 13.5224C50.4818 12.2638 47.1796 11.7739 43.9064 12.0963C40.6332 12.4187 37.4901 13.5433 34.7554 15.3706L39.1921 22.0106C40.8348 20.9129 42.7229 20.2374 44.6892 20.0437C46.6554 19.8501 48.639 20.1443 50.4644 20.9004C52.2897 21.6565 53.9004 22.851 55.1538 24.3783C56.4072 25.9056 57.2646 27.7184 57.6501 29.6562C58.0355 31.5939 57.9371 33.5969 57.3636 35.4875C56.7957 37.3596 55.7793 39.0644 54.4031 40.454L60.05 46.1009Z" fill="#FEC200"/>
<path d="M32 64C32 66.2091 30.2091 68 28 68C25.7909 68 24 66.2091 24 64C24 61.7909 25.7909 60 28 60C30.2091 60 32 61.7909 32 64Z" fill="#F07702"/>
<path d="M28.6863 40.6863C27.2006 42.172 26.022 43.9359 25.2179 45.8771C24.4139 47.8183 24 49.8988 24 52H32.1159C32.1159 50.9646 32.3198 49.9394 32.716 48.9829C33.1123 48.0263 33.693 47.1572 34.4251 46.4251L28.6863 40.6863Z" fill="#F07702"/>
<path d="M43.3137 39.3137C45.1743 37.4532 46.5472 35.1625 47.311 32.6446C48.0748 30.1266 48.2059 27.4592 47.6926 24.8786C47.1792 22.2979 46.0374 19.8837 44.3682 17.8497C42.6989 15.8158 40.5539 14.2249 38.1229 13.2179C35.692 12.211 33.0503 11.8191 30.4317 12.077C27.8132 12.335 25.2987 13.2347 23.1109 14.6965C20.9231 16.1583 19.1296 18.1371 17.8893 20.4577C16.6489 22.7782 16 25.3688 16 28L24.0657 28C24.0657 26.6952 24.3875 25.4105 25.0026 24.2598C25.6177 23.1091 26.507 22.1278 27.5919 21.4029C28.6768 20.678 29.9238 20.2318 31.2223 20.1039C32.5208 19.976 33.8308 20.1703 35.0363 20.6697C36.2418 21.169 37.3055 21.9579 38.1333 22.9665C38.9611 23.9752 39.5273 25.1724 39.7818 26.4521C40.0364 27.7318 39.9714 29.0546 39.5926 30.3032C39.2139 31.5518 38.533 32.6878 37.6104 33.6104L43.3137 39.3137Z" fill="#F07702"/>
<path d="M37.6201 33.6096L43.3152 39.311L34.4041 46.4315L28.6903 40.705L37.6201 33.6096Z" fill="#F07702"/>
<path d="M24 52H32V56H24V52Z" fill="#F07702"/>
<path fill-rule="evenodd" clip-rule="evenodd" d="M68 84C76.8366 84 84 76.8366 84 68C84 59.1634 76.8366 52 68 52C59.1634 52 52 59.1634 52 68C52 76.8366 59.1634 84 68 84ZM68 76C72.4183 76 76 72.4183 76 68C76 63.5817 72.4183 60 68 60C63.5817 60 60 63.5817 60 68C60 72.4183 63.5817 76 68 76Z" fill="#2570ED"/>
<path d="M83.7553 50.8998C84.2673 49.9211 83.889 48.7126 82.9103 48.2005C81.9316 47.6885 80.7231 48.0668 80.211 49.0455L69.8721 68.8071C69.8138 68.8786 69.7598 68.955 69.7106 69.0362C69.529 69.336 69.2718 69.5829 68.9647 69.752C68.6576 69.9211 68.3115 70.0065 67.961 69.9996C67.6105 69.9928 67.268 69.8939 66.9677 69.713C66.6675 69.5321 66.42 69.2754 66.2502 68.9687C66.2133 68.9019 66.173 68.838 66.1298 68.7772L65.4242 67.2058C64.9718 66.1981 63.7881 65.7481 62.7805 66.2005C61.7728 66.653 61.3227 67.8366 61.7752 68.8443L62.4888 70.4335C62.5437 70.5559 62.6095 70.6701 62.6844 70.7754C62.7048 70.8195 62.7269 70.863 62.7508 70.9061C63.2601 71.8262 64.0024 72.5962 64.9031 73.139C65.8039 73.6818 66.8315 73.9783 67.883 73.9989C68.9344 74.0194 69.9728 73.7631 70.8941 73.2559C71.8151 72.7487 72.5867 72.0084 73.1316 71.1091C73.2207 71.002 73.2999 70.8839 73.3671 70.7555L83.7553 50.8998Z" fill="#050505"/>
</svg>
