<svg width="96" height="96" viewBox="0 0 96 96" fill="none" xmlns="http://www.w3.org/2000/svg">
<path d="M84 70C84 77.732 77.732 84 70 84C62.268 84 56 77.732 56 70C56 62.268 62.268 56 70 56C77.732 56 84 62.268 84 70Z" fill="#FEC200"/>
<path fill-rule="evenodd" clip-rule="evenodd" d="M48 36C54.6273 36.0002 59.9997 41.3727 59.9997 48L88 48C88 42.7471 86.9654 37.5457 84.9552 32.6927C82.945 27.8396 79.9986 23.4301 76.2843 19.7157C72.5699 16.0014 68.1604 13.055 63.3073 11.0448C58.4543 9.03463 53.2529 8 48 8V36Z" fill="#2570ED"/>
<path d="M72 48C72 61.2548 61.2548 72 48 72C34.7452 72 24 61.2548 24 48C24 34.7452 34.7452 24 48 24C61.2548 24 72 34.7452 72 48Z" fill="#F07702"/>
<path fill-rule="evenodd" clip-rule="evenodd" d="M60.7023 14.3154C54.1993 11.8632 47.1254 11.3457 40.3348 12.8255C33.5441 14.3054 27.327 17.7192 22.4339 22.6549C17.5409 27.5906 14.1811 33.8371 12.7603 40.6404C11.3395 47.4436 11.9183 54.5127 14.4269 60.9942C16.9356 67.4757 21.2667 73.0925 26.8975 77.1665C32.5282 81.2405 39.2179 83.5975 46.1588 83.9529C47.262 84.0094 48.1104 84.9495 48.0539 86.0526C47.9974 87.1557 47.0574 88.0042 45.9543 87.9477C38.2421 87.5527 30.8092 84.9339 24.5527 80.4072C18.2963 75.8806 13.484 69.6397 10.6966 62.438C7.90926 55.2364 7.26611 47.3818 8.8448 39.8226C10.4235 32.2635 14.1565 25.3229 19.5933 19.8388C25.03 14.3547 31.9379 10.5615 39.4831 8.91726C47.0283 7.27301 54.8881 7.84796 62.1137 10.5727C69.3393 13.2974 75.6217 18.0554 80.2025 24.2723C84.7832 30.4892 87.4665 37.8992 87.9284 45.6076C87.9945 46.7102 87.1542 47.6576 86.0516 47.7237C84.949 47.7897 84.0016 46.9495 83.9356 45.8469C83.5199 38.9093 81.1049 32.2403 76.9822 26.6451C72.8595 21.0499 67.2053 16.7677 60.7023 14.3154Z" fill="#050505"/>
</svg>
